<svg xmlns="http://www.w3.org/2000/svg" xmlns:xlink="http://www.w3.org/1999/xlink" width="1456" height="400" viewBox="0 0 1456 400"><defs><clipPath id="b"><rect width="1456" height="400"/></clipPath></defs><g id="a" clip-path="url(#b)"><rect width="1456" height="400" fill="#fff"/><rect width="1456" height="400" rx="8" fill="#b6b7ba" opacity="0.382"/><g transform="translate(-15 -49)"><g transform="translate(31 61)"><rect width="56" height="56" rx="5" fill="#404145"/><text transform="translate(6 15)" fill="#e7e7e8" font-size="10" font-family="ArialMT, Arial"><tspan x="0" y="0">Esc</tspan></text><text transform="translate(28 40)" fill="#e7e7e8" font-size="10" font-family="ArialMT, Arial"><tspan x="-20.227" y="0">&quot;Escape&quot;</tspan></text></g><g transform="translate(96 61)"><rect width="56" height="56" rx="5" fill="#404145"/><text transform="translate(6 15)" fill="#e7e7e8" font-size="10" font-family="ArialMT, Arial"><tspan x="0" y="0">F1</tspan></text><text transform="translate(28 40)" fill="#e7e7e8" font-size="10" font-family="ArialMT, Arial"><tspan x="-9.385" y="0">&quot;F1&quot;</tspan></text></g><g transform="translate(161 61)"><rect width="56" height="56" rx="5" fill="#404145"/><text transform="translate(6 15)" fill="#e7e7e8" font-size="10" font-family="ArialMT, Arial"><tspan x="0" y="0">F2</tspan></text><text transform="translate(28 40)" fill="#e7e7e8" font-size="10" font-family="ArialMT, Arial"><tspan x="-9.385" y="0">&quot;F2&quot;</tspan></text></g><g transform="translate(226 61)"><rect width="56" height="56" rx="5" fill="#404145"/><text transform="translate(6 15)" fill="#e7e7e8" font-size="10" font-family="ArialMT, Arial"><tspan x="0" y="0">F3</tspan></text><text transform="translate(28 40)" fill="#e7e7e8" font-size="10" font-family="ArialMT, Arial"><tspan x="-9.385" y="0">&quot;F3&quot;</tspan></text></g><g transform="translate(291 61)"><rect width="56" height="56" rx="5" fill="#404145"/><text transform="translate(6 15)" fill="#e7e7e8" font-size="10" font-family="ArialMT, Arial"><tspan x="0" y="0">F4</tspan></text><text transform="translate(28 40)" fill="#e7e7e8" font-size="10" font-family="ArialMT, Arial"><tspan x="-9.385" y="0">&quot;F4&quot;</tspan></text></g><g transform="translate(356 61)"><rect width="56" height="56" rx="5" fill="#404145"/><text transform="translate(6 15)" fill="#e7e7e8" font-size="10" font-family="ArialMT, Arial"><tspan x="0" y="0">F5</tspan></text><text transform="translate(28 40)" fill="#e7e7e8" font-size="10" font-family="ArialMT, Arial"><tspan x="-9.385" y="0">&quot;F5&quot;</tspan></text></g><g transform="translate(421 61)"><rect width="56" height="56" rx="5" fill="#404145"/><text transform="translate(6 15)" fill="#e7e7e8" font-size="10" font-family="ArialMT, Arial"><tspan x="0" y="0">F6</tspan></text><text transform="translate(28 40)" fill="#e7e7e8" font-size="10" font-family="ArialMT, Arial"><tspan x="-9.385" y="0">&quot;F6&quot;</tspan></text></g><g transform="translate(486 61)"><rect width="56" height="56" rx="5" fill="#404145"/><text transform="translate(6 15)" fill="#e7e7e8" font-size="10" font-family="ArialMT, Arial"><tspan x="0" y="0">F7</tspan></text><text transform="translate(28 40)" fill="#e7e7e8" font-size="10" font-family="ArialMT, Arial"><tspan x="-9.385" y="0">&quot;F7&quot;</tspan></text></g><g transform="translate(551 61)"><rect width="56" height="56" rx="5" fill="#404145"/><text transform="translate(6 15)" fill="#e7e7e8" font-size="10" font-family="ArialMT, Arial"><tspan x="0" y="0">F8</tspan></text><text transform="translate(28 40)" fill="#e7e7e8" font-size="10" font-family="ArialMT, Arial"><tspan x="-9.385" y="0">&quot;F8&quot;</tspan></text></g><g transform="translate(616 61)"><rect width="56" height="56" rx="5" fill="#404145"/><text transform="translate(6 15)" fill="#e7e7e8" font-size="10" font-family="ArialMT, Arial"><tspan x="0" y="0">F9</tspan></text><text transform="translate(28 40)" fill="#e7e7e8" font-size="10" font-family="ArialMT, Arial"><tspan x="-9.385" y="0">&quot;F9&quot;</tspan></text></g><g transform="translate(681 61)"><rect width="56" height="56" rx="5" fill="#404145"/><text transform="translate(6 15)" fill="#e7e7e8" font-size="10" font-family="ArialMT, Arial"><tspan x="0" y="0">F10</tspan></text><text transform="translate(28 40)" fill="#e7e7e8" font-size="10" font-family="ArialMT, Arial"><tspan x="-12.166" y="0">&quot;F10&quot;</tspan></text></g><g transform="translate(746 61)"><rect width="56" height="56" rx="5" fill="#404145"/><text transform="translate(6 15)" fill="#e7e7e8" font-size="10" font-family="ArialMT, Arial"><tspan x="0" y="0">F11</tspan></text><text transform="translate(28 40)" fill="#e7e7e8" font-size="10" font-family="ArialMT, Arial"><tspan x="-11.794" y="0">&quot;F11&quot;</tspan></text></g><g transform="translate(811 61)"><rect width="56" height="56" rx="5" fill="#404145"/><text transform="translate(6 15)" fill="#e7e7e8" font-size="10" font-family="ArialMT, Arial"><tspan x="0" y="0">F12</tspan></text><text transform="translate(28 40)" fill="#e7e7e8" font-size="10" font-family="ArialMT, Arial"><tspan x="-12.166" y="0">&quot;F12&quot;</tspan></text></g><g transform="translate(876 61)"><rect width="88" height="56" rx="5" fill="#404145"/><text transform="translate(16 15)" fill="#e7e7e8" font-size="10" font-family="ArialMT, Arial"><tspan x="0" y="0">Inject</tspan></text><path d="M3.5,0,7,5H0Z" transform="translate(7 8)" fill="#e7e7e8"/><line x2="7" transform="translate(7 14.5)" fill="none" stroke="#e7e7e8" stroke-width="1"/></g><g transform="translate(31 125)"><rect width="88" height="56" rx="5" fill="#404145"/><text transform="translate(6 15)" fill="#e7e7e8" font-size="10" font-family="ArialMT, Arial"><tspan x="0" y="0">1</tspan></text><text transform="translate(44 40)" fill="#e7e7e8" font-size="10" font-family="ArialMT, Arial"><tspan x="-16.333" y="0">&quot;Digit1&quot;</tspan></text></g><g transform="translate(128 125)"><rect width="56" height="56" rx="5" fill="#404145"/><text transform="translate(6 15)" fill="#e7e7e8" font-size="10" font-family="ArialMT, Arial"><tspan x="0" y="0">2</tspan></text><text transform="translate(28 40)" fill="#e7e7e8" font-size="10" font-family="ArialMT, Arial"><tspan x="-16.333" y="0">&quot;Digit2&quot;</tspan></text></g><g transform="translate(193 125)"><rect width="56" height="56" rx="5" fill="#404145"/><text transform="translate(6 15)" fill="#e7e7e8" font-size="10" font-family="ArialMT, Arial"><tspan x="0" y="0">3</tspan></text><text transform="translate(28 40)" fill="#e7e7e8" font-size="10" font-family="ArialMT, Arial"><tspan x="-16.333" y="0">&quot;Digit3&quot;</tspan></text></g><g transform="translate(258 125)"><rect width="56" height="56" rx="5" fill="#404145"/><text transform="translate(6 15)" fill="#e7e7e8" font-size="10" font-family="ArialMT, Arial"><tspan x="0" y="0">4</tspan></text><text transform="translate(28 40)" fill="#e7e7e8" font-size="10" font-family="ArialMT, Arial"><tspan x="-16.333" y="0">&quot;Digit4&quot;</tspan></text></g><g transform="translate(323 125)"><rect width="56" height="56" rx="5" fill="#404145"/><text transform="translate(6 15)" fill="#e7e7e8" font-size="10" font-family="ArialMT, Arial"><tspan x="0" y="0">5</tspan></text><text transform="translate(28 40)" fill="#e7e7e8" font-size="10" font-family="ArialMT, Arial"><tspan x="-16.333" y="0">&quot;Digit5&quot;</tspan></text></g><g transform="translate(388 125)"><rect width="56" height="56" rx="5" fill="#404145"/><text transform="translate(6 15)" fill="#e7e7e8" font-size="10" font-family="ArialMT, Arial"><tspan x="0" y="0">6</tspan></text><text transform="translate(28 40)" fill="#e7e7e8" font-size="10" font-family="ArialMT, Arial"><tspan x="-16.333" y="0">&quot;Digit6&quot;</tspan></text></g><g transform="translate(453 125)"><rect width="56" height="56" rx="5" fill="#404145"/><text transform="translate(6 15)" fill="#e7e7e8" font-size="10" font-family="ArialMT, Arial"><tspan x="0" y="0">7</tspan></text><text transform="translate(28 40)" fill="#e7e7e8" font-size="10" font-family="ArialMT, Arial"><tspan x="-16.333" y="0">&quot;Digit7&quot;</tspan></text></g><g transform="translate(518 125)"><rect width="56" height="56" rx="5" fill="#404145"/><text transform="translate(6 15)" fill="#e7e7e8" font-size="10" font-family="ArialMT, Arial"><tspan x="0" y="0">8</tspan></text><text transform="translate(28 40)" fill="#e7e7e8" font-size="10" font-family="ArialMT, Arial"><tspan x="-16.333" y="0">&quot;Digit8&quot;</tspan></text></g><g transform="translate(583 125)"><rect width="56" height="56" rx="5" fill="#404145"/><text transform="translate(6 15)" fill="#e7e7e8" font-size="10" font-family="ArialMT, Arial"><tspan x="0" y="0">9</tspan></text><text transform="translate(28 40)" fill="#e7e7e8" font-size="10" font-family="ArialMT, Arial"><tspan x="-16.333" y="0">&quot;Digit9&quot;</tspan></text></g><g transform="translate(648 125)"><rect width="56" height="56" rx="5" fill="#404145"/><text transform="translate(6 15)" fill="#e7e7e8" font-size="10" font-family="ArialMT, Arial"><tspan x="0" y="0">0</tspan></text><text transform="translate(28 40)" fill="#e7e7e8" font-size="10" font-family="ArialMT, Arial"><tspan x="-16.333" y="0">&quot;Digit0&quot;</tspan></text></g><g transform="translate(713 125)"><rect width="56" height="56" rx="5" fill="#404145"/><text transform="translate(6 15)" fill="#e7e7e8" font-size="10" font-family="ArialMT, Arial"><tspan x="0" y="0">-</tspan></text><text transform="translate(28 40)" fill="#e7e7e8" font-size="10" font-family="ArialMT, Arial"><tspan x="-16.887" y="0">&quot;Minus&quot;</tspan></text></g><g transform="translate(778 125)"><rect width="56" height="56" rx="5" fill="#404145"/><text transform="translate(6 15)" fill="#e7e7e8" font-size="10" font-family="ArialMT, Arial"><tspan x="0" y="0">=</tspan></text><text transform="translate(28 40)" fill="#e7e7e8" font-size="10" font-family="ArialMT, Arial"><tspan x="-16.338" y="0">&quot;Equal&quot;</tspan></text></g><g transform="translate(843 125)"><rect width="56" height="56" rx="5" fill="#404145"/><text transform="translate(6 15)" fill="#e7e7e8" font-size="10" font-family="ArialMT, Arial"><tspan x="0" y="0">¥</tspan></text><text transform="translate(28 40)" fill="#e7e7e8" font-size="10" font-family="ArialMT, Arial"><tspan x="-18.657" y="0">&quot;IntlYen&quot;</tspan></text></g><g transform="translate(908 125)"><rect width="56" height="56" rx="5" fill="#404145"/><text transform="translate(6 15)" fill="#e7e7e8" font-size="10" font-family="ArialMT, Arial"><tspan x="0" y="0">delete</tspan></text><text transform="translate(28 40)" fill="#e7e7e8" font-size="9" font-family="ArialMT, Arial"><tspan x="-25.207" y="0">&quot;Backspace&quot;</tspan></text></g><g transform="translate(31 189)"><rect width="56" height="56" rx="5" fill="#404145"/><text transform="translate(6 15)" fill="#e7e7e8" font-size="10" font-family="ArialMT, Arial"><tspan x="0" y="0">tab</tspan></text><text transform="translate(28 40)" fill="#e7e7e8" font-size="10" font-family="ArialMT, Arial"><tspan x="-11.611" y="0">&quot;Tab&quot;</tspan></text></g><g transform="translate(96 189)"><rect width="56" height="56" rx="5" fill="#404145"/><text transform="translate(6 15)" fill="#e7e7e8" font-size="10" font-family="ArialMT, Arial"><tspan x="0" y="0">Q</tspan></text><text transform="translate(28 40)" fill="#e7e7e8" font-size="10" font-family="ArialMT, Arial"><tspan x="-16.055" y="0">&quot;KeyQ&quot;</tspan></text></g><g transform="translate(161 189)"><rect width="56" height="56" rx="5" fill="#404145"/><text transform="translate(6 15)" fill="#e7e7e8" font-size="10" font-family="ArialMT, Arial"><tspan x="0" y="0">W</tspan></text><text transform="translate(28 40)" fill="#e7e7e8" font-size="10" font-family="ArialMT, Arial"><tspan x="-16.885" y="0">&quot;KeyW&quot;</tspan></text></g><g transform="translate(226 189)"><rect width="56" height="56" rx="5" fill="#404145"/><text transform="translate(6 15)" fill="#e7e7e8" font-size="10" font-family="ArialMT, Arial"><tspan x="0" y="0">E</tspan></text><text transform="translate(28 40)" fill="#e7e7e8" font-size="10" font-family="ArialMT, Arial"><tspan x="-15.5" y="0">&quot;KeyE&quot;</tspan></text></g><g transform="translate(291 189)"><rect width="56" height="56" rx="5" fill="#404145"/><text transform="translate(6 15)" fill="#e7e7e8" font-size="10" font-family="ArialMT, Arial"><tspan x="0" y="0">R</tspan></text><text transform="translate(28 40)" fill="#e7e7e8" font-size="10" font-family="ArialMT, Arial"><tspan x="-15.776" y="0">&quot;KeyR&quot;</tspan></text></g><g transform="translate(356 189)"><rect width="56" height="56" rx="5" fill="#404145"/><text transform="translate(6 15)" fill="#e7e7e8" font-size="10" font-family="ArialMT, Arial"><tspan x="0" y="0">T</tspan></text><text transform="translate(28 40)" fill="#e7e7e8" font-size="10" font-family="ArialMT, Arial"><tspan x="-15.22" y="0">&quot;KeyT&quot;</tspan></text></g><g transform="translate(421 189)"><rect width="56" height="56" rx="5" fill="#404145"/><text transform="translate(6 15)" fill="#e7e7e8" font-size="10" font-family="ArialMT, Arial"><tspan x="0" y="0">Y</tspan></text><text transform="translate(28 40)" fill="#e7e7e8" font-size="10" font-family="ArialMT, Arial"><tspan x="-15.5" y="0">&quot;KeyY&quot;</tspan></text></g><g transform="translate(486 189)"><rect width="56" height="56" rx="5" fill="#404145"/><text transform="translate(6 15)" fill="#e7e7e8" font-size="10" font-family="ArialMT, Arial"><tspan x="0" y="0">U</tspan></text><text transform="translate(28 40)" fill="#e7e7e8" font-size="10" font-family="ArialMT, Arial"><tspan x="-15.776" y="0">&quot;KeyU&quot;</tspan></text></g><g transform="translate(551 189)"><rect width="56" height="56" rx="5" fill="#404145"/><text transform="translate(6 15)" fill="#e7e7e8" font-size="10" font-family="ArialMT, Arial"><tspan x="0" y="0">I</tspan></text><text transform="translate(28 40)" fill="#e7e7e8" font-size="10" font-family="ArialMT, Arial"><tspan x="-13.555" y="0">&quot;KeyI&quot;</tspan></text></g><g transform="translate(616 189)"><rect width="56" height="56" rx="5" fill="#404145"/><text transform="translate(6 15)" fill="#e7e7e8" font-size="10" font-family="ArialMT, Arial"><tspan x="0" y="0">O</tspan></text><text transform="translate(28 40)" fill="#e7e7e8" font-size="10" font-family="ArialMT, Arial"><tspan x="-16.055" y="0">&quot;KeyO&quot;</tspan></text></g><g transform="translate(681 189)"><rect width="56" height="56" rx="5" fill="#404145"/><text transform="translate(6 15)" fill="#e7e7e8" font-size="10" font-family="ArialMT, Arial"><tspan x="0" y="0">P</tspan></text><text transform="translate(28 40)" fill="#e7e7e8" font-size="10" font-family="ArialMT, Arial"><tspan x="-15.5" y="0">&quot;KeyP&quot;</tspan></text></g><g transform="translate(746 189)"><rect width="56" height="56" rx="5" fill="#404145"/><text transform="translate(6 15)" fill="#e7e7e8" font-size="10" font-family="ArialMT, Arial"><tspan x="0" y="0">@</tspan></text><text transform="translate(28 40)" fill="#e7e7e8" font-size="9" font-family="ArialMT, Arial"><tspan x="-25.956" y="0">&quot;BracketLeft&quot;</tspan></text></g><g transform="translate(811 189)"><rect width="56" height="56" rx="5" fill="#404145"/><text transform="translate(6 15)" fill="#e7e7e8" font-size="10" font-family="ArialMT, Arial"><tspan x="0" y="0">[</tspan></text><text transform="translate(28 40)" fill="#e7e7e8" font-size="8" font-family="ArialMT, Arial"><tspan x="-25.738" y="0">&quot;BracketRight&quot;</tspan></text></g><g transform="translate(876 189)"><path d="M83,0H5A5,5,0,0,0,0,5V51c-.1,6.243,7.969,4.929,12,5a5,5,0,0,1,5,5v54a5,5,0,0,0,5,5H83a5,5,0,0,0,5-5c.006-14.041,0-70.115,0-83V5A5,5,0,0,0,83,0Z" transform="translate(0.001)" fill="#404145"/><text transform="translate(6 18)" fill="#e7e7e8" font-size="10" font-family="LucidaGrande, Lucida Grande"><tspan x="0" y="0">↩︎</tspan></text><text transform="translate(18 15)" fill="#e7e7e8" font-size="10" font-family="ArialMT, Arial"><tspan x="0" y="0">return</tspan></text><text transform="translate(50 60)" fill="#e7e7e8" font-size="10" font-family="ArialMT, Arial"><tspan x="-15.5" y="0">&quot;Enter&quot;</tspan></text></g><g transform="translate(31 253)"><rect width="73" height="56" rx="5" fill="#404145"/><text transform="translate(6 15)" fill="#e7e7e8" font-size="10" font-family="ArialMT, Arial"><tspan x="0" y="0">control</tspan></text><text transform="translate(37 39)" fill="#e7e7e8" font-size="9" font-family="ArialMT, Arial"><tspan x="-25.207" y="0">&quot;ControlLeft&quot;</tspan></text></g><g transform="translate(113 253)"><rect width="56" height="56" rx="5" fill="#404145"/><text transform="translate(6 15)" fill="#e7e7e8" font-size="10" font-family="ArialMT, Arial"><tspan x="0" y="0">A</tspan></text><text transform="translate(28 40)" fill="#e7e7e8" font-size="10" font-family="ArialMT, Arial"><tspan x="-15.5" y="0">&quot;KeyA&quot;</tspan></text></g><g transform="translate(178 253)"><rect width="56" height="56" rx="5" fill="#404145"/><text transform="translate(6 15)" fill="#e7e7e8" font-size="10" font-family="ArialMT, Arial"><tspan x="0" y="0">S</tspan></text><text transform="translate(28 40)" fill="#e7e7e8" font-size="10" font-family="ArialMT, Arial"><tspan x="-15.5" y="0">&quot;KeyS&quot;</tspan></text></g><g transform="translate(243 253)"><rect width="56" height="56" rx="5" fill="#404145"/><text transform="translate(6 15)" fill="#e7e7e8" font-size="10" font-family="ArialMT, Arial"><tspan x="0" y="0">D</tspan></text><text transform="translate(28 40)" fill="#e7e7e8" font-size="10" font-family="ArialMT, Arial"><tspan x="-15.776" y="0">&quot;KeyD&quot;</tspan></text></g><g transform="translate(308 253)"><rect width="56" height="56" rx="5" fill="#404145"/><text transform="translate(6 15)" fill="#e7e7e8" font-size="10" font-family="ArialMT, Arial"><tspan x="0" y="0">F</tspan></text><text transform="translate(28 40)" fill="#e7e7e8" font-size="10" font-family="ArialMT, Arial"><tspan x="-15.22" y="0">&quot;KeyF&quot;</tspan></text></g><g transform="translate(373 253)"><rect width="56" height="56" rx="5" fill="#404145"/><text transform="translate(6 15)" fill="#e7e7e8" font-size="10" font-family="ArialMT, Arial"><tspan x="0" y="0">G</tspan></text><text transform="translate(28 40)" fill="#e7e7e8" font-size="10" font-family="ArialMT, Arial"><tspan x="-16.055" y="0">&quot;KeyG&quot;</tspan></text></g><g transform="translate(438 253)"><rect width="56" height="56" rx="5" fill="#404145"/><text transform="translate(6 15)" fill="#e7e7e8" font-size="10" font-family="ArialMT, Arial"><tspan x="0" y="0">H</tspan></text><text transform="translate(28 40)" fill="#e7e7e8" font-size="10" font-family="ArialMT, Arial"><tspan x="-15.776" y="0">&quot;KeyH&quot;</tspan></text></g><g transform="translate(503 253)"><rect width="56" height="56" rx="5" fill="#404145"/><text transform="translate(6 15)" fill="#e7e7e8" font-size="10" font-family="ArialMT, Arial"><tspan x="0" y="0">J</tspan></text><text transform="translate(28 40)" fill="#e7e7e8" font-size="10" font-family="ArialMT, Arial"><tspan x="-14.666" y="0">&quot;KeyJ&quot;</tspan></text></g><g transform="translate(568 253)"><rect width="56" height="56" rx="5" fill="#404145"/><text transform="translate(6 15)" fill="#e7e7e8" font-size="10" font-family="ArialMT, Arial"><tspan x="0" y="0">K</tspan></text><text transform="translate(28 40)" fill="#e7e7e8" font-size="10" font-family="ArialMT, Arial"><tspan x="-15.5" y="0">&quot;KeyK&quot;</tspan></text></g><g transform="translate(633 253)"><rect width="56" height="56" rx="5" fill="#404145"/><text transform="translate(6 15)" fill="#e7e7e8" font-size="10" font-family="ArialMT, Arial"><tspan x="0" y="0">L</tspan></text><text transform="translate(28 40)" fill="#e7e7e8" font-size="10" font-family="ArialMT, Arial"><tspan x="-14.946" y="0">&quot;KeyL&quot;</tspan></text></g><g transform="translate(698 253)"><rect width="56" height="56" rx="5" fill="#404145"/><text transform="translate(6 15)" fill="#e7e7e8" font-size="10" font-family="Arial-BoldMT, Arial" font-weight="700"><tspan x="0" y="0">;</tspan></text><text transform="translate(28 40)" fill="#e7e7e8" font-size="10" font-family="ArialMT, Arial"><tspan x="-26.895" y="0">&quot;Semicolon&quot;</tspan></text></g><g transform="translate(763 253)"><rect width="56" height="56" rx="5" fill="#404145"/><text transform="translate(6 15)" fill="#e7e7e8" font-size="10" font-family="Arial-BoldMT, Arial" font-weight="700"><tspan x="0" y="0">:</tspan></text><text transform="translate(28 40)" fill="#e7e7e8" font-size="9" font-family="ArialMT, Arial"><tspan x="-15.453" y="0">&quot;Quote&quot;</tspan></text></g><g transform="translate(828 253)"><rect width="56" height="56" rx="5" fill="#404145"/><text transform="translate(6 15)" fill="#e7e7e8" font-size="10" font-family="ArialMT, Arial"><tspan x="0" y="0">]</tspan></text><text transform="translate(28 40)" fill="#e7e7e8" font-size="8" font-family="ArialMT, Arial"><tspan x="-21.07" y="0">&quot;Backslash&quot;</tspan></text></g><g transform="translate(31 317)"><rect width="105" height="56" rx="5" fill="#404145"/><text transform="translate(6 15)" fill="#e7e7e8" font-size="10" font-family="ArialMT, Arial"><tspan x="0" y="0">shift</tspan></text><text transform="translate(52.5 40)" fill="#e7e7e8" font-size="10" font-family="ArialMT, Arial"><tspan x="-21.895" y="0">&quot;ShiftLeft&quot;</tspan></text></g><g transform="translate(145 317)"><rect width="56" height="56" rx="5" fill="#404145"/><text transform="translate(6 15)" fill="#e7e7e8" font-size="10" font-family="ArialMT, Arial"><tspan x="0" y="0">Z</tspan></text><text transform="translate(28 40)" fill="#e7e7e8" font-size="10" font-family="ArialMT, Arial"><tspan x="-15.22" y="0">&quot;KeyZ&quot;</tspan></text></g><g transform="translate(210 317)"><rect width="56" height="56" rx="5" fill="#404145"/><text transform="translate(6 15)" fill="#e7e7e8" font-size="10" font-family="ArialMT, Arial"><tspan x="0" y="0">X</tspan></text><text transform="translate(28 40)" fill="#e7e7e8" font-size="10" font-family="ArialMT, Arial"><tspan x="-15.5" y="0">&quot;KeyX&quot;</tspan></text></g><g transform="translate(275 317)"><rect width="56" height="56" rx="5" fill="#404145"/><text transform="translate(6 15)" fill="#e7e7e8" font-size="10" font-family="ArialMT, Arial"><tspan x="0" y="0">C</tspan></text><text transform="translate(28 40)" fill="#e7e7e8" font-size="10" font-family="ArialMT, Arial"><tspan x="-15.776" y="0">&quot;KeyC&quot;</tspan></text></g><g transform="translate(340 317)"><rect width="56" height="56" rx="5" fill="#404145"/><text transform="translate(6 15)" fill="#e7e7e8" font-size="10" font-family="ArialMT, Arial"><tspan x="0" y="0">V</tspan></text><text transform="translate(28 40)" fill="#e7e7e8" font-size="10" font-family="ArialMT, Arial"><tspan x="-15.5" y="0">&quot;KeyV&quot;</tspan></text></g><g transform="translate(405 317)"><rect width="56" height="56" rx="5" fill="#404145"/><text transform="translate(6 15)" fill="#e7e7e8" font-size="10" font-family="ArialMT, Arial"><tspan x="0" y="0">B</tspan></text><text transform="translate(28 40)" fill="#e7e7e8" font-size="10" font-family="ArialMT, Arial"><tspan x="-15.5" y="0">&quot;KeyB&quot;</tspan></text></g><g transform="translate(470 317)"><rect width="56" height="56" rx="5" fill="#404145"/><text transform="translate(6 15)" fill="#e7e7e8" font-size="10" font-family="ArialMT, Arial"><tspan x="0" y="0">N</tspan></text><text transform="translate(28 40)" fill="#e7e7e8" font-size="10" font-family="ArialMT, Arial"><tspan x="-15.776" y="0">&quot;KeyN&quot;</tspan></text></g><g transform="translate(535 317)"><rect width="56" height="56" rx="5" fill="#404145"/><text transform="translate(6 15)" fill="#e7e7e8" font-size="10" font-family="ArialMT, Arial"><tspan x="0" y="0">M</tspan></text><text transform="translate(28 40)" fill="#e7e7e8" font-size="10" font-family="ArialMT, Arial"><tspan x="-16.331" y="0">&quot;KeyM&quot;</tspan></text></g><g transform="translate(600 317)"><rect width="56" height="56" rx="5" fill="#404145"/><text transform="translate(6 15)" fill="#e7e7e8" font-size="10" font-family="Arial-BoldMT, Arial" font-weight="700"><tspan x="0" y="0">,</tspan></text><text transform="translate(28 40)" fill="#e7e7e8" font-size="10" font-family="ArialMT, Arial"><tspan x="-21.052" y="0">&quot;Comma&quot;</tspan></text></g><g transform="translate(665 317)"><rect width="56" height="56" rx="5" fill="#404145"/><text transform="translate(6 15)" fill="#e7e7e8" font-size="10" font-family="Arial-BoldMT, Arial" font-weight="700"><tspan x="0" y="0">.</tspan></text><text transform="translate(28 40)" fill="#e7e7e8" font-size="10" font-family="ArialMT, Arial"><tspan x="-18.003" y="0">&quot;Period&quot;</tspan></text></g><g transform="translate(730 317)"><rect width="56" height="56" rx="5" fill="#404145"/><text transform="translate(6 15)" fill="#e7e7e8" font-size="10" font-family="Arial-BoldMT, Arial" font-weight="700"><tspan x="0" y="0">/</tspan></text><text transform="translate(28 40)" fill="#e7e7e8" font-size="10" font-family="ArialMT, Arial"><tspan x="-16.057" y="0">&quot;Slash&quot;</tspan></text></g><g transform="translate(795 317)"><rect width="56" height="56" rx="5" fill="#404145"/><text transform="translate(6 15)" fill="#e7e7e8" font-size="10" font-family="Arial-BoldMT, Arial" font-weight="700"><tspan x="0" y="0">_</tspan></text><text transform="translate(28 40)" fill="#e7e7e8" font-size="9" font-family="ArialMT, Arial"><tspan x="-14.95" y="0">&quot;IntlRo&quot;</tspan></text></g><g transform="translate(859 317)"><rect width="105" height="56" rx="5" fill="#404145"/><text transform="translate(6 15)" fill="#e7e7e8" font-size="10" font-family="ArialMT, Arial"><tspan x="0" y="0">shift</tspan></text><text transform="translate(52.5 40)" fill="#e7e7e8" font-size="10" font-family="ArialMT, Arial"><tspan x="-25.227" y="0">&quot;ShiftRight&quot;</tspan></text></g><g transform="translate(31 381)"><rect width="56" height="56" rx="5" fill="#404145"/><text transform="translate(6 15)" fill="#e7e7e8" font-size="10" font-family="ArialMT, Arial"><tspan x="0" y="0">caps lock</tspan></text><text transform="translate(28 40)" fill="#e7e7e8" font-size="10" font-family="ArialMT, Arial"><tspan x="-25.784" y="0">&quot;CapsLock&quot;</tspan></text></g><g transform="translate(96 381)"><rect width="56" height="56" rx="5" fill="#404145"/><text transform="translate(6 15)" fill="#e7e7e8" font-size="10" font-family="ArialMT, Arial"><tspan x="0" y="0">option</tspan></text><text transform="translate(28 40)" fill="#e7e7e8" font-size="10" font-family="ArialMT, Arial"><tspan x="-17.725" y="0">&quot;AltLeft&quot;</tspan></text></g><g transform="translate(161 381)"><rect width="73" height="56" rx="5" fill="#404145"/><text transform="translate(6 15)" fill="#e7e7e8" font-size="10" font-family="LucidaGrande, Lucida Grande"><tspan x="0" y="0">⌘</tspan></text><text transform="translate(37 40)" fill="#e7e7e8" font-size="10" font-family="ArialMT, Arial"><tspan x="-23.005" y="0">&quot;MetaLeft&quot;</tspan></text></g><g transform="translate(243 381)"><rect width="73" height="56" rx="5" fill="#404145"/><text transform="translate(6 15)" fill="#e7e7e8" font-size="10" font-family="HiraginoSans-W3, Hiragino Sans"><tspan x="0" y="0">英数</tspan></text></g><g transform="translate(325 381)"><rect width="215" height="56" rx="5" fill="#404145"/><text transform="translate(6 15)" fill="#e7e7e8" font-size="10" font-family="ArialMT, Arial"><tspan x="0" y="0">Space</tspan></text><text transform="translate(108 40)" fill="#e7e7e8" font-size="10" font-family="ArialMT, Arial"><tspan x="-17.727" y="0">&quot;Space&quot;</tspan></text></g><g transform="translate(549 381)"><rect width="73" height="56" rx="5" fill="#404145"/><text transform="translate(6 15)" fill="#e7e7e8" font-size="10" font-family="HiraginoSans-W3, Hiragino Sans"><tspan x="0" y="0">かな</tspan></text></g><g transform="translate(713 381)"><rect width="121" height="56" rx="5" fill="#404145"/><text transform="translate(6 14)" fill="#e7e7e8" font-size="9" font-family="ArialMT, Arial"><tspan x="0" y="0">option</tspan></text><text transform="translate(61 39)" fill="#e7e7e8" font-size="9" font-family="ArialMT, Arial"><tspan x="-18.951" y="0">&quot;AltRight&quot;</tspan></text></g><g transform="translate(843 381)"><rect width="121" height="56" rx="5" fill="#404145"/><text transform="translate(6 14)" fill="#e7e7e8" font-size="9" font-family="ArialMT, Arial"><tspan x="0" y="0">caps lock</tspan></text><text transform="translate(61 39)" fill="#e7e7e8" font-size="9" font-family="ArialMT, Arial"><tspan x="-23.205" y="0">&quot;CapsLock&quot;</tspan></text></g><g transform="translate(631 381)"><rect width="73" height="56" rx="5" fill="#404145"/><text transform="translate(6 15)" fill="#e7e7e8" font-size="10" font-family="LucidaGrande, Lucida Grande"><tspan x="0" y="0">⌘</tspan></text><text transform="translate(37 40)" fill="#e7e7e8" font-size="10" font-family="ArialMT, Arial"><tspan x="-26.338" y="0">&quot;MetaRight&quot;</tspan></text></g><g transform="translate(991 61)"><rect width="56" height="56" rx="5" fill="#404145"/><text transform="translate(6 15)" fill="#e7e7e8" font-size="10" font-family="ArialMT, Arial"><tspan x="0" y="0">F13</tspan></text><text transform="translate(28 40)" fill="#e7e7e8" font-size="10" font-family="ArialMT, Arial"><tspan x="-12.166" y="0">&quot;F13&quot;</tspan></text></g><g transform="translate(1056 61)"><rect width="56" height="56" rx="5" fill="#404145"/><text transform="translate(6 15)" fill="#e7e7e8" font-size="10" font-family="ArialMT, Arial"><tspan x="0" y="0">F14</tspan></text><text transform="translate(28 40)" fill="#e7e7e8" font-size="10" font-family="ArialMT, Arial"><tspan x="-12.166" y="0">&quot;F14&quot;</tspan></text></g><g transform="translate(1121 61)"><rect width="56" height="56" rx="5" fill="#404145"/><text transform="translate(6 15)" fill="#e7e7e8" font-size="10" font-family="ArialMT, Arial"><tspan x="0" y="0">F15</tspan></text><text transform="translate(28 40)" fill="#e7e7e8" font-size="10" font-family="ArialMT, Arial"><tspan x="-12.166" y="0">&quot;F15&quot;</tspan></text></g><g transform="translate(991 125)"><rect width="56" height="56" rx="5" fill="#404145"/><text transform="translate(6 15)" fill="#e7e7e8" font-size="10" font-family="ArialMT, Arial"><tspan x="0" y="0">fn</tspan></text></g><g transform="translate(1056 125)"><rect width="56" height="56" rx="5" fill="#404145"/><text transform="translate(6 15)" fill="#e7e7e8" font-size="10" font-family="ArialMT, Arial"><tspan x="0" y="0">home</tspan></text><text transform="translate(28 40)" fill="#e7e7e8" font-size="10" font-family="ArialMT, Arial"><tspan x="-16.887" y="0">&quot;Home&quot;</tspan></text></g><g transform="translate(1121 125)"><rect width="56" height="56" rx="5" fill="#404145"/><text transform="translate(6 15)" fill="#e7e7e8" font-size="10" font-family="ArialMT, Arial"><tspan x="0" y="0">↑</tspan></text><text transform="translate(28 40)" fill="#e7e7e8" font-size="10" font-family="ArialMT, Arial"><tspan x="-21.619" y="0">&quot;PageUp&quot;</tspan></text></g><g transform="translate(991 189)"><rect width="56" height="56" rx="5" fill="#404145"/><text transform="translate(6 15)" fill="#e7e7e8" font-size="10" font-family="ArialMT, Arial"><tspan x="0" y="0">delete</tspan></text><text transform="translate(28 40)" fill="#e7e7e8" font-size="10" font-family="ArialMT, Arial"><tspan x="-18.003" y="0">&quot;Delete&quot;</tspan></text></g><g transform="translate(1056 189)"><rect width="56" height="56" rx="5" fill="#404145"/><text transform="translate(6 15)" fill="#e7e7e8" font-size="10" font-family="ArialMT, Arial"><tspan x="0" y="0">end</tspan></text><text transform="translate(28 40)" fill="#e7e7e8" font-size="10" font-family="ArialMT, Arial"><tspan x="-12.446" y="0">&quot;End&quot;</tspan></text></g><g transform="translate(1121 189)"><rect width="56" height="56" rx="5" fill="#404145"/><text transform="translate(6 15)" fill="#e7e7e8" font-size="10" font-family="ArialMT, Arial"><tspan x="0" y="0">↓</tspan></text><text transform="translate(28 40)" fill="#e7e7e8" font-size="9" font-family="ArialMT, Arial"><tspan x="-25.209" y="0">&quot;PageDown&quot;</tspan></text></g><g transform="translate(1056 317)"><rect width="56" height="56" rx="5" fill="#404145"/><text transform="translate(28 40)" fill="#e7e7e8" font-size="10" font-family="ArialMT, Arial"><tspan x="-22.998" y="0">&quot;ArrowUp&quot;</tspan></text><path d="M3.5,0,7,7H0Z" transform="translate(7 8)" fill="#e7e7e8"/></g><g transform="translate(991 381)"><rect width="56" height="56" rx="5" fill="#404145"/><text transform="translate(28 40)" fill="#e7e7e8" font-size="10" font-family="ArialMT, Arial"><tspan x="-24.946" y="0">&quot;ArrowLeft&quot;</tspan></text><path d="M3.5,0,7,7H0Z" transform="translate(7 15) rotate(-90)" fill="#e7e7e8"/></g><g transform="translate(1056 381)"><rect width="56" height="56" rx="5" fill="#404145"/><text transform="translate(28 40)" fill="#e7e7e8" font-size="9" font-family="ArialMT, Arial"><tspan x="-26.451" y="0">&quot;ArrowDown&quot;</tspan></text><path d="M3.5,0,7,7H0Z" transform="translate(14 15) rotate(180)" fill="#e7e7e8"/></g><g transform="translate(1121 381)"><rect width="56" height="56" rx="5" fill="#404145"/><text transform="translate(28 40)" fill="#e7e7e8" font-size="9" font-family="ArialMT, Arial"><tspan x="-25.451" y="0">&quot;ArrowRight&quot;</tspan></text><path d="M3.5,0,7,7H0Z" transform="translate(14 8) rotate(90)" fill="#e7e7e8"/></g><g transform="translate(1204 61)"><rect width="56" height="56" rx="5" fill="#404145"/><text transform="translate(6 15)" fill="#e7e7e8" font-size="10" font-family="ArialMT, Arial"><tspan x="0" y="0">F16</tspan></text><text transform="translate(28 40)" fill="#e7e7e8" font-size="10" font-family="ArialMT, Arial"><tspan x="-12.166" y="0">&quot;F16&quot;</tspan></text></g><g transform="translate(1269 61)"><rect width="56" height="56" rx="5" fill="#404145"/><text transform="translate(6 15)" fill="#e7e7e8" font-size="10" font-family="ArialMT, Arial"><tspan x="0" y="0">F17</tspan></text><text transform="translate(28 40)" fill="#e7e7e8" font-size="10" font-family="ArialMT, Arial"><tspan x="-12.166" y="0">&quot;F17&quot;</tspan></text></g><g transform="translate(1334 61)"><rect width="56" height="56" rx="5" fill="#404145"/><text transform="translate(6 15)" fill="#e7e7e8" font-size="10" font-family="ArialMT, Arial"><tspan x="0" y="0">F18</tspan></text><text transform="translate(28 40)" fill="#e7e7e8" font-size="10" font-family="ArialMT, Arial"><tspan x="-12.166" y="0">&quot;F18&quot;</tspan></text></g><g transform="translate(1399 61)"><rect width="56" height="56" rx="5" fill="#404145"/><text transform="translate(6 15)" fill="#e7e7e8" font-size="10" font-family="ArialMT, Arial"><tspan x="0" y="0">F19</tspan></text><text transform="translate(28 40)" fill="#e7e7e8" font-size="10" font-family="ArialMT, Arial"><tspan x="-12.166" y="0">&quot;F19&quot;</tspan></text></g><g transform="translate(1204 125)"><rect width="56" height="56" rx="5" fill="#404145"/><text transform="translate(28 40)" fill="#e7e7e8" font-size="8" font-family="ArialMT, Arial"><tspan x="-26.408" y="0">&quot;NumpadLock&quot;</tspan></text><g transform="translate(7 8)" fill="none" stroke="#e7e7e8" stroke-width="1"><rect width="8" height="8" stroke="none"/><rect x="0.5" y="0.5" width="7" height="7" fill="none"/></g><line x2="3" y2="3" transform="translate(9.5 10.5)" fill="none" stroke="#e7e7e8" stroke-width="1"/><line y1="3" x2="3" transform="translate(9.5 10.5)" fill="none" stroke="#e7e7e8" stroke-width="1"/></g><g transform="translate(1269 125)"><rect width="56" height="56" rx="5" fill="#404145"/><text transform="translate(6 15)" fill="#e7e7e8" font-size="10" font-family="ArialMT, Arial"><tspan x="0" y="0">=</tspan></text><text transform="translate(28 40)" fill="#e7e7e8" font-size="7.5" font-family="ArialMT, Arial"><tspan x="-26.428" y="0">&quot;NumpadEqual&quot;</tspan></text></g><g transform="translate(1334 125)"><rect width="56" height="56" rx="5" fill="#404145"/><text transform="translate(6 15)" fill="#e7e7e8" font-size="10" font-family="ArialMT, Arial"><tspan x="0" y="0">/</tspan></text><text transform="translate(28 40)" fill="#e7e7e8" font-size="7.5" font-family="ArialMT, Arial"><tspan x="-27.257" y="0">&quot;NumpadDivide&quot;</tspan></text></g><g transform="translate(1399 125)"><rect width="56" height="56" rx="5" fill="#404145"/><text transform="translate(6 15)" fill="#e7e7e8" font-size="10" font-family="ArialMT, Arial"><tspan x="0" y="0">F13</tspan></text><text transform="translate(28 40)" fill="#e7e7e8" font-size="7" font-family="ArialMT, Arial"><tspan x="-27.578" y="0">&quot;NumpadMultiply&quot;</tspan></text></g><g transform="translate(1204 189)"><rect width="56" height="56" rx="5" fill="#404145"/><text transform="translate(6 15)" fill="#e7e7e8" font-size="10" font-family="ArialMT, Arial"><tspan x="0" y="0">7</tspan></text><text transform="translate(28 40)" fill="#e7e7e8" font-size="10" font-family="ArialMT, Arial"><tspan x="-25.229" y="0">&quot;Numpad7&quot;</tspan></text></g><g transform="translate(1269 189)"><rect width="56" height="56" rx="5" fill="#404145"/><text transform="translate(6 15)" fill="#e7e7e8" font-size="10" font-family="ArialMT, Arial"><tspan x="0" y="0">8</tspan></text><text transform="translate(28 40)" fill="#e7e7e8" font-size="10" font-family="ArialMT, Arial"><tspan x="-25.229" y="0">&quot;Numpad8&quot;</tspan></text></g><g transform="translate(1334 189)"><rect width="56" height="56" rx="5" fill="#404145"/><text transform="translate(6 15)" fill="#e7e7e8" font-size="10" font-family="ArialMT, Arial"><tspan x="0" y="0">9</tspan></text><text transform="translate(28 40)" fill="#e7e7e8" font-size="10" font-family="ArialMT, Arial"><tspan x="-25.229" y="0">&quot;Numpad9&quot;</tspan></text></g><g transform="translate(1399 189)"><rect width="56" height="56" rx="5" fill="#404145"/><text transform="translate(6 15)" fill="#e7e7e8" font-size="10" font-family="ArialMT, Arial"><tspan x="0" y="0">-</tspan></text><text transform="translate(28 40)" fill="#e7e7e8" font-size="6.5" font-family="ArialMT, Arial"><tspan x="-26.695" y="0">&quot;NumpadSubtract&quot;</tspan></text></g><g transform="translate(1204 253)"><rect width="56" height="56" rx="5" fill="#404145"/><text transform="translate(6 15)" fill="#e7e7e8" font-size="10" font-family="ArialMT, Arial"><tspan x="0" y="0">4</tspan></text><text transform="translate(28 40)" fill="#e7e7e8" font-size="10" font-family="ArialMT, Arial"><tspan x="-25.229" y="0">&quot;Numpad4&quot;</tspan></text></g><g transform="translate(1269 253)"><rect width="56" height="56" rx="5" fill="#404145"/><text transform="translate(6 15)" fill="#e7e7e8" font-size="10" font-family="ArialMT, Arial"><tspan x="0" y="0">5</tspan></text><text transform="translate(28 40)" fill="#e7e7e8" font-size="10" font-family="ArialMT, Arial"><tspan x="-25.229" y="0">&quot;Numpad5&quot;</tspan></text></g><g transform="translate(1334 253)"><rect width="56" height="56" rx="5" fill="#404145"/><text transform="translate(6 15)" fill="#e7e7e8" font-size="10" font-family="ArialMT, Arial"><tspan x="0" y="0">6</tspan></text><text transform="translate(28 40)" fill="#e7e7e8" font-size="10" font-family="ArialMT, Arial"><tspan x="-25.229" y="0">&quot;Numpad6&quot;</tspan></text></g><g transform="translate(1399 253)"><rect width="56" height="56" rx="5" fill="#404145"/><text transform="translate(6 15)" fill="#e7e7e8" font-size="10" font-family="ArialMT, Arial"><tspan x="0" y="0">+</tspan></text><text transform="translate(28 40)" fill="#e7e7e8" font-size="8.5" font-family="ArialMT, Arial"><tspan x="-26.643" y="0">&quot;NumpadAdd&quot;</tspan></text></g><g transform="translate(1204 317)"><rect width="56" height="56" rx="5" fill="#404145"/><text transform="translate(6 15)" fill="#e7e7e8" font-size="10" font-family="ArialMT, Arial"><tspan x="0" y="0">1</tspan></text><text transform="translate(28 40)" fill="#e7e7e8" font-size="10" font-family="ArialMT, Arial"><tspan x="-25.229" y="0">&quot;Numpad1&quot;</tspan></text></g><g transform="translate(1269 317)"><rect width="56" height="56" rx="5" fill="#404145"/><text transform="translate(6 15)" fill="#e7e7e8" font-size="10" font-family="ArialMT, Arial"><tspan x="0" y="0">2</tspan></text><text transform="translate(28 40)" fill="#e7e7e8" font-size="10" font-family="ArialMT, Arial"><tspan x="-25.229" y="0">&quot;Numpad2&quot;</tspan></text></g><g transform="translate(1334 317)"><rect width="56" height="56" rx="5" fill="#404145"/><text transform="translate(6 15)" fill="#e7e7e8" font-size="10" font-family="ArialMT, Arial"><tspan x="0" y="0">3</tspan></text><text transform="translate(28 40)" fill="#e7e7e8" font-size="10" font-family="ArialMT, Arial"><tspan x="-25.229" y="0">&quot;Numpad3&quot;</tspan></text></g><g transform="translate(1399 317)"><rect width="56" height="120" rx="5" fill="#404145"/><text transform="translate(28 61)" fill="#e7e7e8" font-size="8" font-family="ArialMT, Arial"><tspan x="-27.52" y="0">&quot;NumpadEnter&quot;</tspan></text><line x2="6" transform="translate(6.5 8.5)" fill="none" stroke="#e7e7e8" stroke-width="1"/><path d="M5.5,13.235l2.948-2.948L11.4,13.235" transform="translate(1 -1)" fill="none" stroke="#e7e7e8" stroke-width="1"/></g><g transform="translate(1204 381)"><rect width="56" height="56" rx="5" fill="#404145"/><text transform="translate(6 15)" fill="#e7e7e8" font-size="10" font-family="ArialMT, Arial"><tspan x="0" y="0">0</tspan></text><text transform="translate(28 40)" fill="#e7e7e8" font-size="10" font-family="ArialMT, Arial"><tspan x="-25.229" y="0">&quot;Numpad0&quot;</tspan></text></g><g transform="translate(1269 381)"><rect width="56" height="56" rx="5" fill="#404145"/><text transform="translate(6 15)" fill="#e7e7e8" font-size="10" font-family="Arial-BoldMT, Arial" font-weight="700"><tspan x="0" y="0">,</tspan></text><text transform="translate(28 40)" fill="#e7e7e8" font-size="10" font-family="ArialMT, Arial"><tspan x="-22.449" y="0">&quot;Numpad&quot;</tspan></text></g><g transform="translate(1334 381)"><rect width="56" height="56" rx="5" fill="#404145"/><text transform="translate(6 15)" fill="#e7e7e8" font-size="10" font-family="Arial-BoldMT, Arial" font-weight="700"><tspan x="0" y="0">.</tspan></text><text transform="translate(28 40)" fill="#e7e7e8" font-size="6.5" font-family="ArialMT, Arial"><tspan x="-26.33" y="0">&quot;NumpadDecimal&quot;</tspan></text></g></g></g></svg>