<?xml version="1.0" encoding="utf-8"?>
<svg version="1.1"
    xmlns="http://www.w3.org/2000/svg"
    xmlns:xlink="http://www.w3.org/1999/xlink" viewBox="0 0 2176 512">
    <style type="text/css">
		.color{fill:#e3e6e8;}
	</style>
    <g class="color">
        <polygon points="342,0 342,144 170,144 170,0 0,0 0,512 170,512 170,192 342,192 342,512 512,512 512,0 "/>
        <path  d="M635.8,494.2V17.8c0-11.4,6.9-17.8,19.1-17.8h75.9c12.2,0,19.1,6.4,19.1,17.8v476.4
		c0,11.4-6.8,17.8-19.1,17.8h-75.9C642.7,512,635.8,505.6,635.8,494.2z"/>
        <path  d="M794.3,96V32c0-11.4,6.8-17.8,19-17.8h76c12.2,0,19,6.4,19,17.8v64c0,11.4-6.8,17.8-19,17.8h-76
		C801.1,113.8,794.3,107.4,794.3,96z M794.3,494.2v-320c0-11.4,6.8-17.8,19-17.8h76c12.2,0,19,6.4,19,17.8v320
		c0,11.4-6.8,17.8-19,17.8h-76C801.1,512,794.3,505.6,794.3,494.2z"/>
        <path  d="M1211.5,401.6c0,77.4-66,110.4-140.1,110.4c-68.7,0-130.6-31-138.7-102.4c-1.3-11.4,5.4-17.5,16.2-17.5h66
		c10.1,0,13.5,5.4,18.2,14.1c5.4,11.4,18.2,18.2,38.4,18.2c28.3,0,39.1-9.4,39.1-22.9c0-48.5-175.8-4-175.8-134.7
		c0-76.1,66-110.4,136.7-110.4c62.6,0,123.9,31,132,102.4c1.3,11.4-5.4,17.5-16.2,17.5h-66c-10.1,0-13.5-5.4-18.2-14.8
		c-4.7-10.8-16.2-17.5-31.7-17.5c-24.9,0-35.7,9.4-35.7,22.9C1035.7,316.7,1211.5,270.2,1211.5,401.6z"/>
        <path  d="M1442.7,174.2V241c0,11.4-6.4,17.8-17.8,17.8h-39.1v235.4c0,11.4-6.4,17.8-17.8,17.8h-71.1
		c-11.4,0-17.8-6.4-17.8-17.8V258.8H1240c-11.4,0-17.8-6.4-17.8-17.8v-66.8c0-11.4,6.4-17.8,17.8-17.8h39.1v-96
		c0-11.4,6.4-17.8,17.8-17.8h71.1c11.4,0,17.8,6.4,17.8,17.8v96h39.1C1436.3,156.4,1442.7,162.8,1442.7,174.2z"/>
        <path  d="M1622,156.4h48.4c11.4,0,17.8,6.4,17.8,17.8V241c0,11.4-6.4,17.8-17.8,17.8H1622v235.4
		c0,11.4-6.4,17.8-17.8,17.8h-71.1c-11.4,0-17.8-6.4-17.8-17.8V258.8h-29.9c-11.4,0-17.8-6.4-17.8-17.8v-66.8
		c0-11.4,6.4-17.8,17.8-17.8h29.9c0-94.6,49.1-152.9,155-152.9c11.4,0,17.8,7.1,17.8,18.5v66.8c0,11.4-6.4,17.1-18.5,17.1
		C1640.5,106,1622,122.3,1622,156.4z"/>
        <path  d="M2023,173.7V485c0,11.1-6.2,17.3-17.3,17.3h-69.2c-11.1,0-17.3-6.2-17.3-17.3v-14.3
		c-16.3,24-45.7,41.3-89.9,41.3c-64.3,0-110.7-49.8-110.7-136.3v-202c0-11.1,6.2-17.3,17.3-17.3h69.2c11.1,0,17.3,6.2,17.3,17.3v193
		c0,34.6,20.1,49.8,46.3,49.8c31.1,0,50.5-17.3,50.5-58.1V173.7c0-11.1,6.2-17.3,17.3-17.3h69.2C2016.8,156.4,2023,162.7,2023,173.7
		z"/>
        <path  d="M2062,494.2V17.8c0-11.4,6.8-17.8,19-17.8h76c12.2,0,19,6.4,19,17.8v476.4c0,11.4-6.8,17.8-19,17.8h-76
		C2068.8,512,2062,505.6,2062,494.2z"/>
    </g>
</svg>
