<?xml version="1.0" encoding="utf-8"?>
<!-- Generator: Adobe Illustrator 24.3.0, SVG Export Plug-In . SVG Version: 6.00 Build 0)  -->
<svg version="1.1" id="レイヤー_1" xmlns="http://www.w3.org/2000/svg" xmlns:xlink="http://www.w3.org/1999/xlink" x="0px"
	 y="0px" viewBox="0 0 1200 630" enable-background="new 0 0 1200 630" xml:space="preserve">
<g id="BG">
	<g id="wrap">
		<rect fill="#D7E8F9" width="1200" height="630"/>
	</g>
	<g id="listful_x5F_logotype">
		<path fill="#0D3A63" d="M460,132.7V46.4c0-2.1,1.2-3.2,3.4-3.2h13.4c2.2,0,3.4,1.2,3.4,3.2v86.3c0,2.1-1.2,3.2-3.4,3.2h-13.4
			C461.2,135.9,460,134.7,460,132.7z"/>
		<path fill="#0D3A63" d="M487.9,60.6V48.9c0-2.1,1.2-3.2,3.4-3.2h13.5c2.2,0,3.4,1.2,3.4,3.2v11.6c0,2.1-1.2,3.2-3.4,3.2h-13.5
			C489.1,63.8,487.9,62.7,487.9,60.6z M487.9,132.7v-58c0-2.1,1.2-3.2,3.4-3.2h13.5c2.2,0,3.4,1.2,3.4,3.2v58c0,2.1-1.2,3.2-3.4,3.2
			h-13.5C489.1,135.9,487.9,134.7,487.9,132.7z"/>
		<path fill="#0D3A63" d="M538.9,136.8c-14.9,0-25.1-7.6-26.5-19.9c-0.2-1.9,0.4-3.1,1-3.7c0.6-0.7,1.8-1.5,3.8-1.5h11.7
			c3.1,0,4.1,2,4.9,3.5c0,0,0,0.1,0,0.1c0.8,1.8,3.2,2.1,5,2.1c2.3,0,5-0.4,5-2.1c0-1.7-4.3-2.5-8.4-3.3c-9-1.8-22.7-4.5-22.7-20.5
			c0-14.9,13.1-21.5,26.2-21.5c10.6,0,23.7,5.2,25.3,19.9c0.2,1.9-0.4,3.1-1,3.7c-0.6,0.7-1.8,1.5-3.8,1.5h-11.7
			c-3.1,0-4.2-2.2-5-3.7c0,0,0-0.1,0-0.1c-0.5-1.2-1.9-1.9-3.8-1.9c-2,0-4.4,0.4-4.4,2.1c0,1.7,4.1,2.6,8.5,3.4
			c9,1.8,22.6,4.4,22.6,20.4C565.7,128.6,555.4,136.8,538.9,136.8z M517.2,115.6c-0.5,0-0.8,0.1-0.9,0.2c-0.1,0.1-0.1,0.3-0.1,0.7
			c0.4,3.9,3.4,16.4,22.6,16.4c21.2,0,22.9-13.5,22.9-17.6c0-12.8-10.4-14.9-19.5-16.6c-6-1.2-11.7-2.3-11.7-7.2c0-1.4,0.6-6,8.3-6
			c3.5,0,6.2,1.6,7.4,4.2c0.7,1.5,0.9,1.5,1.5,1.5h11.7c0.5,0,0.8-0.1,0.9-0.2c0.1-0.1,0.1-0.3,0.1-0.7c-1.4-12.1-12-16.4-21.5-16.4
			c-10.3,0-22.3,4.6-22.3,17.6c0,12.8,10.4,14.9,19.6,16.7c5.9,1.2,11.6,2.3,11.6,7.1c0,1.8-0.9,6-8.9,6c-5.6,0-7.7-2.7-8.5-4.3
			c-0.8-1.4-0.9-1.4-1.5-1.4H517.2z"/>
		<path fill="#0D3A63" d="M593.4,136.8h-12.6c-2.8,0-5.1-2.3-5.1-5.1V92h-5c-2.8,0-5.1-2.3-5.1-5.1V75.2c0-2.8,2.3-5.1,5.1-5.1h5V55
			c0-2.8,2.3-5.1,5.1-5.1h12.6c2.8,0,5.1,2.3,5.1,5.1v15.1h5c2.8,0,5.1,2.3,5.1,5.1v11.7c0,2.8-2.3,5.1-5.1,5.1h-5v39.7
			C598.5,134.5,596.2,136.8,593.4,136.8z M570.7,74c-0.7,0-1.2,0.5-1.2,1.2v11.7c0,0.7,0.5,1.2,1.2,1.2h6.9c1.1,0,1.9,0.9,1.9,1.9
			v41.6c0,0.7,0.5,1.2,1.2,1.2h12.6c0.7,0,1.2-0.5,1.2-1.2V90.1c0-1.1,0.9-1.9,1.9-1.9h6.9c0.7,0,1.2-0.5,1.2-1.2V75.2
			c0-0.7-0.5-1.2-1.2-1.2h-6.9c-1.1,0-1.9-0.9-1.9-1.9V55c0-0.7-0.5-1.2-1.2-1.2h-12.6c-0.7,0-1.2,0.5-1.2,1.2v17
			c0,1.1-0.9,1.9-1.9,1.9H570.7z"/>
		<path fill="#0D3A63" d="M637,136.8h-12.6c-2.8,0-5.1-2.3-5.1-5.1V92h-3.4c-2.8,0-5.1-2.3-5.1-5.1V75.2c0-2.8,2.3-5.1,5.1-5.1h3.4
			c0.7-17.4,11.1-26.9,29.4-26.9c2.8,0,5.1,2.3,5.1,5.1v11.8c0,3.1-2,5-5.2,5c-3.7,0-5.8,1.7-6.3,5h6.5c2.8,0,5.1,2.3,5.1,5.1v11.7
			c0,2.8-2.3,5.1-5.1,5.1h-6.6v39.7C642.1,134.5,639.8,136.8,637,136.8z M615.9,74c-0.7,0-1.2,0.5-1.2,1.2v11.7
			c0,0.7,0.5,1.2,1.2,1.2h5.4c1.1,0,1.9,0.9,1.9,1.9v41.6c0,0.7,0.5,1.2,1.2,1.2H637c0.7,0,1.2-0.5,1.2-1.2V90.1
			c0-1.1,0.9-1.9,1.9-1.9h8.5c0.7,0,1.2-0.5,1.2-1.2V75.2c0-0.7-0.5-1.2-1.2-1.2h-8.6c-1.1,0-1.9-0.9-1.9-1.9
			c0-6.7,3.9-10.8,10.3-10.8c1.4,0,1.4-0.4,1.4-1.1V48.3c0-0.7-0.6-1.3-1.3-1.3c-16.7,0-25.5,8.6-25.5,25c0,1.1-0.9,1.9-1.9,1.9
			H615.9z"/>
		<path fill="#0D3A63" d="M678,136.7c-13.1,0-21.6-10.2-21.6-26.1V74.9c0-2.8,2.2-5,5-5h12.3c2.8,0,5,2.2,5,5v34.1
			c0,5.7,3.4,6.9,6.3,6.9c3,0,7-0.9,7-8.4V74.9c0-2.8,2.2-5,5-5h12.3c3,0,5,2,5,5V130c0,2.8-2.2,5-5,5H697c-2,0-3.8-1.2-4.6-3
			C688.8,135.1,683.8,136.7,678,136.7z M661.4,73.8c-0.6,0-1.1,0.5-1.1,1.1v35.7c0,13.7,6.8,22.2,17.7,22.2c8.2,0,12.3-3.5,14.3-6.5
			c0.5-0.7,1.4-1,2.2-0.8c0.8,0.2,1.4,1,1.4,1.9v2.5c0,0.6,0.5,1.1,1.1,1.1h12.3c0.6,0,1.1-0.5,1.1-1.1V74.9c0-0.9-0.3-1.1-1.1-1.1
			H697c-0.6,0-1.1,0.5-1.1,1.1v32.7c0,10.6-6.8,12.2-10.9,12.2c-6.3,0-10.1-4.1-10.1-10.8V74.9c0-0.6-0.5-1.1-1.1-1.1H661.4z"/>
		<path fill="#0D3A63" d="M719.9,132.7V46.4c0-2.1,1.2-3.2,3.4-3.2h13.5c2.2,0,3.4,1.2,3.4,3.2v86.3c0,2.1-1.2,3.2-3.4,3.2h-13.5
			C721.1,135.9,719.9,134.7,719.9,132.7z"/>
	</g>
</g>
<g>
	<path fill="#0D3A63" d="M361.1,168.9c-0.3,0.6-0.3,0.6-0.9,2.5c-1.8,6.8-4.6,11.7-9,15.8c-3.2,3.1-6.4,5-11.4,7.1
		c-0.8-1.6-1.2-2.2-2.6-3.6c3.2-1,5.3-1.9,8-3.7c5.7-3.7,9.2-8.9,11.1-16.2h-17.2c-2.4,0-3.4,0-4.8,0.2v-4c1.4,0.2,2.4,0.3,4.9,0.3
		h16.5c1.8,0,2.3,0,3.2-0.3L361.1,168.9z"/>
	<path fill="#0D3A63" d="M371.9,190.7v2.5H368c0.1-1,0.2-2.3,0.2-4.4v-17.9c0-1.8,0-2.7-0.2-3.7c1.8,0.1,2.4,0.1,4.5,0.1h17.1
		c2.2,0,3.1,0,4.4-0.2c-0.1,1-0.1,2-0.1,3.8v17.9c0,2.4,0,3.5,0.1,4.4H390v-2.5H371.9z M390,170.6h-18.1v16.7H390V170.6z"/>
	<path fill="#0D3A63" d="M400.9,189.2c2.9-0.1,7.3-1.2,10.6-2.7c4.5-2,7.9-4.7,10.7-8.7c1.6-2.4,2.7-4.3,3.8-7.3
		c1.2,1.5,1.7,1.9,3.1,3c-3,6.5-6.4,10.7-11.2,14c-3.6,2.5-8.1,4.2-13.6,5.4c-1.4,0.3-1.5,0.3-2.3,0.6L400.9,189.2z M403.6,166.9
		c4.1,2.6,6.4,4.3,9.1,6.9l-2.6,3.2c-2.8-3-5.7-5.3-9-7.2L403.6,166.9z"/>
	<path fill="#0D3A63" d="M437.7,194.5c0.2-1.5,0.2-2.4,0.2-4.6v-21.4c0-2.5,0-3.3-0.2-4.3h4.2c-0.1,1.2-0.2,2.4-0.2,4.4v6.1
		c5.1,1.8,10.2,4.2,16.2,7.6l-2.1,3.6c-1.6-1.1-2.6-1.7-4.5-2.7c-2.7-1.5-6.7-3.4-8.6-4.2c-0.6-0.3-0.6-0.3-1.2-0.6
		c0,0.5,0,0.5,0.1,1.4c0,0.3,0,1.4,0,1.8v8.5c0,1.9,0.1,3.3,0.2,4.6H437.7z"/>
	<path fill="#0D3A63" d="M479.9,187h9.1c2.4,0,3.1,0,4.5-0.3v3.9c-1.3-0.1-2.2-0.2-4.4-0.2h-21.5c-2.2,0-3.2,0-4.4,0.2v-3.9
		c1.4,0.2,2.1,0.3,4.5,0.3h8.5v-15.2h-5.8c-2.2,0-3.2,0-4.4,0.2v-3.9c1.3,0.2,2.2,0.3,4.5,0.3h15.9c2.3,0,3.2,0,4.5-0.3v3.9
		c-1.3-0.1-2.2-0.2-4.4-0.2h-6.4V187z"/>
	<path fill="#0D3A63" d="M499.5,189.2c2.9-0.1,7.3-1.2,10.6-2.7c4.5-2,7.9-4.7,10.7-8.7c1.6-2.4,2.7-4.3,3.8-7.3
		c1.2,1.5,1.7,1.9,3.1,3c-3,6.5-6.4,10.7-11.2,14c-3.6,2.5-8.1,4.2-13.6,5.4c-1.4,0.3-1.5,0.3-2.3,0.6L499.5,189.2z M502.2,166.9
		c4.1,2.6,6.4,4.3,9.1,6.9l-2.6,3.2c-2.8-3-5.7-5.3-9-7.2L502.2,166.9z"/>
	<path fill="#0D3A63" d="M536,194.5c0.2-1.5,0.2-2.4,0.2-4.6v-21.5c0-2.5,0-3.3-0.2-4.3h4.3c-0.2,1.2-0.2,2.4-0.2,4.4v6.1
		c5.1,1.8,10.2,4.2,16.2,7.6l-2.1,3.6c-1.6-1.1-2.6-1.7-4.4-2.7c-2.7-1.5-6.7-3.4-8.6-4.2c-0.6-0.3-0.6-0.3-1.2-0.6l0.1,1.4
		c0,0.3,0,1.4,0,1.8v8.5c0,1.9,0.1,3.2,0.2,4.6H536z M551.1,165.9c1.7,1.9,2.5,3.1,3.7,5.4l-2.2,1.2c-1.2-2.2-2.2-3.7-3.7-5.5
		L551.1,165.9z M555.4,163.8c1.7,1.9,2.5,3,3.7,5.3l-2.2,1.3c-1.1-2.1-2.1-3.6-3.7-5.4L555.4,163.8z"/>
	<path fill="#0D3A63" d="M579.9,187h9.1c2.4,0,3.1,0,4.5-0.3v3.9c-1.3-0.1-2.2-0.2-4.4-0.2h-21.5c-2.2,0-3.2,0-4.4,0.2v-3.9
		c1.4,0.2,2.1,0.3,4.5,0.3h8.5v-15.2h-5.8c-2.2,0-3.2,0-4.4,0.2v-3.9c1.3,0.2,2.2,0.3,4.5,0.3h15.9c2.3,0,3.2,0,4.5-0.3v3.9
		c-1.3-0.1-2.2-0.2-4.4-0.2h-6.4V187z"/>
	<path fill="#0D3A63" d="M599.5,189.2c2.9-0.1,7.3-1.2,10.6-2.7c4.5-2,7.9-4.7,10.7-8.7c1.6-2.4,2.7-4.3,3.8-7.3
		c1.2,1.5,1.7,1.9,3.1,3c-3,6.5-6.4,10.7-11.2,14c-3.6,2.5-8.1,4.2-13.6,5.4c-1.4,0.3-1.5,0.3-2.3,0.6L599.5,189.2z M602.2,166.9
		c4.1,2.6,6.4,4.3,9.1,6.9l-2.6,3.2c-2.8-3-5.7-5.3-9-7.2L602.2,166.9z"/>
	<path fill="#0D3A63" d="M634.8,173.9c3.6,1.4,6.3,2.8,9.4,4.8l-1.9,3.4c-2.8-2.1-5.9-3.8-9.5-5.1L634.8,173.9z M633.4,190.2
		c2.6,0,6.4-0.9,10.1-2.3c4.4-1.7,7.7-4.2,10.5-8c2-2.6,3.2-4.8,4.2-8c1.3,1.3,1.7,1.7,3.2,2.7c-1.8,4.3-3.6,7.2-6.3,10
		c-3.9,4.1-8.4,6.6-15.2,8.4c-0.6,0.2-2,0.5-4.1,0.9l-1.4,0.4L633.4,190.2z M637.5,165.2c3.5,1.4,6.2,2.7,9.3,4.6l-2,3.3
		c-2.9-2.1-6.3-3.9-9.3-4.9L637.5,165.2z M656.9,163.9c1.7,1.9,2.5,3.1,3.7,5.4l-2.2,1.2c-1.2-2.2-2.2-3.7-3.7-5.5L656.9,163.9z
		 M661.1,161.8c1.7,1.9,2.5,3,3.7,5.3l-2.2,1.3c-1.1-2.1-2.1-3.6-3.7-5.4L661.1,161.8z"/>
	<path fill="#0D3A63" d="M665.1,186c1.4,0.2,2.6,0.3,5.1,0.3h18.9c2.8,0,4-0.1,5.3-0.3v4.1c-1.3-0.1-2.9-0.2-5.3-0.2h-19
		c-2.4,0-3.7,0-5.1,0.2V186z M668.8,168.6c1.4,0.2,2.4,0.3,5,0.3h12.3c2.7,0,3.5,0,4.9-0.3v4.1c-1.4-0.1-2.4-0.2-4.8-0.2h-12.5
		c-2.8,0-3.3,0-4.9,0.2V168.6z"/>
	<path fill="#0D3A63" d="M714.4,172.8c-0.1,0.6-0.1,0.6-0.1,2.7c-0.1,6.1-1.2,9.6-3.6,12.7c-2.2,2.8-4.8,4.6-9.2,6.4
		c-0.8-1.6-1.2-2.2-2.4-3.4c2.9-0.9,4.6-1.7,6.4-3.2c3.7-3,5-6.3,5-13.2c0-1,0-1.3-0.1-2H714.4z M728.8,168.2
		c-0.4,0.5-0.5,0.7-0.9,1.5c-2.5,5.1-5.6,8.4-10.4,10.8c-0.9-1.3-1.3-1.7-2.7-2.8c2.5-1,3.8-1.9,5.4-3.4c1.6-1.4,2.7-3,3.6-4.8
		h-19.5c-2.3,0-3.3,0-4.6,0.2V166c1.3,0.2,2.4,0.3,4.7,0.3h19c2.2,0,2.5,0,3.3-0.3L728.8,168.2z"/>
	<path fill="#0D3A63" d="M745.2,184.2c-2.1,4.8-4.3,6.8-7.1,6.8c-3.8,0-6.6-4-6.6-9.5c0-3.9,1.4-7.5,3.9-10.3
		c3-3.2,7.1-4.9,12.1-4.9c8.4,0,13.9,5.1,13.9,12.9c0,6-3.2,10.8-8.6,13.1c-1.7,0.7-3.1,1.1-5.5,1.5c-0.5-1.7-0.9-2.3-1.8-3.5
		c2.8-0.4,4.4-0.8,6-1.5c3.9-1.7,6.3-5.4,6.3-9.8c0-3.7-1.8-6.7-4.9-8.4c-1.2-0.6-2.2-0.9-3.9-1
		C748.2,175.1,746.9,180.3,745.2,184.2z M740.3,171.5c-3.3,2.2-5.3,6-5.3,10.2c0,3.1,1.4,5.6,3.1,5.6c1.3,0,2.6-1.6,4-4.9
		c1.4-3.3,2.6-8.4,3.1-12.6C743.2,169.9,741.8,170.4,740.3,171.5z"/>
	<path fill="#0D3A63" d="M766.5,169.6c1.3,0.3,2.3,0.3,4.4,0.3c0.8,0,1.3,0,2.1,0c0.4-2.2,0.8-4.7,0.8-5.8c0-0.1,0-0.3,0-0.5l4,0.4
		c-0.3,0.8-0.3,0.8-0.7,3.4c-0.2,1.1-0.2,1.4-0.4,2.4c2.7-0.3,4.6-0.6,6.3-1.2l0.2,3.5c-0.3,0-0.3,0-1.1,0.2c-1.7,0.4-4.2,0.7-6,0.8
		c-0.4,2.4-1.4,6.4-2.3,9.7c-1.1,3.7-1.9,6.2-4.1,11.6l-3.8-1.5c2.6-4.6,5.2-12.5,6.6-19.6c-0.3,0-2.2,0-2.9,0c-0.3,0-0.5,0-1,0
		c-0.5,0-1.2,0-1.7,0c-0.1,0-0.2,0-0.4,0L766.5,169.6z M783.6,183.2c-0.9,1.2-1.2,1.5-1.5,2.1c-0.3,0.6-0.5,1.3-0.5,1.9
		c0,1.9,2,2.9,5.8,2.9c2.7,0,6-0.5,8.1-1.3l0.3,3.7c-0.6,0.1-0.8,0.1-1.7,0.3c-2.8,0.5-4.5,0.6-6.6,0.6c-3.1,0-5.3-0.4-6.9-1.4
		c-1.6-0.9-2.5-2.5-2.5-4.4c0-1.7,0.6-3.2,2.6-5.8L783.6,183.2z M794.5,177.9c-1.7-0.2-2.7-0.2-4.4-0.2c-3.4,0-5.8,0.3-9.3,1.1
		l-0.3-3.3c4.8-0.9,6.6-1.2,10.2-1.2c1,0,1.6,0,3.7,0L794.5,177.9z"/>
	<path fill="#0D3A63" d="M808.4,165.5c0,1.3,0.5,4,0.9,6c2.5-1.1,4.8-1.5,7.6-1.5c0.1,0,0.4,0,0.8,0c0.7-3.1,1-4.6,1-5.7l3.8,0.7
		c-0.2,0.4-0.4,1.1-0.6,2.2c-0.5,1.9-0.8,3-0.8,3.2c5.9,1.3,9.4,5.3,9.4,10.8c0,5.1-3,9.4-8.3,11.6c-1.7,0.7-3,1.1-5.7,1.7
		c-0.4-1.5-0.7-2.1-1.9-3.5c2.2-0.2,3.8-0.6,5.7-1.3c4.3-1.8,6.6-4.7,6.6-8.6c0-3.9-2.3-6.5-6.6-7.6c-1.5,5.1-4,10.3-6.7,13.7
		c-2.4,3.1-4.8,4.6-7.2,4.6c-3.4,0-5.8-3.1-5.8-7.6c0-4.4,1.9-8.2,5.7-10.9c-0.2-0.9-0.6-3-1.2-5.8c-0.1-0.5-0.1-0.7-0.4-1.2
		L808.4,165.5z M803.9,184c0,2.5,1.1,4.2,2.6,4.2c1.1,0,2.4-0.9,3.8-2.6c-1.5-3.2-2.4-5.8-3.1-8.9
		C804.9,178.9,803.9,181.2,803.9,184z M812.3,181.9c0.2,0.5,0.2,0.6,0.3,0.9c0.1-0.3,0.2-0.5,0.4-0.8c1.4-2.4,2.4-4.8,3.8-8.8
		c-0.4,0-0.6,0-0.8,0c-1.9,0-4,0.6-6,1.7C810.8,177.9,811.3,179.3,812.3,181.9z"/>
	<path fill="#0D3A63" d="M849.5,184.2c-2.1,4.8-4.3,6.8-7.1,6.8c-3.8,0-6.6-4-6.6-9.5c0-3.9,1.4-7.5,3.9-10.3
		c3-3.2,7.1-4.9,12.1-4.9c8.4,0,13.9,5.1,13.9,12.9c0,6-3.2,10.8-8.6,13.1c-1.7,0.7-3.1,1.1-5.5,1.5c-0.5-1.7-0.9-2.3-1.8-3.5
		c2.8-0.4,4.4-0.8,6-1.5c3.9-1.7,6.3-5.4,6.3-9.8c0-3.7-1.8-6.7-4.9-8.4c-1.2-0.6-2.2-0.9-3.9-1
		C852.5,175.1,851.2,180.3,849.5,184.2z M844.6,171.5c-3.3,2.2-5.3,6-5.3,10.2c0,3.1,1.4,5.6,3.1,5.6c1.3,0,2.6-1.6,4-4.9
		c1.4-3.3,2.6-8.4,3.1-12.6C847.5,169.9,846.1,170.4,844.6,171.5z"/>
	<path fill="#0D3A63" d="M528,210.6c-0.5,0.1-0.5,0.1-1.3,0.4c-3.1,1-4.5,1.4-7.7,2.1c0,3.8-0.1,5.9-0.1,6.5h7.4
		c2.8,0,3.5,0,4.8-0.3v3.7c-1.3-0.1-2.2-0.2-4.7-0.2h-7.7c-0.3,3.2-1.1,5.7-2.4,7.8c-1.3,2.1-3.3,4.1-5.8,5.7c-1,0.6-1.7,1-3.3,1.8
		c-0.9-1.5-1.4-2.1-2.7-3.2c2.6-1,4-1.7,5.7-3.1c2.9-2.4,4.3-5.1,4.7-9.1h-8.6c-3,0-3.5,0-4.9,0.2v-3.7c1.3,0.2,2.2,0.3,4.9,0.3h8.9
		c0.1-1.3,0.1-3.3,0.1-5.9c-3.1,0.5-5,0.6-10.3,0.9c-0.3-1.4-0.4-1.8-1.2-3.3c1.1,0,1.6,0.1,2.2,0.1c4.7,0,10.9-0.9,15.3-2.2
		c2.1-0.6,3-1,4.2-1.7L528,210.6z"/>
	<path fill="#0D3A63" d="M536.7,220.4c1.3,0.2,2.9,0.3,5.5,0.3h19.5c3.1,0,4,0,5.4-0.2v4.2c-1.6-0.1-2.7-0.2-5.4-0.2h-19.4
		c-3,0-4.1,0-5.6,0.2V220.4z"/>
	<path fill="#0D3A63" d="M576.2,237.7c0.2-1.5,0.2-2.4,0.2-4.6v-21.4c0-2.5,0-3.3-0.2-4.3h4.2c-0.1,1.2-0.2,2.4-0.2,4.4v6.1
		c5.1,1.8,10.2,4.2,16.2,7.6l-2.1,3.6c-1.6-1.1-2.6-1.7-4.5-2.7c-2.7-1.5-6.7-3.4-8.6-4.2c-0.6-0.3-0.6-0.3-1.2-0.6
		c0,0.5,0,0.5,0.1,1.4c0,0.3,0,1.4,0,1.8v8.5c0,1.9,0.1,3.3,0.2,4.6H576.2z"/>
	<path fill="#0D3A63" d="M603.4,216.7c3.6,1.4,6.3,2.8,9.4,4.8l-1.9,3.3c-2.8-2.1-5.9-3.7-9.5-5.1L603.4,216.7z M602,233
		c2.6,0,6.4-0.9,10.1-2.3c4.4-1.7,7.7-4.2,10.5-8c2-2.6,3.2-4.8,4.2-8c1.3,1.3,1.7,1.7,3.2,2.7c-1.8,4.3-3.6,7.2-6.3,10
		c-3.9,4.1-8.4,6.6-15.2,8.4c-0.6,0.2-2,0.5-4.1,0.9c-0.7,0.1-0.9,0.2-1.4,0.4L602,233z M606.2,208.1c3.5,1.4,6.2,2.7,9.3,4.6
		l-2,3.3c-2.9-2.1-6.3-3.9-9.3-4.9L606.2,208.1z"/>
	<path fill="#0D3A63" d="M634.6,220.4c1.3,0.2,2.9,0.3,5.5,0.3h19.5c3.1,0,4,0,5.4-0.2v4.2c-1.6-0.1-2.7-0.2-5.4-0.2h-19.4
		c-3,0-4.1,0-5.6,0.2V220.4z"/>
	<path fill="#0D3A63" d="M674.1,237.7c0.2-1.5,0.2-2.4,0.2-4.6v-21.4c0-2.5,0-3.3-0.2-4.3h4.2c-0.1,1.2-0.2,2.4-0.2,4.4v6.1
		c5.1,1.8,10.2,4.2,16.2,7.6l-2.1,3.6c-1.6-1.1-2.6-1.7-4.5-2.7c-2.7-1.5-6.7-3.4-8.6-4.2c-0.6-0.3-0.6-0.3-1.2-0.6
		c0,0.5,0,0.5,0.1,1.4c0,0.3,0,1.4,0,1.8v8.5c0,1.9,0.1,3.3,0.2,4.6H674.1z"/>
</g>
<image overflow="visible" width="900" height="600" xlink:href="../../../Downloads/localhost_8853_.png"  transform="matrix(1 0 0 1 150 270)">
</image>
</svg>
