<?xml version="1.0" standalone="no"?>
<!DOCTYPE svg PUBLIC "-//W3C//DTD SVG 20010904//EN"
 "http://www.w3.org/TR/2001/REC-SVG-20010904/DTD/svg10.dtd">
<svg version="1.0" xmlns="http://www.w3.org/2000/svg"
 width="700.000000pt" height="700.000000pt" viewBox="0 0 700.000000 700.000000"
 preserveAspectRatio="xMidYMid meet">
<metadata>
Created by potrace 1.11, written by Peter Selinger 2001-2013
</metadata>
<g transform="translate(0.000000,700.000000) scale(0.100000,-0.100000)"
fill="#000000" stroke="none">
<path d="M0 3500 l0 -3500 1162 2 1163 3 1 2170 c1 1194 2 2177 3 2185 1 13
138 15 1174 15 l1172 0 1 -2180 c1 -1199 2 -2183 3 -2187 0 -5 523 -8 1161 -8
l1160 0 0 3500 0 3500 -1162 0 -1163 0 0 -982 0 -983 -1175 -3 -1175 -2 0 982
0 983 -1163 3 -1162 2 0 -3500z"/>
</g>
</svg>
