<?xml version="1.0" encoding="utf-8"?>
<!-- Generator: Adobe Illustrator 24.3.0, SVG Export Plug-In . SVG Version: 6.00 Build 0)  -->
<svg version="1.1" id="レイヤー_1" xmlns="http://www.w3.org/2000/svg" xmlns:xlink="http://www.w3.org/1999/xlink" x="0px"
	 y="0px" viewBox="0 0 1200 630" enable-background="new 0 0 1200 630" xml:space="preserve">
<g id="BG">
	<g id="wrap">
		<rect fill="#D7E8F9" width="1200" height="630"/>
	</g>
	<rect fill="#CADDEF" width="36" height="630"/>
	<rect x="36" fill="#4D91CE" width="78" height="630"/>
	<rect x="114" fill="#D4DFE8" width="30" height="630"/>
	<rect x="144" fill="#8EC0ED" width="30" height="630"/>
	<g id="listful_x5F_logotype">
		<path fill="#E8F0F7" d="M389.7,269.8V24.2c0-5.9,3.6-9.2,9.8-9.2h39.1c6.3,0,9.8,3.3,9.8,9.2v245.6c0,5.9-3.5,9.2-9.8,9.2h-39.1
			C393.3,278.9,389.7,275.6,389.7,269.8z"/>
		<path fill="#E8F0F7" d="M471.2,64.6V31.4c0-5.9,3.5-9.2,9.8-9.2h39.2c6.3,0,9.8,3.3,9.8,9.2v33.1c0,5.9-3.5,9.2-9.8,9.2H481
			C474.7,73.8,471.2,70.5,471.2,64.6z M471.2,269.8V104.6c0-5.9,3.5-9.2,9.8-9.2h39.2c6.3,0,9.8,3.3,9.8,9.2v165.2
			c0,5.9-3.5,9.2-9.8,9.2H481C474.7,278.9,471.2,275.6,471.2,269.8z"/>
		<path fill="#E8F0F7" d="M686.5,222c0,40-34.1,57-72.3,57c-35.5,0-67.4-16-71.6-52.9c-0.7-5.9,2.8-9,8.4-9h34c5.2,0,7,2.8,9.4,7.3
			c2.8,5.9,9.4,9.4,19.8,9.4c14.6,0,20.2-4.9,20.2-11.8c0-25-90.8-2.1-90.8-69.6c0-39.3,34.1-57,70.6-57c32.3,0,64,16,68.2,52.9
			c0.7,5.9-2.8,9-8.4,9h-34.1c-5.2,0-7-2.8-9.4-7.6c-2.4-5.6-8.4-9-16.4-9c-12.9,0-18.4,4.9-18.4,11.8
			C595.7,178.1,686.5,154.1,686.5,222z"/>
		<path fill="#E8F0F7" d="M805.8,105.1v34.2c0,5.1-4.1,9.2-9.2,9.2h-20.2v121.2c0,5.1-4.1,9.2-9.2,9.2h-36.8c-5.1,0-9.2-4.1-9.2-9.2
			V148.5H701c-5.1,0-9.2-4.1-9.2-9.2v-34.2c0-5.1,4.1-9.2,9.2-9.2h20.2V46.3c0-5.1,4.1-9.2,9.2-9.2h36.8c5.1,0,9.2,4.1,9.2,9.2v49.6
			h20.2C801.7,95.9,805.8,100,805.8,105.1z"/>
		<path fill="#E8F0F7" d="M897.9,95.9h25c5.1,0,9.2,4.1,9.2,9.2v34.2c0,5.1-4.1,9.2-9.2,9.2H898v121.2c0,5.1-4.1,9.2-9.2,9.2H852
			c-5.1,0-9.2-4.1-9.2-9.2V148.5h-15.6c-5.1,0-9.2-4.1-9.2-9.2v-34.2c0-5.1,4.1-9.2,9.2-9.2h15.5c0-48.6,25.4-78.5,80-78.5
			c5.1,0,9.3,4.2,9.3,9.3v34.5c0,5.9-3.3,8.8-9.6,8.8C907.5,70.1,897.9,78.4,897.9,95.9z"/>
		<path fill="#E8F0F7" d="M1104.8,104.3v160.5c0,4.9-4,8.9-8.9,8.9h-35.8c-4.9,0-8.9-4-8.9-8.9v-7.4c-8.4,12.4-23.6,21.3-46.4,21.3
			c-33.2,0-57.2-25.7-57.2-70.3V104.3c0-4.9,4-8.9,8.9-8.9h35.8c4.9,0,8.9,4,8.9,8.9v99.5c0,17.8,10.4,25.7,23.9,25.7
			c16.1,0,26.1-8.9,26.1-30v-95.2c0-4.9,4-8.9,8.9-8.9h35.8C1101.6,95.4,1104.8,98.7,1104.8,104.3z"/>
		<path fill="#E8F0F7" d="M1124.9,269.8V24.2c0-5.9,3.5-9.2,9.8-9.2h39.2c6.3,0,9.8,3.3,9.8,9.2v245.6c0,5.9-3.5,9.2-9.8,9.2h-39.2
			C1128.4,278.9,1124.9,275.6,1124.9,269.8z"/>
	</g>
</g>
<g id="text">
	<g enable-background="new    ">
		<path fill="#484A4C" d="M259.2,469c-0.2,0.9-0.2,1.5-0.2,2.8v10.8c0,3.5-1.7,5.2-5.2,5.2c-1.8,0-3.2-0.5-4.2-1.5
			c-0.5-0.5-0.8-1-1.2-2l2.3-0.9c0.3,0.7,0.5,1.1,0.8,1.5c0.6,0.6,1.4,0.9,2.4,0.9c1,0,1.8-0.3,2.3-0.9c0.4-0.5,0.6-1.3,0.6-2.4
			v-10.8c0-1.2,0-1.9-0.2-2.8H259.2z"/>
		<path fill="#484A4C" d="M271.6,485.9c-0.9,0.8-1.3,1.1-2.1,1.4c-0.8,0.3-1.7,0.5-2.6,0.5c-2.7,0-4.3-1.4-4.3-3.7
			c0-1.8,1.2-3.3,3.2-4c1.4-0.5,2.8-0.6,5.9-0.7v-1.2c0-1.6-0.9-2.4-3-2.4c-1.3,0-2.3,0.3-2.9,1c-0.3,0.3-0.5,0.6-0.7,1.3l-2.2-0.4
			c0.4-1.2,0.8-1.8,1.5-2.3c1.1-0.9,2.5-1.3,4.4-1.3c1.8,0,3.1,0.4,4,1.2c0.7,0.7,1,1.6,1,2.9v6.7c0,1.2,0,1.8,0.2,2.8h-2.3V485.9z
			 M271.6,481c-2.7,0.1-4.1,0.2-5.1,0.7c-1.2,0.5-1.8,1.2-1.8,2.4c0,1.2,0.9,2,2.4,2c1.3,0,2.8-0.6,3.7-1.6c0.6-0.6,0.8-1.2,0.8-2.1
			V481z"/>
		<path fill="#484A4C" d="M278.4,474.3c0.1,0.6,0.3,1.4,0.7,2.3l2.6,7c0.1,0.3,0.4,1.1,0.6,1.6c0.2-0.6,0.3-1.1,0.5-1.6l2.6-7
			c0.4-1.1,0.6-1.7,0.7-2.3h2.7c-0.3,0.6-0.5,0.9-1.2,2.6l-3.5,8.4c-0.5,1.3-0.6,1.5-0.7,2.2h-2.4c-0.1-0.6-0.3-1-0.8-2.2l-3.4-8.4
			c-0.4-0.9-0.6-1.5-1.2-2.6H278.4z"/>
		<path fill="#484A4C" d="M299.4,485.9c-0.9,0.8-1.3,1.1-2.1,1.4c-0.8,0.3-1.7,0.5-2.6,0.5c-2.7,0-4.3-1.4-4.3-3.7
			c0-1.8,1.2-3.3,3.2-4c1.4-0.5,2.8-0.6,5.9-0.7v-1.2c0-1.6-0.9-2.4-3-2.4c-1.3,0-2.3,0.3-2.9,1c-0.3,0.3-0.5,0.6-0.7,1.3l-2.2-0.4
			c0.4-1.2,0.8-1.8,1.5-2.3c1.1-0.9,2.5-1.3,4.4-1.3c1.8,0,3.1,0.4,4,1.2c0.7,0.7,1,1.6,1,2.9v6.7c0,1.2,0,1.8,0.2,2.8h-2.3V485.9z
			 M299.4,481c-2.7,0.1-4.1,0.2-5.1,0.7c-1.2,0.5-1.8,1.2-1.8,2.4c0,1.2,0.9,2,2.4,2c1.3,0,2.8-0.6,3.7-1.6c0.6-0.6,0.8-1.2,0.8-2.1
			V481z"/>
		<path fill="#484A4C" d="M307.1,482c0.1,1.1,0.3,1.7,0.7,2.3c0.8,1,2.2,1.6,3.9,1.6c2.7,0,4.4-1.3,4.4-3.4c0-1.1-0.5-2-1.3-2.5
			c-0.8-0.4-1-0.5-4-1.2c-1.6-0.4-2.5-0.7-3.4-1.2c-1.4-0.9-2.1-2.1-2.1-3.8c0-3.1,2.5-5.1,6.4-5.1c2.5,0,4.4,0.8,5.5,2.3
			c0.6,0.7,0.8,1.4,1.1,2.6l-2.4,0.3c-0.2-0.9-0.4-1.4-0.8-1.9c-0.7-0.9-1.9-1.3-3.4-1.3c-2.4,0-4,1.2-4,3.1c0,1.2,0.6,2,1.9,2.6
			c0.6,0.2,0.7,0.3,3.4,0.9c1.8,0.4,3,0.9,3.9,1.5c1.2,0.9,1.7,2.1,1.7,3.6c0,3.5-2.4,5.5-6.7,5.5c-2.7,0-4.8-0.8-5.9-2.3
			c-0.7-0.9-1-1.7-1.2-3.4L307.1,482z"/>
		<path fill="#484A4C" d="M331.1,478.5c-0.6-1.8-1.8-2.7-3.5-2.7c-2.6,0-4.2,2-4.2,5.1c0,3.1,1.7,5.1,4.3,5.1c1.3,0,2.4-0.5,3-1.5
			c0.2-0.3,0.3-0.6,0.5-1.2l2.1,0.5c-0.3,0.9-0.6,1.4-1,1.9c-1.1,1.4-2.7,2.1-4.8,2.1c-3.9,0-6.4-2.7-6.4-6.9c0-4.2,2.5-7,6.3-7
			c2.1,0,3.8,0.8,4.8,2.3c0.4,0.5,0.6,0.9,0.8,1.6L331.1,478.5z"/>
		<path fill="#484A4C" d="M344.5,476.5c-0.9-0.3-1.3-0.4-2-0.4c-1.2,0-2.2,0.5-2.9,1.4c-0.6,0.7-0.8,1.3-0.9,2.4v4.8
			c0,1.2,0,1.8,0.2,2.8h-2.5c0.1-1.2,0.2-1.8,0.2-2.8v-7.5c0-1.3,0-1.9-0.2-2.8h2.4v1.2c0,0,0,0.1,0,0.2c0,0,0,0.1,0,0.2
			c0,0.2,0,0.2,0,0.4c0.4-0.6,0.7-1,1.1-1.3c0.8-0.6,1.9-1,3.2-1c0.7,0,1.2,0,2.2,0.2L344.5,476.5z"/>
		<path fill="#484A4C" d="M350.3,469v2.4h-2.7V469H350.3z M350.2,474.3c-0.1,0.9-0.2,1.6-0.2,2.9v7.5c0,1.2,0,1.8,0.2,2.8h-2.5
			c0.1-1.1,0.2-1.7,0.2-2.8v-7.5c0-1.2,0-2-0.2-2.8H350.2z"/>
		<path fill="#484A4C" d="M354,492.4c0.1-1,0.2-1.8,0.2-2.8v-12.4c0-1.2,0-2-0.2-2.9h2.3v1.2c0,0.3,0,0.4,0,0.9
			c1.2-1.6,2.7-2.4,4.9-2.4c3.8,0,6.1,2.6,6.1,6.8c0,4.2-2.4,6.8-6.1,6.8c-2.1,0-3.7-0.8-4.9-2.3c0,0.6,0.1,1,0.1,1.7v2.5
			c0,1.2,0,2,0.2,2.9H354z M365,480.9c0-3.1-1.5-4.9-4.1-4.9c-2.7,0-4.6,2-4.6,5c0,1.5,0.5,2.9,1.3,3.7c0.8,0.8,2,1.3,3.2,1.3
			C363.4,485.9,365,484,365,480.9z"/>
		<path fill="#484A4C" d="M374.3,470.7c-0.1,0.8-0.2,1.7-0.2,2.7v0.9h1.1c1.1,0,1.7,0,2.4-0.1v2.1c-0.8-0.1-1.3-0.1-2.4-0.1h-1.1
			v8.1c0,0.7,0.1,1,0.3,1.3c0.2,0.2,0.6,0.4,1.2,0.4c0.6,0,1.1-0.1,1.9-0.6l0.5,1.9c-1,0.4-1.8,0.6-2.8,0.6c-1.2,0-2-0.3-2.5-0.7
			c-0.5-0.5-0.7-1.2-0.7-2.4v-8.4h-1c-0.8,0-1.4,0-2.1,0.1v-2.1c0.7,0.1,1.2,0.1,2.2,0.1h0.9v-0.9c0-1-0.1-1.9-0.2-2.7H374.3z"/>
	</g>
	<g enable-background="new    ">
		<path fill="#515456" d="M256.2,507.9c-0.3,2-0.4,3.7-0.4,6.6v29.1c0,2.9,0.1,4.7,0.4,6.6h-6.9c0.3-2.1,0.4-3.7,0.4-6.6v-29.1
			c0-3-0.1-4.5-0.4-6.6H256.2z"/>
		<path fill="#515456" d="M264.2,550.1c0.3-2.3,0.4-3.8,0.4-6.6v-17c0-2.8-0.1-4.5-0.4-6.6h6.2v2.7c0,0.4-0.1,1.1-0.1,2.3
			c2.9-3.8,6.3-5.5,11-5.5c3.9,0,7.1,1.4,8.9,4c1.2,1.7,1.7,3.8,1.7,7v13.1c0,2.9,0.1,4.8,0.4,6.6h-6.6c0.3-2.3,0.4-4,0.4-6.6v-12.3
			c0-4.8-1.8-6.9-5.7-6.9c-2.6,0-4.8,1-7,3.3c-1.5,1.6-2.2,2.9-3,5.1v10.7c0,2.5,0.1,4.4,0.4,6.6H264.2z"/>
		<path fill="#515456" d="M309.7,511.6c-0.3,1.8-0.4,4-0.4,6.4v1.8h2.4c2.5,0,3.7-0.1,5.5-0.3v5.5c-1.7-0.3-3-0.3-5.4-0.3h-2.5v17.4
			c0,2.7,0.8,3.6,3.3,3.6c1.5,0,2.6-0.3,4.2-1.2l1.1,5.1c-2.3,0.9-4,1.2-6.5,1.2c-2.8,0-4.8-0.6-6-1.7c-1.4-1.2-1.9-2.9-1.9-5.8
			v-18.6h-2.1c-1.9,0-3.1,0.1-4.8,0.3v-5.5c1.5,0.3,2.6,0.3,4.9,0.3h2.1V518c0-2.2-0.2-4.5-0.4-6.4H309.7z"/>
		<path fill="#515456" d="M329.5,507.9c-0.3,2.1-0.4,3.7-0.4,6.7v28.9c0,2.8,0.1,4.3,0.4,6.6h-6.6c0.3-2.2,0.4-3.8,0.4-6.6v-28.9
			c0-3-0.1-4.7-0.4-6.6H329.5z"/>
		<path fill="#515456" d="M352.1,539.5c-3.9,5.5-7.2,8.7-13.2,12.7c-1.1-1.7-2.1-2.9-3.5-4c5.7-3.1,9.5-6.5,12.6-11.2L352.1,539.5z
			 M336.9,530.2c1.6,0.2,2.5,0.3,4.9,0.3c3.2,0,6.6-0.1,11.5-0.2c1.1-1,1.1-1,1.6-1.5c-5.7-4.8-6.7-5.6-13-9.8l3.6-3.1
			c2.4,1.7,3,2.1,4.2,2.9c2.5-2.7,3.9-4.4,5.7-7c-9.2,0.6-9.2,0.6-15.5,0.8c-0.5-1.9-0.8-2.6-1.7-4.5c1.2,0.1,2.3,0.1,3.2,0.1
			c4.3,0,13.4-0.5,18.4-1c5.6-0.5,10.9-1.4,13.9-2.3c0.3-0.1,1.1-0.4,2.4-0.8l3.2,4.5c-0.9,0.2-0.9,0.2-3.7,0.7
			c-3.2,0.6-9.8,1.6-14,2.1c-2.8,3.9-5.1,6.8-8.4,10.1c2.3,1.7,2.5,2,5.1,4.2c4.7-4.8,4.8-4.9,6.4-6.7c2.3-2.6,2.9-3.3,4-5.2
			l4.7,2.5c-0.5,0.4-1.8,1.8-3.5,3.8c-2.1,2.4-7.2,7.6-10.1,10.2c5.1-0.1,9-0.3,14.8-0.8c-1.1-1.4-1.8-2.2-3.7-4.3l3.8-2.3
			c5,5.5,6,6.8,10.2,12.7l-4.2,2.8c-1.6-2.6-2.2-3.5-3.1-4.8c-5.2,0.5-10.7,0.9-15.6,1.1v14c0,2.6,0.1,3.9,0.3,5.3h-5.6
			c0.3-1.5,0.3-2.6,0.3-5.3v-13.8c-4.1,0.2-12.4,0.5-14.9,0.6c-3.4,0.1-3.4,0.1-4.6,0.3L336.9,530.2z M370.9,536.6
			c4.3,5.4,7.8,8.5,13,11.4c-1.2,1.2-2.2,2.4-3.5,4.2c-6-4.2-9.1-7.3-13.6-13.3L370.9,536.6z"/>
		<path fill="#515456" d="M428.9,509.3c-0.6,1-0.9,1.5-1.8,3.7c-3.3,7.9-5.4,12-7.8,15.5c4.6,3.8,7.6,6.6,12.2,11.6l-4.3,4.6
			c-2.8-3.7-6-7-11.2-11.6c-2.3,3.2-5.3,6.4-8.8,9.5c-3.8,3.3-7.2,5.7-12.7,8.8c-1.2-2.2-1.9-3-3.9-4.7c8.8-4.3,15.3-9.6,21.1-17.2
			c-4.4-3.6-9.7-7.2-14.4-9.7l3.9-4c3.9,2.3,6.3,3.9,8.9,5.7l4.8,3.4c2.3-3.7,4.2-7.6,6-12.1c1.3-3.1,1.6-4,1.9-5.7L428.9,509.3z"/>
		<path fill="#515456" d="M445.7,510c3.3,5.7,4.9,9.3,7.2,17l-5.8,2.2c-1.5-6.1-4.1-12.6-6.9-17.2L445.7,510z M479.5,511.3
			c-0.5,1.2-0.5,1.5-1.4,5.2c-2.2,9.8-6.5,18.5-12.1,24.8c-4.2,4.6-8.7,8-15.1,11.2c-1.5-2.4-2.2-3.2-4.1-4.8
			c6.2-2.7,10.5-5.7,14.7-10.1c5.3-5.7,9.1-13.6,11.1-23.3c0.4-2.1,0.6-3,0.6-4.6L479.5,511.3z"/>
		<path fill="#515456" d="M494.2,519.3c2.3,3.9,3.3,6.5,5.3,12.5l-5.1,1.7c-1.4-5.1-2.6-8.4-5-12.6L494.2,519.3z M525,519.4
			c-0.3,0.8-0.4,1-0.7,2.6c-1.6,7.3-4.1,13.3-7.7,18c-3.8,5.1-8.5,8.7-15.9,12.5c-1.1-1.9-1.7-2.6-3.7-4.4c3.7-1.5,5.9-2.6,9-4.9
			c6.3-4.6,10-10.2,12.4-18.8c0.8-2.6,1.1-4.5,1.1-6.2L525,519.4z M505.5,517.1c2.9,5.2,3.8,7.6,5.2,12.1l-5,1.6
			c-1-4-2.6-8.1-4.9-12.3L505.5,517.1z"/>
		<path fill="#515456" d="M539,551.9c0.3-2.3,0.3-3.6,0.3-6.9v-32.2c0-3.7-0.1-4.9-0.3-6.4h6.4c-0.3,1.7-0.3,3.6-0.3,6.6v9.1
			c7.7,2.7,15.3,6.3,24.3,11.4l-3.2,5.3c-2.4-1.6-3.8-2.5-6.6-4.1c-4.1-2.2-10-5.1-13-6.4c-0.9-0.4-0.9-0.4-1.7-0.9l0.1,2.1
			c0.1,0.5,0.1,2.2,0.1,2.7v12.8c0,2.8,0.1,4.9,0.3,6.9H539z M561.7,509c2.5,2.9,3.7,4.6,5.6,8.1l-3.3,1.8c-1.8-3.3-3.3-5.6-5.6-8.3
			L561.7,509z M568,505.9c2.6,2.9,3.7,4.5,5.6,7.9l-3.3,1.9c-1.7-3.1-3.2-5.4-5.5-8.1L568,505.9z"/>
		<path fill="#515456" d="M599.9,536.5c-3.1,7.1-6.4,10.3-10.6,10.3c-5.7,0-9.9-6-9.9-14.2c0-5.8,2.1-11.2,5.8-15.4
			c4.4-4.9,10.6-7.4,18.1-7.4c12.6,0,20.8,7.7,20.8,19.4c0,9-4.8,16.3-12.9,19.6c-2.5,1-4.6,1.6-8.3,2.3c-0.8-2.5-1.3-3.4-2.8-5.3
			c4.2-0.6,6.6-1.2,9-2.2c5.8-2.5,9.4-8.2,9.4-14.7c0-5.6-2.6-10.1-7.4-12.6c-1.8-1-3.3-1.3-5.8-1.5
			C604.4,522.8,602.5,530.6,599.9,536.5z M592.5,517.4c-4.9,3.3-7.9,9.1-7.9,15.2c0,4.7,2.1,8.4,4.6,8.4c1.9,0,3.9-2.4,6-7.3
			c2.1-5,3.9-12.5,4.6-19C596.9,515.1,594.8,515.8,592.5,517.4z"/>
		<path fill="#515456" d="M651.5,530.4c1.9,0,3.1-0.1,4.5-0.2c-0.2,1-0.2,1.4-0.3,2.8c-0.4,7.5-1.5,13-3.1,16.4
			c-1.2,2.6-3.3,3.5-8.1,3.5c-2.4,0-5.2-0.2-8.6-0.5c-0.2-2.2-0.5-3.1-1.1-5.3c4,0.8,7,1.1,9.9,1.1c2.1,0,3-0.4,3.6-1.5
			c1.1-2.3,1.8-6,2.3-11.9h-15c-1.5,0-2.7,0.1-4,0.2c1.6-6.5,2.4-11.6,2.6-16.4c1.3,0.2,2.5,0.2,4.4,0.2h11.8v-7.4h-12.9
			c-1.9,0-3.8,0.1-5.5,0.3v-5.1c1.5,0.2,3.5,0.3,5.6,0.3h13c1.9,0,3.5-0.1,5-0.2c-0.1,1.2-0.2,2.5-0.2,4.3v8.2c0,1.8,0.1,3,0.2,4.1
			c-1.5-0.1-3-0.2-4.7-0.2h-12c-0.4,3-0.8,5-1.4,7.3H651.5z M673.1,505.5c-0.3,1.9-0.4,3.2-0.4,5.7v35.9c0,2.9,0.1,4.5,0.4,6.6h-5.9
			c0.3-2.3,0.4-3.8,0.4-6.6v-35.9c0-2.6-0.1-3.7-0.4-5.7H673.1z"/>
		<path fill="#515456" d="M704.7,515c1.7,0,2.9-0.1,3.6-0.2v4.2c-0.9-0.1-1.8-0.2-3.6-0.2h-4.4c1.4,1.6,3.2,3,5.6,4.2
			c-1.2,1.3-1.3,1.4-2.7,3.7c-2.9-2.3-3.7-3.1-5.4-5.7c0.1,1.1,0.2,1.9,0.2,2.4v2.4c0,0.7,0.1,1.5,0.2,2.1h-4.8
			c0.1-0.6,0.2-1.3,0.2-1.9v-2.4c0-0.6,0.1-1.5,0.1-2.5c-3.3,4.5-4.8,5.9-9.3,9.1c-1-1.6-1.6-2.4-3-3.7c4.7-2.6,7.1-4.6,9.4-7.7
			h-3.9c-1.9,0-3.2,0.1-4.4,0.3v-4.4c1.2,0.2,2.4,0.3,4.4,0.3h6.7v-6.7c0-1.5-0.1-2.5-0.3-3.6h4.9c-0.2,1-0.2,2-0.2,3.6v6.8H704.7z
			 M702.5,550.7c-2.2-1.6-3-2.2-5.4-3.5c-3.6,3.2-6.6,4.8-13,6.8c-0.7-1.6-1.3-2.8-2.4-4.2c4.8-1.1,8.2-2.5,11.2-4.7
			c-2.5-1.1-4-1.8-8.1-3.2c1.8-2.4,2.3-3.2,3.6-5.6h-2.3c-1.9,0-2.9,0.1-4,0.3V532c1.1,0.2,2.1,0.3,4,0.3h4.4c0.6-1.3,0.9-2,1.5-4
			l4.7,1c-0.6,1.6-0.8,2.1-1.3,3h9c1.9,0,2.9-0.1,3.9-0.3v4.6c-1.1-0.2-2.2-0.3-4.2-0.3h-0.4c-1.1,3.5-1.8,5-3.7,7.5
			c2.3,1.1,2.8,1.4,4.9,2.7L702.5,550.7z M687.6,505.5c2,2.8,2.8,4.3,3.9,7.1l-3.9,1.6c-1.1-3-2.1-4.7-3.8-7.1L687.6,505.5z
			 M693.4,536.4c-0.7,1.2-1.1,1.8-2.2,3.6c2.5,0.9,3.5,1.3,5.1,2.1c1.5-1.9,2.3-3.4,2.9-5.7H693.4z M707.7,507
			c-1.9,3.9-2.6,5-4.3,7.5l-3.9-1.8c1.9-2.4,3.1-4.6,4.1-7.5L707.7,507z M731.5,518.9c-1.1-0.2-2.1-0.2-4.2-0.2
			c-0.3,5.6-0.7,8-1.7,11.8c-1,3.6-2.3,6.5-4,9.5c3.2,4.2,6.3,6.8,11,9.2c-1.1,1.4-1.7,2.4-2.8,4.8c-4.4-2.6-7.8-5.6-11.1-9.8
			c-3.3,4-7.3,7.2-12.5,10c-0.9-1.8-1.6-2.8-3-4.3c5.8-2.8,9.6-5.7,12.7-9.8c-2.5-4.4-3.9-8.3-5-13.9c-1.1,1.8-1.7,2.8-3,4.5
			c-1.1-1.4-2.1-2.3-3.4-3.2c3.6-4.3,6.2-9.8,7.8-16.6c0.6-2.4,1-4.8,1.1-6.4l5.1,1c-0.2,0.7-0.2,0.7-0.7,2.6
			c-0.7,2.9-1.1,4.4-1.7,6.2h10.2c2.5,0,3.7-0.1,5.1-0.3V518.9z M714.7,518.7c-0.3,0.7-0.3,0.9-0.6,1.6c0.9,6.2,2.4,10.7,4.8,15.3
			c2.5-4.8,3.6-9.6,3.9-16.9H714.7z"/>
	</g>
</g>
</svg>
