<?xml version="1.0" encoding="utf-8"?>
<!-- Generator: Adobe Illustrator 24.3.0, SVG Export Plug-In . SVG Version: 6.00 Build 0)  -->
<svg version="1.1" id="レイヤー_1" xmlns="http://www.w3.org/2000/svg" xmlns:xlink="http://www.w3.org/1999/xlink" x="0px"
	 y="0px" viewBox="0 0 1200 630" enable-background="new 0 0 1200 630" xml:space="preserve">
<g id="BG">
	<g id="wrap">
		<rect fill="#D7E8F9" width="1200" height="630"/>
	</g>
	<rect fill="#CADDEF" width="36" height="630"/>
	<rect x="36" fill="#4D91CE" width="78" height="630"/>
	<rect x="114" fill="#D4DFE8" width="30" height="630"/>
	<rect x="144" fill="#8EC0ED" width="30" height="630"/>
	<g id="listful_x5F_logotype">
		<path fill="#E8F0F7" d="M389.7,269.8V24.2c0-5.9,3.6-9.2,9.8-9.2h39.1c6.3,0,9.8,3.3,9.8,9.2v245.6c0,5.9-3.5,9.2-9.8,9.2h-39.1
			C393.3,278.9,389.7,275.6,389.7,269.8z"/>
		<path fill="#E8F0F7" d="M471.2,64.6V31.4c0-5.9,3.5-9.2,9.8-9.2h39.2c6.3,0,9.8,3.3,9.8,9.2v33.1c0,5.9-3.5,9.2-9.8,9.2H481
			C474.7,73.8,471.2,70.5,471.2,64.6z M471.2,269.8V104.6c0-5.9,3.5-9.2,9.8-9.2h39.2c6.3,0,9.8,3.3,9.8,9.2v165.2
			c0,5.9-3.5,9.2-9.8,9.2H481C474.7,278.9,471.2,275.6,471.2,269.8z"/>
		<path fill="#E8F0F7" d="M686.5,222c0,40-34.1,57-72.3,57c-35.5,0-67.4-16-71.6-52.9c-0.7-5.9,2.8-9,8.4-9h34c5.2,0,7,2.8,9.4,7.3
			c2.8,5.9,9.4,9.4,19.8,9.4c14.6,0,20.2-4.9,20.2-11.8c0-25-90.8-2.1-90.8-69.6c0-39.3,34.1-57,70.6-57c32.3,0,64,16,68.2,52.9
			c0.7,5.9-2.8,9-8.4,9h-34.1c-5.2,0-7-2.8-9.4-7.6c-2.4-5.6-8.4-9-16.4-9c-12.9,0-18.4,4.9-18.4,11.8
			C595.7,178.1,686.5,154.1,686.5,222z"/>
		<path fill="#E8F0F7" d="M805.8,105.1v34.2c0,5.1-4.1,9.2-9.2,9.2h-20.2v121.2c0,5.1-4.1,9.2-9.2,9.2h-36.8c-5.1,0-9.2-4.1-9.2-9.2
			V148.5H701c-5.1,0-9.2-4.1-9.2-9.2v-34.2c0-5.1,4.1-9.2,9.2-9.2h20.2V46.3c0-5.1,4.1-9.2,9.2-9.2h36.8c5.1,0,9.2,4.1,9.2,9.2v49.6
			h20.2C801.7,95.9,805.8,100,805.8,105.1z"/>
		<path fill="#E8F0F7" d="M897.9,95.9h25c5.1,0,9.2,4.1,9.2,9.2v34.2c0,5.1-4.1,9.2-9.2,9.2H898v121.2c0,5.1-4.1,9.2-9.2,9.2H852
			c-5.1,0-9.2-4.1-9.2-9.2V148.5h-15.6c-5.1,0-9.2-4.1-9.2-9.2v-34.2c0-5.1,4.1-9.2,9.2-9.2h15.5c0-48.6,25.4-78.5,80-78.5
			c5.1,0,9.3,4.2,9.3,9.3v34.5c0,5.9-3.3,8.8-9.6,8.8C907.5,70.1,897.9,78.4,897.9,95.9z"/>
		<path fill="#E8F0F7" d="M1104.8,104.3v160.5c0,4.9-4,8.9-8.9,8.9h-35.8c-4.9,0-8.9-4-8.9-8.9v-7.4c-8.4,12.4-23.6,21.3-46.4,21.3
			c-33.2,0-57.2-25.7-57.2-70.3V104.3c0-4.9,4-8.9,8.9-8.9h35.8c4.9,0,8.9,4,8.9,8.9v99.5c0,17.8,10.4,25.7,23.9,25.7
			c16.1,0,26.1-8.9,26.1-30v-95.2c0-4.9,4-8.9,8.9-8.9h35.8C1101.6,95.4,1104.8,98.7,1104.8,104.3z"/>
		<path fill="#E8F0F7" d="M1124.9,269.8V24.2c0-5.9,3.5-9.2,9.8-9.2h39.2c6.3,0,9.8,3.3,9.8,9.2v245.6c0,5.9-3.5,9.2-9.8,9.2h-39.2
			C1128.4,278.9,1124.9,275.6,1124.9,269.8z"/>
	</g>
</g>
<g id="text">
	<g enable-background="new    ">
		<path fill="#484A4C" d="M259.2,469c-0.2,0.9-0.2,1.5-0.2,2.8v10.8c0,3.5-1.7,5.2-5.2,5.2c-1.8,0-3.2-0.5-4.2-1.5
			c-0.5-0.5-0.8-1-1.2-2l2.3-0.9c0.3,0.7,0.5,1.1,0.8,1.5c0.6,0.6,1.4,0.9,2.4,0.9c1,0,1.8-0.3,2.3-0.9c0.4-0.5,0.6-1.3,0.6-2.4
			v-10.8c0-1.2,0-1.9-0.2-2.8H259.2z"/>
		<path fill="#484A4C" d="M271.6,485.9c-0.9,0.8-1.3,1.1-2.1,1.4c-0.8,0.3-1.7,0.5-2.6,0.5c-2.7,0-4.3-1.4-4.3-3.7
			c0-1.8,1.2-3.3,3.2-4c1.4-0.5,2.8-0.6,5.9-0.7v-1.2c0-1.6-0.9-2.4-3-2.4c-1.3,0-2.3,0.3-2.9,1c-0.3,0.3-0.5,0.6-0.7,1.3l-2.2-0.4
			c0.4-1.2,0.8-1.8,1.5-2.3c1.1-0.9,2.5-1.3,4.4-1.3c1.8,0,3.1,0.4,4,1.2c0.7,0.7,1,1.6,1,2.9v6.7c0,1.2,0,1.8,0.2,2.8h-2.3V485.9z
			 M271.6,481c-2.7,0.1-4.1,0.2-5.1,0.7c-1.2,0.5-1.8,1.2-1.8,2.4c0,1.2,0.9,2,2.4,2c1.3,0,2.8-0.6,3.7-1.6c0.6-0.6,0.8-1.2,0.8-2.1
			V481z"/>
		<path fill="#484A4C" d="M278.4,474.3c0.1,0.6,0.3,1.4,0.7,2.3l2.6,7c0.1,0.3,0.4,1.1,0.6,1.6c0.2-0.6,0.3-1.1,0.5-1.6l2.6-7
			c0.4-1.1,0.6-1.7,0.7-2.3h2.7c-0.3,0.6-0.5,0.9-1.2,2.6l-3.5,8.4c-0.5,1.3-0.6,1.5-0.7,2.2h-2.4c-0.1-0.6-0.3-1-0.8-2.2l-3.4-8.4
			c-0.4-0.9-0.6-1.5-1.2-2.6H278.4z"/>
		<path fill="#484A4C" d="M299.4,485.9c-0.9,0.8-1.3,1.1-2.1,1.4c-0.8,0.3-1.7,0.5-2.6,0.5c-2.7,0-4.3-1.4-4.3-3.7
			c0-1.8,1.2-3.3,3.2-4c1.4-0.5,2.8-0.6,5.9-0.7v-1.2c0-1.6-0.9-2.4-3-2.4c-1.3,0-2.3,0.3-2.9,1c-0.3,0.3-0.5,0.6-0.7,1.3l-2.2-0.4
			c0.4-1.2,0.8-1.8,1.5-2.3c1.1-0.9,2.5-1.3,4.4-1.3c1.8,0,3.1,0.4,4,1.2c0.7,0.7,1,1.6,1,2.9v6.7c0,1.2,0,1.8,0.2,2.8h-2.3V485.9z
			 M299.4,481c-2.7,0.1-4.1,0.2-5.1,0.7c-1.2,0.5-1.8,1.2-1.8,2.4c0,1.2,0.9,2,2.4,2c1.3,0,2.8-0.6,3.7-1.6c0.6-0.6,0.8-1.2,0.8-2.1
			V481z"/>
		<path fill="#484A4C" d="M307.1,482c0.1,1.1,0.3,1.7,0.7,2.3c0.8,1,2.2,1.6,3.9,1.6c2.7,0,4.4-1.3,4.4-3.4c0-1.1-0.5-2-1.3-2.5
			c-0.8-0.4-1-0.5-4-1.2c-1.6-0.4-2.5-0.7-3.4-1.2c-1.4-0.9-2.1-2.1-2.1-3.8c0-3.1,2.5-5.1,6.4-5.1c2.5,0,4.4,0.8,5.5,2.3
			c0.6,0.7,0.8,1.4,1.1,2.6l-2.4,0.3c-0.2-0.9-0.4-1.4-0.8-1.9c-0.7-0.9-1.9-1.3-3.4-1.3c-2.4,0-4,1.2-4,3.1c0,1.2,0.6,2,1.9,2.6
			c0.6,0.2,0.7,0.3,3.4,0.9c1.8,0.4,3,0.9,3.9,1.5c1.2,0.9,1.7,2.1,1.7,3.6c0,3.5-2.4,5.5-6.7,5.5c-2.7,0-4.8-0.8-5.9-2.3
			c-0.7-0.9-1-1.7-1.2-3.4L307.1,482z"/>
		<path fill="#484A4C" d="M331.1,478.5c-0.6-1.8-1.8-2.7-3.5-2.7c-2.6,0-4.2,2-4.2,5.1c0,3.1,1.7,5.1,4.3,5.1c1.3,0,2.4-0.5,3-1.5
			c0.2-0.3,0.3-0.6,0.5-1.2l2.1,0.5c-0.3,0.9-0.6,1.4-1,1.9c-1.1,1.4-2.7,2.1-4.8,2.1c-3.9,0-6.4-2.7-6.4-6.9c0-4.2,2.5-7,6.3-7
			c2.1,0,3.8,0.8,4.8,2.3c0.4,0.5,0.6,0.9,0.8,1.6L331.1,478.5z"/>
		<path fill="#484A4C" d="M344.5,476.5c-0.9-0.3-1.3-0.4-2-0.4c-1.2,0-2.2,0.5-2.9,1.4c-0.6,0.7-0.8,1.3-0.9,2.4v4.8
			c0,1.2,0,1.8,0.2,2.8h-2.5c0.1-1.2,0.2-1.8,0.2-2.8v-7.5c0-1.3,0-1.9-0.2-2.8h2.4v1.2c0,0,0,0.1,0,0.2c0,0,0,0.1,0,0.2
			c0,0.2,0,0.2,0,0.4c0.4-0.6,0.7-1,1.1-1.3c0.8-0.6,1.9-1,3.2-1c0.7,0,1.2,0,2.2,0.2L344.5,476.5z"/>
		<path fill="#484A4C" d="M350.3,469v2.4h-2.7V469H350.3z M350.2,474.3c-0.1,0.9-0.2,1.6-0.2,2.9v7.5c0,1.2,0,1.8,0.2,2.8h-2.5
			c0.1-1.1,0.2-1.7,0.2-2.8v-7.5c0-1.2,0-2-0.2-2.8H350.2z"/>
		<path fill="#484A4C" d="M354,492.4c0.1-1,0.2-1.8,0.2-2.8v-12.4c0-1.2,0-2-0.2-2.9h2.3v1.2c0,0.3,0,0.4,0,0.9
			c1.2-1.6,2.7-2.4,4.9-2.4c3.8,0,6.1,2.6,6.1,6.8c0,4.2-2.4,6.8-6.1,6.8c-2.1,0-3.7-0.8-4.9-2.3c0,0.6,0.1,1,0.1,1.7v2.5
			c0,1.2,0,2,0.2,2.9H354z M365,480.9c0-3.1-1.5-4.9-4.1-4.9c-2.7,0-4.6,2-4.6,5c0,1.5,0.5,2.9,1.3,3.7c0.8,0.8,2,1.3,3.2,1.3
			C363.4,485.9,365,484,365,480.9z"/>
		<path fill="#484A4C" d="M374.3,470.7c-0.1,0.8-0.2,1.7-0.2,2.7v0.9h1.1c1.1,0,1.7,0,2.4-0.1v2.1c-0.8-0.1-1.3-0.1-2.4-0.1h-1.1
			v8.1c0,0.7,0.1,1,0.3,1.3c0.2,0.2,0.6,0.4,1.2,0.4c0.6,0,1.1-0.1,1.9-0.6l0.5,1.9c-1,0.4-1.8,0.6-2.8,0.6c-1.2,0-2-0.3-2.5-0.7
			c-0.5-0.5-0.7-1.2-0.7-2.4v-8.4h-1c-0.8,0-1.4,0-2.1,0.1v-2.1c0.7,0.1,1.2,0.1,2.2,0.1h0.9v-0.9c0-1-0.1-1.9-0.2-2.7H374.3z"/>
	</g>
	<g enable-background="new    ">
		<path fill="#515456" d="M296.7,518.5c-1.8-0.2-3.5-0.3-5.8-0.3h-36.7c-2.6,0-4.1,0.1-5.8,0.3v-4.9c1.6,0.2,3.2,0.3,5.7,0.3H291
			c2.5,0,4.2-0.1,5.7-0.3V518.5z M259.6,554.1h-5.1c0.2-1.6,0.3-3.4,0.3-4.9v-7.6c0-1.9-0.1-3.1-0.3-4.5c1.1,0.2,2.3,0.2,4,0.2h27.8
			c2,0,3-0.1,4.1-0.2c-0.2,1.2-0.2,2.4-0.2,4.5v7.6c0,2.1,0.1,3.3,0.3,4.9h-5.1v-2.4h-25.8V554.1z M290.5,510.8
			c-1.8-0.2-3.5-0.3-5.8-0.3h-24.3c-2.3,0-4,0.1-5.7,0.3v-4.8c1.7,0.2,3.3,0.3,5.7,0.3h24.3c2.5,0,4.2-0.1,5.8-0.3V510.8z
			 M289.9,526.2c-1.5-0.2-2.9-0.3-5.3-0.3h-23.9c-2.5,0-3.9,0.1-5.4,0.3v-4.6c1.4,0.2,2.9,0.3,5.4,0.3h23.9c2.5,0,4-0.1,5.3-0.3
			V526.2z M289.9,533.8c-1.6-0.2-2.9-0.3-5.3-0.3h-23.9c-2.5,0-3.9,0.1-5.4,0.3v-4.6c1.4,0.2,2.8,0.3,5.4,0.3h23.9
			c2.6,0,4-0.1,5.3-0.3V533.8z M259.6,547.3h25.8v-5.6h-25.8V547.3z"/>
		<path fill="#515456" d="M302.6,513.4c1.3,0.2,2.3,0.3,4.3,0.3h9.8c2.3,0,3.5-0.1,4.6-0.2v4.7c-1.1-0.2-2.1-0.2-4.3-0.2h-10.2
			c-1.9,0-3.1,0.1-4.3,0.2V513.4z M304.5,540.7c0-1.7-0.1-3-0.3-4.4c1.3,0.2,2.6,0.2,4.2,0.2h8.4c2.2,0,2.8,0,3.8-0.2
			c-0.1,1.1-0.2,2.1-0.2,4v8.5c0,1.8,0.1,2.8,0.2,4.3h-4.5v-1.9h-7.1v2.7h-4.8c0.2-1.6,0.3-3.3,0.3-5.2V540.7z M304.4,505.9
			c1.3,0.2,2.3,0.3,4.4,0.3h7.1c2.1,0,3.1-0.1,4.4-0.3v4.6c-0.5-0.1-0.5-0.1-2.4-0.2h-9.1c-1.9,0-3,0.1-4.4,0.2V505.9z M304.6,521.3
			c1.1,0.1,1.9,0.2,3.7,0.2h8.4c1.8,0,2.6-0.1,3.6-0.2v4.3c-1.3-0.2-1.8-0.2-3.6-0.2h-8.4c-1.7,0-2.6,0.1-3.7,0.2V521.3z
			 M304.6,528.9c1.1,0.1,1.9,0.2,3.7,0.2h8.4c1.8,0,2.5-0.1,3.6-0.2v4.3c-1.4-0.2-1.8-0.2-3.7-0.2h-8.3c-1.6,0-2.6,0.1-3.7,0.2
			V528.9z M308.9,547.3h7.1v-6.8h-7.1V547.3z M327.8,526.6c1.1-2.9,1.4-3.6,2.3-6.6h-1.6c-1.6,0-3,0.1-4.4,0.2v-4.6
			c1.3,0.2,2.6,0.2,4.5,0.2h2.7c0.5-2,0.6-2.4,1.2-5h-4c-2.5,0-3.9,0.1-5.5,0.3v-4.8c1.8,0.2,3.4,0.3,5.7,0.3h16.7
			c2.6,0,4.3-0.1,5.7-0.3v4.8c-1.6-0.2-3-0.3-5.5-0.3h-8.4c-0.8,3.5-0.8,3.5-1.2,5h6.5c2.1,0,3.2-0.1,4.4-0.2
			c-0.2,1.2-0.2,2.3-0.2,4.4v6.7c3,0,3.6-0.1,5.2-0.3v4.9c-1.7-0.2-3.1-0.3-5.3-0.3h-19.9c-2.5,0-3.7,0.1-5.3,0.3v-4.8
			c1.6,0.2,2.6,0.3,5.3,0.3H327.8z M324.6,538.6c0-1.7-0.1-3-0.2-4.2c1.3,0.2,2.5,0.2,4.7,0.2h15.4c2.3,0,3.3-0.1,4.4-0.2
			c-0.2,1.2-0.2,2.6-0.2,4.6v9.7c0,2.3,0.1,4,0.3,5.3h-5.1v-2.5h-14.5v2.5h-5.1c0.2-1.4,0.3-3.2,0.3-5.4V538.6z M329.4,547.1h14.5
			v-8.2h-14.5V547.1z M342.1,526.6v-6.6h-7.2c-0.8,2.8-1.2,4-2.2,6.6H342.1z"/>
		<path fill="#515456" d="M366,546.7c-4.1,0-5,0.1-6.9,0.3V541c2,0.3,3,0.4,7,0.4h24.4v-24.6h-23.4c-4,0-5.1,0.1-7.2,0.3v-5.9
			c2.2,0.3,2.8,0.4,7.2,0.4h24.7c2.7,0,2.7,0,4.5-0.1c-0.1,1.5-0.1,2.1-0.1,4.4v28.4c0,2.7,0.1,3.9,0.3,5.8h-6v-3.2H366z"/>
		<path fill="#515456" d="M406.8,525.9c2,0.3,4.3,0.4,8.3,0.4h29.2c4.6,0,5.9-0.1,8-0.3v6.3c-2.4-0.2-4.1-0.3-8.1-0.3h-29.1
			c-4.5,0-6.2,0.1-8.4,0.3V525.9z"/>
		<path fill="#515456" d="M465.2,551.9c0.3-2.3,0.3-3.6,0.3-6.9v-32.2c0-3.7-0.1-4.9-0.3-6.4h6.4c-0.3,1.7-0.3,3.6-0.3,6.6v9.1
			c7.7,2.7,15.3,6.3,24.3,11.4l-3.2,5.3c-2.4-1.6-3.8-2.5-6.6-4.1c-4.1-2.2-10-5.1-13-6.4c-0.9-0.4-0.9-0.4-1.7-0.9l0.1,2.1
			c0.1,0.5,0.1,2.2,0.1,2.7v12.8c0,2.8,0.1,4.9,0.3,6.9H465.2z M487.9,509c2.5,2.9,3.7,4.6,5.6,8.1l-3.3,1.8
			c-1.8-3.3-3.3-5.6-5.6-8.3L487.9,509z M494.2,505.9c2.6,2.9,3.7,4.5,5.6,7.9l-3.3,1.9c-1.7-3.1-3.2-5.4-5.5-8.1L494.2,505.9z"/>
		<path fill="#515456" d="M507.7,512.8c0.9,0.1,1.5,0.1,2.1,0.1c1,0,1.8-0.1,3.1-0.1c6.2-0.4,19.2-1.1,31.9-1.7
			c3.7-0.2,5.3-0.3,6.3-0.5l0.4,5.7c-0.4-0.1-0.7-0.1-0.9-0.1c-3,0-6.8,1-10.1,2.6c-7.3,3.7-11.9,9.5-11.9,15.3
			c0,4.3,2.7,7.7,7.3,9.3c2.5,0.8,6,1.5,7.9,1.5c0.2,0,0.5,0,1-0.1l-0.8,6.1c-0.7-0.1-0.9-0.2-1.8-0.3c-5.9-0.9-9-1.9-12.3-3.8
			c-4.5-2.8-7-7.1-7-12.3c0-5.1,2.4-9.9,7.1-14.3c2.1-2.1,3.4-2.9,6.5-4.3c-3.8,0.5-5.9,0.8-11.7,1.1c-9.4,0.6-14,1.1-16.8,1.7
			L507.7,512.8z M544.7,522.4c2.5,2.9,3.7,4.6,5.6,8.1l-3.3,1.8c-1.8-3.3-3.3-5.6-5.6-8.3L544.7,522.4z M551,519.3
			c2.6,2.9,3.7,4.5,5.6,7.9l-3.3,1.9c-1.7-3.1-3.2-5.4-5.5-8.1L551,519.3z"/>
		<path fill="#515456" d="M584.7,515c1.7,0,2.9-0.1,3.6-0.2v4.2c-0.9-0.1-1.8-0.2-3.6-0.2h-4.4c1.4,1.6,3.2,3,5.6,4.2
			c-1.2,1.3-1.3,1.4-2.7,3.7c-2.9-2.3-3.7-3.1-5.4-5.7c0.1,1.1,0.2,1.9,0.2,2.4v2.4c0,0.7,0.1,1.5,0.2,2.1h-4.8
			c0.1-0.6,0.2-1.3,0.2-1.9v-2.4c0-0.6,0.1-1.5,0.1-2.5c-3.3,4.5-4.8,5.9-9.3,9.1c-1-1.6-1.6-2.4-3-3.7c4.7-2.6,7.1-4.6,9.4-7.7
			h-3.9c-1.9,0-3.2,0.1-4.4,0.3v-4.4c1.2,0.2,2.4,0.3,4.4,0.3h6.7v-6.7c0-1.5-0.1-2.5-0.3-3.6h4.9c-0.2,1-0.2,2-0.2,3.6v6.8H584.7z
			 M582.5,550.7c-2.2-1.6-3-2.2-5.4-3.5c-3.6,3.2-6.6,4.8-13,6.8c-0.7-1.6-1.4-2.8-2.4-4.2c4.8-1.1,8.2-2.5,11.2-4.7
			c-2.5-1.1-4-1.8-8.1-3.2c1.8-2.4,2.3-3.2,3.6-5.6h-2.3c-1.9,0-2.9,0.1-4,0.3V532c1.1,0.2,2.1,0.3,4,0.3h4.4c0.6-1.3,0.9-2,1.5-4
			l4.7,1c-0.6,1.6-0.8,2.1-1.3,3h9c1.9,0,2.9-0.1,3.9-0.3v4.6c-1.1-0.2-2.2-0.3-4.2-0.3h-0.4c-1.1,3.5-1.8,5-3.7,7.5
			c2.3,1.1,2.8,1.4,4.9,2.7L582.5,550.7z M567.6,505.5c2,2.8,2.8,4.3,3.9,7.1l-3.9,1.6c-1.1-3-2.1-4.7-3.8-7.1L567.6,505.5z
			 M573.3,536.4c-0.7,1.2-1.1,1.8-2.2,3.6c2.5,0.9,3.5,1.3,5.1,2.1c1.5-1.9,2.3-3.4,2.9-5.7H573.3z M587.7,507
			c-1.9,3.9-2.6,5-4.3,7.5l-3.9-1.8c1.9-2.4,3.1-4.6,4.1-7.5L587.7,507z M611.5,518.9c-1.1-0.2-2.1-0.2-4.2-0.2
			c-0.3,5.6-0.7,8-1.7,11.8c-1,3.6-2.3,6.5-4,9.5c3.2,4.2,6.3,6.8,11,9.2c-1.1,1.4-1.7,2.4-2.8,4.8c-4.4-2.6-7.8-5.6-11.1-9.8
			c-3.3,4-7.3,7.2-12.5,10c-0.9-1.8-1.6-2.8-3-4.3c5.8-2.8,9.6-5.7,12.7-9.8c-2.5-4.4-3.9-8.3-5-13.9c-1.1,1.8-1.7,2.8-3,4.5
			c-1.1-1.4-2.1-2.3-3.4-3.2c3.6-4.3,6.2-9.8,7.8-16.6c0.6-2.4,1-4.8,1.1-6.4l5.1,1c-0.2,0.7-0.2,0.7-0.7,2.6
			c-0.7,2.9-1.1,4.4-1.7,6.2h10.2c2.5,0,3.7-0.1,5.1-0.3V518.9z M594.7,518.7c-0.3,0.7-0.3,0.9-0.6,1.6c0.9,6.2,2.4,10.7,4.8,15.3
			c2.5-4.8,3.6-9.6,3.9-16.9H594.7z"/>
		<path fill="#515456" d="M638.3,532.6c0-1.4-0.1-2.5-0.2-3.8h2.7c3.2-1.6,5.2-3,7.8-5.2h-18.4c-2.3,0-3.9,0.1-5.5,0.3v-5
			c1.6,0.2,3.1,0.3,5.5,0.3h20.1c2.1,0,3.1-0.1,4.2-0.2l2.4,3c-0.9,0.7-1,0.9-2.1,1.8c-3.8,3.3-6.4,5.1-11.6,8.3v0.8h15
			c2.4,0,4.6-0.1,6.2-0.3v5.2c-1.6-0.2-3.8-0.3-6.2-0.3h-15V548c0,4.2-1.7,5.5-6.9,5.5c-2,0-4-0.1-6.6-0.3c-0.3-1.8-0.5-2.6-1.4-4.9
			c2.5,0.4,5.6,0.8,7.6,0.8c1.8,0,2.4-0.4,2.4-1.5v-10H623c-2.4,0-4.4,0.1-6.2,0.3v-5.2c1.8,0.2,3.8,0.3,6.2,0.3h15.2V532.6z
			 M637.5,508.7c0-1.7-0.1-2.9-0.3-4.2h5.6c-0.2,1.3-0.3,2.5-0.3,4.2v1.4h15.2c2.5,0,4-0.1,6-0.3c-0.2,1.4-0.3,2.5-0.3,4.2v3.9
			c0,1.4,0.1,2.7,0.3,4h-5v-7.5h-36.3v7.5h-5c0.2-1.3,0.3-2.5,0.3-4V514c0-1.6-0.1-2.9-0.3-4.2c1.9,0.2,3.6,0.3,6,0.3h14V508.7z"/>
		<path fill="#515456" d="M691.9,536.5c-3.1,7.1-6.4,10.3-10.6,10.3c-5.7,0-9.9-6-9.9-14.2c0-5.8,2.1-11.2,5.8-15.4
			c4.4-4.9,10.6-7.4,18.1-7.4c12.6,0,20.8,7.7,20.8,19.4c0,9-4.8,16.3-12.9,19.6c-2.5,1-4.6,1.6-8.3,2.3c-0.8-2.5-1.3-3.4-2.8-5.3
			c4.2-0.6,6.6-1.2,9-2.2c5.8-2.5,9.4-8.2,9.4-14.7c0-5.6-2.6-10.1-7.4-12.6c-1.8-1-3.3-1.3-5.8-1.5
			C696.5,522.8,694.5,530.6,691.9,536.5z M684.5,517.4c-4.9,3.3-7.9,9.1-7.9,15.2c0,4.7,2.1,8.4,4.6,8.4c1.9,0,3.9-2.4,6-7.3
			c2.1-5,3.9-12.5,4.6-19C689,515.1,686.9,515.8,684.5,517.4z"/>
		<path fill="#515456" d="M746.6,530.6c-1.5,1.8-2.2,2.4-4.5,4.5v11.7c4.2-0.9,6.6-1.5,11.6-2.9v4.7c-6.2,1.8-11.7,3-20.4,4.5
			c-1,0.2-2,0.4-2.5,0.6l-1.2-5.3c2.2-0.1,4.9-0.4,7.7-0.8V539c-4.1,2.8-6.7,4.2-12,6.4c-0.8-1.9-1.5-3-2.9-4.7
			c7.5-2.3,13.7-5.7,18.3-10h-11.3c-2.5,0-4.5,0.1-6.2,0.3V526c1.5,0.3,3,0.3,6.2,0.3h15.2v-4.2h-10.7c-3,0-4.4,0.1-5.8,0.2v-4.6
			c1.5,0.2,2.7,0.2,5.8,0.2h10.7V514H731c-2.9,0-4.4,0.1-5.9,0.3v-4.8c1.6,0.2,3.4,0.3,6.2,0.3h13.1v-0.4c0-2.3-0.1-3.4-0.3-4.8h5.7
			c-0.3,1.4-0.4,2.5-0.4,4.8v0.4h14.1c2.9,0,4.6-0.1,6.2-0.3v4.8c-1.5-0.2-3.1-0.3-5.9-0.3h-14.3v4.1h11.6c3.2,0,4.4-0.1,5.9-0.2
			v4.6c-1.4-0.2-2.8-0.2-5.9-0.2h-11.6v4.2h16.1c3,0,4.8-0.1,6.1-0.3v4.9c-1.7-0.2-3.7-0.3-6.1-0.3h-13.6c1.4,3,2.5,4.9,4.8,7.5
			c3.1-2.4,5.5-4.8,7-6.8l4.5,2.9c-0.4,0.3-0.4,0.3-1.1,1.1c-1.9,1.9-4.4,4.1-7,6.1c3.9,3.1,7.5,5.1,12.9,7c-1.5,1.7-2.4,3-3.1,4.8
			c-7.2-3.2-12.2-6.7-16-11.3c-2.6-3.1-4.9-6.9-6.6-11.3H746.6z"/>
		<path fill="#515456" d="M788.1,507.1c-0.3,1.5-0.4,3-0.6,7c-0.2,4.6-0.5,16.6-0.5,20.2c0,5,0.3,7,1.5,8.7c1.3,1.9,4,3,7.6,3
			c5.9,0,10.7-3.3,13.5-9.3c1.2-2.7,1.9-5,2.5-8.9c2.4,2,3.2,2.5,5.5,3.6c-2.2,7-3.7,10.3-6.2,13.2c-4,4.5-9.2,6.8-15.7,6.8
			c-3.7,0-7.1-0.9-9.2-2.4c-3.5-2.5-5-6.3-5-13.3c0-3.1,0.1-6,0.4-21.9c0.1-1.7,0.1-2.7,0.1-3.7c0-1.3-0.1-2-0.2-3.2L788.1,507.1z"
			/>
		<path fill="#515456" d="M841.4,509.4c0-1.8-0.1-3.2-0.4-4.5h5.9c-0.2,1.1-0.3,2.5-0.3,4.5v3.6h15.6c2.9,0,4.8-0.1,6.5-0.4v5.5
			c-1.6-0.2-3.2-0.3-6.4-0.3h-20c-0.3,3.4-0.3,3.6-0.6,6.6h14.8c2.9,0,4.3-0.1,5.6-0.3l-0.1,0.5c-0.1,0.8-0.2,1.3-0.2,3.6
			c-0.3,7.5-1,14.6-1.9,18.6c-1.2,5.1-2.7,6.3-7.6,6.3c-1.9,0-4.4-0.2-7.5-0.4c-0.3-2.4-0.4-3.2-1.3-5.3c3.1,0.5,5.7,0.8,8.2,0.8
			c2.3,0,2.8-0.6,3.6-4.4c0.8-3.7,1.2-7.6,1.4-14.8h-15.7c-2.1,11.2-7.3,18.5-17.5,24.8c-1.1-1.9-1.8-2.7-3.7-4.3
			c4.6-2.5,7.4-4.8,10.2-8.3c4.5-5.6,6.4-12.2,6.9-23.5h-9.9c-2.8,0-4.8,0.1-6.5,0.3v-5.5c1.9,0.3,3.8,0.4,6.5,0.4h14.5V509.4z"/>
		<path fill="#515456" d="M888.9,512.3c1.5-3.3,2.2-5.2,2.3-7l5.9,0.8c-0.3,0.5-0.4,0.7-0.6,1.2c-0.6,1.4-0.6,1.4-1.7,3.9
			c-0.2,0.3-0.3,0.7-0.4,0.9c0.2,0,0.2,0,0.4-0.1c0.1,0,0.2,0,0.3,0c0.3,0,1.2-0.1,2.7-0.2c5.8-0.2,11.5-1,14.4-1.8l0.3,5.1
			c-1.2,0.1-1.2,0.1-4.2,0.5c-3.8,0.5-10.7,1-16,1.1c-1.9,3.7-3.6,6.1-5.8,8.4l0.1,0.1c0.4-0.3,0.4-0.3,1.1-0.9
			c2.4-1.8,5.3-2.8,8.2-2.8c2.1,0,4,0.6,5.2,1.7c1.2,1,1.8,2.2,2.2,4.1c4.4-1.6,7.3-2.7,8.7-3.2c2.8-0.9,3-1,3.8-1.6l2.2,5.2
			c-3,0.5-6.6,1.7-14.2,4.5c0.1,1.9,0.1,1.9,0.1,2.9c0,0.7,0,1.7,0,2.5c-0.1,0.9-0.1,1.5-0.1,1.9c0,1,0.1,1.8,0.2,2.6l-5.2,0.1
			c0.2-1.1,0.3-4.1,0.3-7c0-0.3,0-0.8,0-1.3c-6.6,3-9.1,5.2-9.1,8c0,3.2,2.8,4.4,10.4,4.4c5.7,0,11.6-0.9,15-2.2l0.5,5.8
			c-0.9,0.1-1.2,0.1-2.4,0.3c-4,0.6-9.1,1-13.4,1c-5.5,0-9-0.6-11.7-2.2c-2.4-1.4-3.8-3.8-3.8-6.6c0-5,4.5-9.3,13.8-13.3
			c-0.3-2.3-1.5-3.5-3.7-3.5c-3.2,0-7.2,1.9-11.5,5.6c-2.2,1.8-3.4,3.2-4.4,4.8l-4.2-4.2c2.5-1.9,5.8-5.6,8.7-9.8
			c0.6-1,1.8-2.9,3.3-5.5c-0.2,0-0.9,0-0.9,0l-5.2-0.1c-1.4-0.1-2.4-0.1-3.1-0.1c-0.2,0-0.2,0-0.3,0c-0.2,0-0.4,0-0.8,0.1l0.1-5.1
			c2.7,0.5,5.6,0.6,10.5,0.6H888.9z"/>
		<path fill="#515456" d="M931.7,510c0-2.3-0.1-3.8-0.3-5.5h5.5c-0.2,1.6-0.3,3.1-0.3,5.4v4.9h1.5c1.5,0,2.8-0.1,4.2-0.3v4.9
			c-1.6-0.2-2.8-0.2-4.3-0.2h-1.5v9.6c1.6-0.5,1.6-0.5,5.8-1.9l0.1,4.4c-2.6,1-3.4,1.3-5.9,2.2v15.7c0,3.5-1.6,4.5-6.7,4.5
			c-1.5,0-2.4-0.1-4.3-0.2c-0.2-2.1-0.4-3.1-1-4.9c2.3,0.4,3.8,0.5,5.5,0.5c1.4,0,1.7-0.3,1.7-1.5v-12.7c-1.8,0.5-1.8,0.5-3.2,0.9
			c-0.3,0.1-1.1,0.3-2.4,0.6c-0.3,0.1-0.6,0.2-1.2,0.4l-0.9-5.2c1.8-0.2,1.8-0.2,7.8-1.6v-10.9h-3c-1.5,0-2.7,0.1-4.3,0.3v-5
			c1.3,0.2,2.7,0.3,4.3,0.3h3V510z M949.2,511.1c8.4-1.2,15.3-3.3,18.3-5.3l3.6,4.2c-7.8,2.6-13.8,4-21.9,5.1v3.1
			c0,1.9,0.8,2.2,9.4,2.2c8.8,0,9-0.1,9.3-6.5c1.7,0.8,3.1,1.2,4.7,1.6c-0.5,4.9-1.2,6.7-3,7.8c-1.8,1.1-4.3,1.4-13.6,1.4
			c-4.5,0-7.9-0.3-9.1-0.8c-1.9-0.8-2.6-1.9-2.6-4.2v-9.9c0-2.3-0.1-3.6-0.3-5.2h5.3c-0.2,1.3-0.3,2.8-0.3,5V511.1z M944.5,532.6
			c0-2.1-0.1-3.3-0.2-4.4c1.4,0.2,2.5,0.2,4.8,0.2h15.8c2.5,0,3.5-0.1,4.9-0.2c-0.2,1.1-0.2,2.4-0.2,4.5v15.7c0,2.9,0.1,4,0.3,5.5
			h-5v-2.6h-15.6v2.7h-5c0.2-1.5,0.3-2.6,0.3-5.3V532.6z M949.2,537.6h15.6v-5h-15.6V537.6z M949.2,547.1h15.6v-5.3h-15.6V547.1z"/>
		<path fill="#515456" d="M1000.1,524.6h-8.6c-2.4,0-3.8,0.1-5.5,0.3V520c1.4,0.2,3,0.3,5.5,0.3h21.3c2.4,0,4-0.1,5.5-0.3v4.9
			c-1.4-0.2-3-0.3-5.5-0.3h-8v7.7h10.3c2.4,0,3.8-0.1,5.2-0.3v4.9c-1.6-0.2-3-0.3-5.2-0.3h-10.3V547c2.3,0.3,5.5,0.5,8.7,0.5
			c3.7,0,7.5-0.2,12.5-0.6c-0.8,1.8-1.1,3-1.4,5.2c-3.9,0.1-6.4,0.2-10.2,0.2c-8.3,0-14.1-1-18.1-3.2c-3.1-1.6-5.3-3.8-7.1-6.6
			c-2.2,4.6-4.1,7.3-7.7,11.3c-1.2-1.7-1.8-2.2-3.9-3.7c3.7-3.6,5.6-6.1,7.5-10.2c1.7-3.6,3-8.7,3-11.5l5.1,1
			c-0.2,0.9-0.2,0.9-0.7,3.1c-0.2,0.8-0.8,3.1-1.5,5.1c1.4,2.5,1.9,3.3,3.5,4.8c1.6,1.5,3.2,2.5,5.6,3.4V524.6z M999.2,508.1
			c0-1.3-0.1-2.1-0.3-3.4h5.7c-0.2,1.2-0.3,2.1-0.3,3.4v2.3h15c2.1,0,3.8-0.1,5.8-0.2c-0.2,1.2-0.2,2.4-0.2,3.8v3.9
			c0,1.6,0.1,2.9,0.2,4.1h-4.9v-7.1h-36v7.1h-5c0.2-1.3,0.2-2.3,0.2-4.1V514c0-1.3-0.1-2.8-0.2-3.8c2,0.2,3.7,0.2,5.7,0.2h14.4
			V508.1z"/>
		<path fill="#515456" d="M1032.1,513.4c1.1,0.1,1.6,0.1,2.4,0.1c1.5,0,3.7-0.1,9.7-0.3c3.5-0.1,3.5-0.1,13-0.4
			c-0.1-4.6-0.1-5.6-0.3-6.9h5.7c-0.2,1.6-0.3,2.6-0.3,6.8c9.8-0.1,13.9-0.2,15.8-0.4v5.2c-1.9-0.2-4.5-0.3-9.1-0.3
			c-1.5,0-2.4,0-6.7,0.1v9.9c1.1,2.3,1.5,4.4,1.5,7.1c0,5.8-2.8,10.9-7.7,14.4c-2.2,1.5-4.6,2.7-9.3,4.4c-1.2-2.6-1.7-3.3-3.3-5
			c4.5-1,6.6-1.9,9.1-3.5c3.8-2.5,5.7-5.5,6-9.1c-1.5,2.9-4.3,4.5-8,4.5c-5.5,0-9.5-3.8-9.5-9.1c0-5.5,4.3-9.5,10.4-9.5
			c2.5,0,4.4,0.6,5.7,1.8c0-0.2,0-0.2-0.1-0.7c0-0.1,0-1.5,0-2.3l-0.1-2.9c-8.6,0.1-21.6,0.8-25,1.3L1032.1,513.4z M1046.6,530.5
			c0,2.8,2,4.8,4.9,4.8c3.3,0,5.7-2.3,5.7-5.5c0-1.2-0.3-2-1.1-2.6c-1-1-2.4-1.5-4-1.5C1048.9,525.7,1046.6,527.8,1046.6,530.5z"/>
		<path fill="#515456" d="M1088.6,508.6c1.8,0.3,2.8,0.3,5.7,0.3c4.9,0,11.3-0.3,16.6-0.7c1.7-0.1,2.3-0.2,3-0.6l2.9,4
			c-0.8,0.4-1.1,0.7-2.8,2.2c-7.5,7.1-13.4,12-17.1,14.2l0.1,0.2c4.6-2.1,7.8-2.9,12.1-2.9c9.1,0,15,4.6,15,11.8c0,5-2.5,9-7.2,11.6
			c-3.5,1.9-7.8,3-12.7,3c-4.3,0-7.9-0.8-10-2.3c-2.1-1.4-3.2-3.7-3.2-6.1c0-4.1,3.7-7.1,8.7-7.1c3.7,0,7,1.6,9.2,4.5
			c1.1,1.4,1.7,2.6,2.5,5c1.8-0.6,2.9-1.1,4.1-1.9c2.1-1.6,3.3-3.8,3.3-6.4c0-4.8-4.2-7.6-11.1-7.6c-7.9,0-16.1,3.3-22.5,9.1
			l-3.1-4.8c4.9-2.6,17.6-13,24.6-20.2c0.2-0.2,0.8-0.8,0.9-0.9l-0.1-0.1c-1.9,0.3-7.7,0.6-15.9,1c-1.2,0.1-1.6,0.1-2.7,0.3
			L1088.6,508.6z M1099.8,540.5c-2.2,0-3.6,1.1-3.6,2.8c0,2.4,2.8,3.8,7.3,3.8c1.1,0,1.4,0,3.1-0.2
			C1105.4,542.7,1103.2,540.5,1099.8,540.5z"/>
	</g>
</g>
</svg>
