<?xml version="1.0" encoding="utf-8"?>
<!-- Generator: Adobe Illustrator 24.3.0, SVG Export Plug-In . SVG Version: 6.00 Build 0)  -->
<svg version="1.1" id="レイヤー_1" xmlns="http://www.w3.org/2000/svg" xmlns:xlink="http://www.w3.org/1999/xlink" x="0px"
	 y="0px" viewBox="0 0 1200 630" enable-background="new 0 0 1200 630" xml:space="preserve">
<g id="BG">
	<g id="wrap">
		<rect fill="#D7E8F9" width="1200" height="630"/>
	</g>
	<rect fill="#CADDEF" width="36" height="630"/>
	<rect x="36" fill="#4D91CE" width="78" height="630"/>
	<rect x="114" fill="#D4DFE8" width="30" height="630"/>
	<rect x="144" fill="#8EC0ED" width="30" height="630"/>
	<g id="listful_x5F_logotype">
		<path fill="#E8F0F7" d="M389.7,269.8V24.2c0-5.9,3.6-9.2,9.8-9.2h39.1c6.3,0,9.8,3.3,9.8,9.2v245.6c0,5.9-3.5,9.2-9.8,9.2h-39.1
			C393.3,278.9,389.7,275.6,389.7,269.8z"/>
		<path fill="#E8F0F7" d="M471.2,64.6V31.4c0-5.9,3.5-9.2,9.8-9.2h39.2c6.3,0,9.8,3.3,9.8,9.2v33.1c0,5.9-3.5,9.2-9.8,9.2H481
			C474.7,73.8,471.2,70.5,471.2,64.6z M471.2,269.8V104.6c0-5.9,3.5-9.2,9.8-9.2h39.2c6.3,0,9.8,3.3,9.8,9.2v165.2
			c0,5.9-3.5,9.2-9.8,9.2H481C474.7,278.9,471.2,275.6,471.2,269.8z"/>
		<path fill="#E8F0F7" d="M686.5,222c0,40-34.1,57-72.3,57c-35.5,0-67.4-16-71.6-52.9c-0.7-5.9,2.8-9,8.4-9h34c5.2,0,7,2.8,9.4,7.3
			c2.8,5.9,9.4,9.4,19.8,9.4c14.6,0,20.2-4.9,20.2-11.8c0-25-90.8-2.1-90.8-69.6c0-39.3,34.1-57,70.6-57c32.3,0,64,16,68.2,52.9
			c0.7,5.9-2.8,9-8.4,9h-34.1c-5.2,0-7-2.8-9.4-7.6c-2.4-5.6-8.4-9-16.4-9c-12.9,0-18.4,4.9-18.4,11.8
			C595.7,178.1,686.5,154.1,686.5,222z"/>
		<path fill="#E8F0F7" d="M805.8,105.1v34.2c0,5.1-4.1,9.2-9.2,9.2h-20.2v121.2c0,5.1-4.1,9.2-9.2,9.2h-36.8c-5.1,0-9.2-4.1-9.2-9.2
			V148.5H701c-5.1,0-9.2-4.1-9.2-9.2v-34.2c0-5.1,4.1-9.2,9.2-9.2h20.2V46.3c0-5.1,4.1-9.2,9.2-9.2h36.8c5.1,0,9.2,4.1,9.2,9.2v49.6
			h20.2C801.7,95.9,805.8,100,805.8,105.1z"/>
		<path fill="#E8F0F7" d="M897.9,95.9h25c5.1,0,9.2,4.1,9.2,9.2v34.2c0,5.1-4.1,9.2-9.2,9.2H898v121.2c0,5.1-4.1,9.2-9.2,9.2H852
			c-5.1,0-9.2-4.1-9.2-9.2V148.5h-15.6c-5.1,0-9.2-4.1-9.2-9.2v-34.2c0-5.1,4.1-9.2,9.2-9.2h15.5c0-48.6,25.4-78.5,80-78.5
			c5.1,0,9.3,4.2,9.3,9.3v34.5c0,5.9-3.3,8.8-9.6,8.8C907.5,70.1,897.9,78.4,897.9,95.9z"/>
		<path fill="#E8F0F7" d="M1104.8,104.3v160.5c0,4.9-4,8.9-8.9,8.9h-35.8c-4.9,0-8.9-4-8.9-8.9v-7.4c-8.4,12.4-23.6,21.3-46.4,21.3
			c-33.2,0-57.2-25.7-57.2-70.3V104.3c0-4.9,4-8.9,8.9-8.9h35.8c4.9,0,8.9,4,8.9,8.9v99.5c0,17.8,10.4,25.7,23.9,25.7
			c16.1,0,26.1-8.9,26.1-30v-95.2c0-4.9,4-8.9,8.9-8.9h35.8C1101.6,95.4,1104.8,98.7,1104.8,104.3z"/>
		<path fill="#E8F0F7" d="M1124.9,269.8V24.2c0-5.9,3.5-9.2,9.8-9.2h39.2c6.3,0,9.8,3.3,9.8,9.2v245.6c0,5.9-3.5,9.2-9.8,9.2h-39.2
			C1128.4,278.9,1124.9,275.6,1124.9,269.8z"/>
	</g>
</g>
<g id="text">
	<g enable-background="new    ">
		<path fill="#484A4C" d="M264.1,413c0,5.9-3.3,9.6-8.5,9.6c-5.2,0-8.5-3.7-8.5-9.6c0-5.8,3.3-9.6,8.5-9.6
			C260.8,403.4,264.1,407.2,264.1,413z M261.7,413.1c0-2.6-0.7-4.7-2.1-6c-1.1-1.1-2.5-1.6-4.1-1.6c-3.7,0-6.2,3-6.2,7.6
			c0,4.6,2.4,7.6,6.2,7.6C259.3,420.6,261.7,417.7,261.7,413.1z"/>
		<path fill="#484A4C" d="M271.8,405.5c-0.1,0.8-0.2,1.7-0.2,2.7v0.9h1.1c1.1,0,1.7,0,2.4-0.1v2.1c-0.8-0.1-1.3-0.1-2.4-0.1h-1.1
			v8.1c0,0.7,0.1,1,0.3,1.3c0.2,0.2,0.6,0.4,1.2,0.4c0.6,0,1.1-0.1,1.9-0.6l0.5,1.9c-1,0.4-1.8,0.6-2.8,0.6c-1.2,0-2-0.3-2.5-0.7
			c-0.5-0.5-0.7-1.2-0.7-2.4v-8.4h-1c-0.8,0-1.4,0-2.1,0.1V409c0.7,0.1,1.2,0.1,2.2,0.1h0.9v-0.9c0-1-0.1-1.9-0.2-2.7H271.8z"/>
		<path fill="#484A4C" d="M278.1,422.3c0.1-0.9,0.2-1.6,0.2-2.8v-12.8c0-1.2,0-1.9-0.2-2.8h2.5c-0.1,0.9-0.2,1.6-0.2,2.9v3.8
			c0,0.4,0,0.5-0.1,1.2c1.2-1.8,2.7-2.7,4.9-2.7c2.9,0,4.6,1.7,4.6,4.6v6c0,1.1,0,1.9,0.2,2.8h-2.5c0.1-0.8,0.2-1.6,0.2-2.8v-5.6
			c0-1.1-0.2-1.8-0.7-2.3c-0.5-0.5-1.2-0.8-2.1-0.8c-1.2,0-2.3,0.6-3.2,1.6c-0.6,0.8-1,1.4-1.3,2.4v4.7c0,1.1,0,1.9,0.2,2.8H278.1z"
			/>
		<path fill="#484A4C" d="M295.2,416.1c0.1,1.6,0.3,2.4,1,3.2c0.7,1,1.9,1.5,3.3,1.5c1.3,0,2.3-0.5,3.1-1.3c0.4-0.4,0.5-0.7,0.8-1.4
			l2,0.7c-0.5,1-0.8,1.5-1.3,2c-1.2,1.2-2.7,1.8-4.5,1.8c-3.9,0-6.4-2.7-6.4-7c0-4.2,2.4-6.9,6.2-6.9c3.2,0,5.5,2,6,5.4
			c0,0.2,0.1,0.7,0.2,1.9H295.2z M303.1,414.4c-0.1-1.2-0.5-2.1-1.2-2.8c-0.7-0.7-1.6-1-2.8-1c-1.4,0-2.6,0.7-3.3,2
			c-0.3,0.6-0.5,1-0.6,1.8H303.1z"/>
		<path fill="#484A4C" d="M316.7,411.3c-0.9-0.3-1.3-0.4-2-0.4c-1.2,0-2.2,0.5-2.9,1.4c-0.6,0.7-0.8,1.3-0.9,2.4v4.8
			c0,1.2,0,1.8,0.2,2.8h-2.5c0.1-1.2,0.2-1.8,0.2-2.8v-7.5c0-1.3,0-1.9-0.2-2.8h2.4v1.2c0,0,0,0.1,0,0.2c0,0,0,0.1,0,0.2
			c0,0.2,0,0.2,0,0.4c0.4-0.6,0.7-1,1.1-1.3c0.8-0.6,1.9-1,3.2-1c0.7,0,1.2,0,2.2,0.2L316.7,411.3z"/>
	</g>
	<g enable-background="new    ">
		<path fill="#515456" d="M280.2,484.9c-0.2-1.1-0.8-3.7-1.3-5.4l-6.3-21.4c-0.6-2.1-1-3.8-1.6-6.6c-0.6,2.8-1.1,5-1.6,6.6
			l-6.3,21.4c-0.8,2.6-1.1,4.1-1.3,5.4h-5.9c-0.2-1.2-0.2-1.2-1.5-5.5l-8.6-30.4c-0.9-3.2-1.4-4.5-2.2-6.3h7.3
			c0.1,1.7,0.4,3.5,1,5.7l5.6,21.8c0.4,1.7,1,4.4,1.4,6.3c0.4-2.1,1.2-5.1,1.6-6.3l6.5-22c0.6-2.1,1.1-4,1.2-5.4h5.6
			c0.2,1.4,0.6,3.4,1.2,5.3l6.5,22c0.4,1.2,0.7,2.6,1.6,6.4c0.9-4.2,1.4-6.4,1.4-6.5l5.6-21.5c0.5-2.1,0.9-4.2,1-5.7h7.3
			c-0.8,1.8-1.2,3.1-2.1,6.3l-8.6,30.3c-1.2,4.5-1.2,4.5-1.3,5.6H280.2z"/>
		<path fill="#515456" d="M305.3,471.1c0.2,3.2,0.8,4.9,2.1,6.6c1.6,2.1,4.1,3.2,7.1,3.2c2.8,0,5.1-0.9,6.8-2.8
			c0.7-0.9,1.1-1.5,1.6-3l5.3,1.8c-1,2.3-1.8,3.4-3.1,4.8c-2.7,2.6-6.3,4-10.6,4c-9.1,0-14.9-6.2-14.9-16c0-9.7,5.7-16,14.5-16
			c7.6,0,12.9,4.8,14,12.6c0.1,0.7,0.1,0.7,0.4,4.7H305.3z M322.5,466.5c-0.3-2.6-1.1-4.3-2.6-5.8c-1.5-1.5-3.5-2.3-6-2.3
			c-3.1,0-5.6,1.5-7.2,4.2c-0.8,1.2-1,2.1-1.4,3.9H322.5z"/>
		<path fill="#515456" d="M334.7,484.9c0.3-2.2,0.4-3.9,0.4-6.9v-28.6c0-2.5-0.1-4.4-0.4-6.8h6.4c-0.3,2.2-0.4,3.9-0.4,6.8v5.9
			c0,1.6-0.1,2.7-0.2,3.8c2.7-3.5,6.4-5.2,11.3-5.2c8.6,0,13.8,5.9,13.8,15.6c0,9.9-5.4,16-14.2,16c-4.8,0-8.1-1.5-10.9-4.9
			c0.1,0.2,0.1,0.3,0.1,0.4c0.1,0.4,0.1,0.4,0.1,1.5v2.2H334.7z M351.2,458.8c-6.1,0-10.3,4.4-10.3,10.7c0,6.3,4.2,11,9.8,11
			c5.6,0,9.1-4.2,9.1-11.1C359.8,462.9,356.5,458.8,351.2,458.8z"/>
		<path fill="#515456" d="M368,447.5c0.9,0.1,1.5,0.1,2.1,0.1c1,0,1.8-0.1,3.1-0.1c6.2-0.4,19.2-1.1,31.9-1.7
			c3.7-0.2,5.3-0.3,6.3-0.5l0.4,5.7c-0.4-0.1-0.7-0.1-0.9-0.1c-3,0-6.8,1-10.1,2.6c-7.3,3.7-11.9,9.5-11.9,15.3
			c0,4.3,2.7,7.7,7.3,9.3c2.5,0.8,6,1.5,7.9,1.5c0.2,0,0.5,0,1-0.1l-0.8,6.1c-0.7-0.1-0.9-0.2-1.8-0.3c-5.9-0.9-9-1.9-12.3-3.8
			c-4.5-2.8-7-7.1-7-12.3c0-5.1,2.4-9.9,7.1-14.3c2.1-2.1,3.4-2.9,6.5-4.3c-3.8,0.5-5.9,0.8-11.7,1.1c-9.4,0.6-14,1.1-16.8,1.7
			L368,447.5z M405,457.2c2.5,2.9,3.7,4.6,5.6,8.1l-3.3,1.8c-1.8-3.3-3.3-5.6-5.6-8.3L405,457.2z M411.3,454.1
			c2.6,2.9,3.7,4.5,5.6,7.9l-3.3,1.9c-1.7-3.1-3.2-5.4-5.5-8.1L411.3,454.1z"/>
		<path fill="#515456" d="M427.5,466c0-2.1,0.1-3.1,0.2-6.2c-1.2,2.4-2.2,3.9-4.2,6.5c-0.7-2.1-1.2-3.3-2.3-5
			c5.1-5.7,9.5-15,10.5-22.2l5.2,1.2c-0.7,2.2-0.7,2.2-1.6,4.9c-0.6,1.9-1.5,4-2.9,7.3v30.2c0,2.3,0.1,4.3,0.3,6.3h-5.3
			c0.2-2.1,0.3-3.7,0.3-6.4V466z M441.9,469.1c-1.9,0-3.1,0.1-4.5,0.2c0.1-1.5,0.2-2.5,0.2-4.2v-7.4c0-2.2-0.1-3-0.2-4.3
			c1.5,0.1,2.3,0.2,4.9,0.2h8.5c0.1-1.1,0.1-1.1,0.1-1.5c0-0.1,0-1.4-0.1-3h-9.4c-2.2,0-3.7,0.1-5.1,0.3v-5c1.5,0.2,3.5,0.3,5.6,0.3
			h9c-0.1-3.1-0.1-4-0.4-5.7h5.3c-0.2,1.5-0.2,2.6-0.2,5.7h10.2c2.3,0,4-0.1,5.8-0.3v5c-1.6-0.2-3.1-0.3-5.2-0.3h-10.7
			c0,2.6,0,2.6,0,4.5h8.2c2.4,0,3.6-0.1,5.1-0.2c-0.1,1.3-0.2,2.6-0.2,4.5v6.7c0,2.5,0.1,3.4,0.2,4.6c-1.5-0.2-2.8-0.2-5.3-0.2h-9.1
			c-0.7,3.6-1.6,6.2-3,8.5c5.6,3.4,11.9,5.1,20.7,5.7c-0.9,1.5-1.6,3.3-2.1,5c-8.9-1.1-15.4-3.3-21.3-7.2c-3.3,3.4-6.3,5.2-12.5,7.5
			c-0.9-1.7-1.8-3-2.9-4.2c5.6-1.7,8.9-3.3,11.8-6c-1.6-1.5-2.3-2.3-4.9-5.3c-0.1-0.1-0.2-0.3-0.4-0.5l4.1-2.3
			c0.6,1.4,1.9,3,3.8,4.7c1-1.8,1.5-3.4,2-5.8H441.9z M442.3,458v6.9h8.2c0.2-2.4,0.3-3.7,0.4-6.9H442.3z M455.4,458
			c-0.1,2.9-0.2,4.3-0.4,6.9h9V458H455.4z"/>
		<path fill="#515456" d="M478.1,458.2c1.4-0.1,1.4-0.1,5.9-0.9c7.5-1.4,12.4-1.9,16.8-1.9c4.1,0,7.5,0.8,9.8,2.2
			c3.2,1.9,5,5.3,5,9.4c0,5.9-3.6,11.4-9.9,15.1c-4.3,2.5-7.9,3.7-16.5,5.1c-0.6-2.6-1-3.6-2.3-5.6c7-0.4,13.5-2.4,17.6-5.4
			c3.3-2.4,5.1-5.7,5.1-9.3c0-1.8-0.8-3.5-2.2-4.5c-1.6-1.2-3.6-1.8-6.7-1.8c-6.2,0-16.9,1.8-21.3,3.7L478.1,458.2z M486.4,441.1
			c5.9,2.1,13.8,3.2,23.2,3.2l-0.8,5.5c-9.4-0.4-16.5-1.5-24.1-3.5L486.4,441.1z"/>
		<path fill="#515456" d="M529.9,454.6c-3.5,0-4.8,0.1-6.3,0.3v-5.2c1.7,0.2,3.4,0.3,6.2,0.3h31.5c2.6,0,4.5-0.1,6.2-0.3v5.2
			c-1.8-0.2-3.1-0.3-6.2-0.3h-13.5v10.3H559c2.4,0,4.2-0.1,5.6-0.3v5.1c-1.7-0.2-2.8-0.3-5.5-0.3h-11.2v12.3h15.5
			c2.7,0,4.5-0.1,6.6-0.3v5.4c-2.2-0.3-3.9-0.4-6.5-0.4h-35.2c-2.8,0-4.6,0.1-6.8,0.4v-5.4c1.8,0.2,3.7,0.3,6.6,0.3h14.5v-12.3h-10
			c-2.8,0-4.2,0.1-5.8,0.3v-5.1c1.5,0.2,2.8,0.3,5.5,0.3h10.4v-10.3H529.9z M539.8,438.9c5.3,1.9,7.6,3,13.6,6.2l-3.3,4
			c-5.2-3.2-9-5-13.8-6.5L539.8,438.9z"/>
		<path fill="#515456" d="M593.6,440.8c-0.3,0.9-0.3,0.9-0.9,3.5c-0.4,1.7-0.6,2.9-1.2,5.2c3.9-0.4,6.8-0.9,9-1.6l0.2,5.2
			c-0.6,0.1-0.7,0.1-1.8,0.3c-2,0.4-5.2,0.8-8.7,1c-1.6,5.5-3.6,10.7-5.9,15.7c-1.2,2.6-1.7,3.6-3.8,7.3c-0.4,0.8-0.8,1.4-1,1.9
			l-5.2-3c1.9-2.4,3.4-4.9,5.2-8.6c2.2-4.5,4.1-9.2,5.2-13.1c-1.1,0.1-1.6,0.1-3.2,0.1c-1.5,0-1.5,0-3.7-0.1c-0.3,0-0.5,0-1.9,0
			v-5.2c1.9,0.3,3.8,0.4,6.9,0.4c1.6,0,2.5,0,3.2-0.1c1-3.5,1.7-7.3,1.8-9.7L593.6,440.8z M618.5,483.8c-1.9-2.4-5.2-5-8.7-6.9
			c0.1,0.6,0.1,0.6,0.1,1.1c0,2-0.8,4.3-1.9,5.7c-1.7,2-4.9,3.2-8.8,3.2c-6.9,0-11.3-3.2-11.3-8.4c0-5.3,4.6-9,11.2-9
			c1.8,0,3.1,0.2,5.5,0.6c-0.2-2.8-0.3-4.8-0.3-6.9c0-2.1,0.1-3.2,0.4-5.1l5.2,0.4c-0.5,2-0.7,3.1-0.7,5.2c0,2.1,0.2,4.6,0.5,7.8
			c3.8,1.7,5.7,2.8,8.9,5.2c1.2,0.9,1.2,1,1.7,1.4c0.4,0.4,0.4,0.4,0.8,0.7L618.5,483.8z M599.4,474.1c-3.9,0-6.4,1.6-6.4,4.1
			c0,2.4,2.2,3.8,5.9,3.8c4,0,5.9-1.7,5.9-5c0-0.6-0.1-2-0.1-2.1C602.7,474.4,601.3,474.1,599.4,474.1z M618.7,459.1
			c-4.5-3.1-9.1-5.3-15.1-7.5l2.7-4.3c6.3,2.4,10.2,4.3,14.8,7.1L618.7,459.1z"/>
		<path fill="#515456" d="M675.6,453.3c-1.8-0.2-3.5-0.3-5.8-0.3h-36.7c-2.6,0-4.1,0.1-5.8,0.3v-4.9c1.6,0.2,3.2,0.3,5.7,0.3h36.8
			c2.5,0,4.2-0.1,5.7-0.3V453.3z M638.5,488.8h-5.1c0.2-1.6,0.3-3.4,0.3-4.9v-7.6c0-1.9-0.1-3.1-0.3-4.5c1.1,0.2,2.3,0.2,4,0.2h27.8
			c2,0,3-0.1,4.1-0.2c-0.2,1.2-0.2,2.4-0.2,4.5v7.6c0,2.1,0.1,3.3,0.3,4.9h-5.1v-2.4h-25.8V488.8z M669.4,445.6
			c-1.8-0.2-3.5-0.3-5.8-0.3h-24.3c-2.3,0-4,0.1-5.7,0.3v-4.8c1.7,0.2,3.3,0.3,5.7,0.3h24.3c2.5,0,4.2-0.1,5.8-0.3V445.6z
			 M668.8,461c-1.5-0.2-2.9-0.3-5.3-0.3h-23.9c-2.5,0-3.9,0.1-5.4,0.3v-4.6c1.4,0.2,2.9,0.3,5.4,0.3h23.9c2.5,0,4-0.1,5.3-0.3V461z
			 M668.8,468.6c-1.6-0.2-2.9-0.3-5.3-0.3h-23.9c-2.5,0-3.9,0.1-5.4,0.3V464c1.4,0.2,2.8,0.3,5.4,0.3h23.9c2.6,0,4-0.1,5.3-0.3
			V468.6z M638.5,482h25.8v-5.6h-25.8V482z"/>
		<path fill="#515456" d="M681.5,448.1c1.3,0.2,2.3,0.3,4.3,0.3h9.8c2.3,0,3.5-0.1,4.6-0.2v4.7c-1.1-0.2-2.1-0.2-4.3-0.2h-10.2
			c-1.9,0-3.1,0.1-4.3,0.2V448.1z M683.4,475.5c0-1.7-0.1-3-0.3-4.4c1.3,0.2,2.6,0.2,4.2,0.2h8.4c2.2,0,2.8,0,3.8-0.2
			c-0.1,1.1-0.2,2.1-0.2,4v8.5c0,1.8,0.1,2.8,0.2,4.3H695V486h-7.1v2.7h-4.8c0.2-1.6,0.3-3.3,0.3-5.2V475.5z M683.3,440.7
			c1.3,0.2,2.3,0.3,4.4,0.3h7.1c2.1,0,3.1-0.1,4.4-0.3v4.6c-0.5-0.1-0.5-0.1-2.4-0.2h-9.1c-1.9,0-3,0.1-4.4,0.2V440.7z M683.5,456.1
			c1.1,0.1,1.9,0.2,3.7,0.2h8.4c1.8,0,2.6-0.1,3.6-0.2v4.3c-1.3-0.2-1.8-0.2-3.6-0.2h-8.4c-1.7,0-2.6,0.1-3.7,0.2V456.1z
			 M683.5,463.6c1.1,0.1,1.9,0.2,3.7,0.2h8.4c1.8,0,2.5-0.1,3.6-0.2v4.3c-1.3-0.2-1.8-0.2-3.7-0.2h-8.3c-1.6,0-2.6,0.1-3.7,0.2
			V463.6z M687.9,482h7.1v-6.8h-7.1V482z M706.7,461.4c1.1-2.9,1.4-3.6,2.3-6.6h-1.6c-1.6,0-3,0.1-4.4,0.2v-4.6
			c1.3,0.2,2.6,0.2,4.5,0.2h2.7c0.5-2,0.6-2.4,1.2-5h-4c-2.5,0-3.9,0.1-5.5,0.3V441c1.8,0.2,3.4,0.3,5.7,0.3h16.7
			c2.6,0,4.3-0.1,5.7-0.3v4.8c-1.6-0.2-3-0.3-5.5-0.3h-8.4c-0.8,3.5-0.8,3.5-1.2,5h6.5c2.1,0,3.2-0.1,4.4-0.2
			c-0.2,1.2-0.2,2.3-0.2,4.4v6.7c3,0,3.6-0.1,5.2-0.3v4.9c-1.7-0.2-3.1-0.3-5.3-0.3h-19.9c-2.5,0-3.7,0.1-5.3,0.3v-4.8
			c1.6,0.2,2.6,0.3,5.3,0.3H706.7z M703.5,473.4c0-1.7-0.1-3-0.2-4.2c1.3,0.2,2.5,0.2,4.7,0.2h15.4c2.3,0,3.3-0.1,4.4-0.2
			c-0.2,1.2-0.2,2.6-0.2,4.6v9.7c0,2.3,0.1,4,0.3,5.3h-5.1v-2.5h-14.5v2.5h-5.1c0.2-1.4,0.3-3.2,0.3-5.4V473.4z M708.3,481.9h14.5
			v-8.2h-14.5V481.9z M721,461.4v-6.6h-7.2c-0.8,2.8-1.2,4-2.2,6.6H721z"/>
		<path fill="#515456" d="M744.9,481.5c-4.1,0-5,0.1-6.9,0.3v-5.9c2,0.3,3,0.4,7,0.4h24.4v-24.6H746c-4,0-5.1,0.1-7.2,0.3v-5.9
			c2.2,0.3,2.8,0.4,7.2,0.4h24.7c2.7,0,2.7,0,4.5-0.1c-0.1,1.5-0.1,2.1-0.1,4.4v28.4c0,2.7,0.1,3.9,0.3,5.8h-6v-3.2H744.9z"/>
		<path fill="#515456" d="M785.7,460.7c2,0.3,4.3,0.4,8.3,0.4h29.2c4.6,0,5.9-0.1,8-0.3v6.3c-2.4-0.2-4.1-0.3-8.1-0.3h-29.1
			c-4.5,0-6.2,0.1-8.4,0.3V460.7z"/>
		<path fill="#515456" d="M844.1,486.7c0.3-2.3,0.3-3.6,0.3-6.9v-32.2c0-3.7-0.1-4.9-0.3-6.4h6.4c-0.3,1.7-0.3,3.6-0.3,6.6v9.1
			c7.7,2.7,15.3,6.3,24.3,11.4l-3.2,5.3c-2.4-1.6-3.8-2.5-6.6-4.1c-4.1-2.2-10-5.1-13-6.4c-0.9-0.4-0.9-0.4-1.7-0.9l0.1,2.1
			c0.1,0.5,0.1,2.2,0.1,2.7v12.8c0,2.8,0.1,4.9,0.3,6.9H844.1z M866.8,443.8c2.5,2.9,3.7,4.6,5.6,8.1l-3.3,1.8
			c-1.8-3.3-3.3-5.6-5.6-8.3L866.8,443.8z M873.2,440.7c2.6,2.9,3.7,4.5,5.6,7.9l-3.3,1.9c-1.7-3.1-3.2-5.4-5.5-8.1L873.2,440.7z"/>
		<path fill="#515456" d="M905,471.2c-3.1,7.1-6.4,10.3-10.6,10.3c-5.7,0-9.9-6-9.9-14.2c0-5.8,2.1-11.2,5.8-15.4
			c4.4-4.9,10.6-7.4,18.1-7.4c12.6,0,20.8,7.7,20.8,19.4c0,9-4.8,16.3-12.9,19.6c-2.5,1-4.6,1.6-8.3,2.3c-0.8-2.5-1.3-3.4-2.8-5.3
			c4.2-0.6,6.6-1.2,9-2.2c5.8-2.5,9.4-8.2,9.4-14.7c0-5.6-2.6-10.1-7.4-12.6c-1.8-1-3.3-1.3-5.8-1.5
			C909.6,457.5,907.6,465.4,905,471.2z M897.6,452.1c-4.9,3.3-7.9,9.1-7.9,15.2c0,4.7,2.1,8.4,4.6,8.4c1.9,0,3.9-2.4,6-7.3
			c2.1-5,3.9-12.5,4.6-19C902.1,449.9,900,450.6,897.6,452.1z"/>
		<path fill="#515456" d="M985.4,466.4c-2.3-0.3-4.5-0.4-7.8-0.4h-32.5c-3,0-5.7,0.2-7.8,0.4v-6.3c2.2,0.3,4.4,0.4,7.8,0.4h32.5
			c3.5,0,5.9-0.1,7.8-0.4V466.4z"/>
		<path fill="#515456" d="M1003.1,480c-2.4,0-4.6,0.1-5.8,0.2c0.1-1,0.2-3.1,0.2-5.4v-9.4c0-1.8-0.1-2.9-0.2-4.4
			c1.1,0.1,2.9,0.2,5.5,0.2h23.9c2.6,0,3.9-0.1,5.3-0.2c-0.1,1.2-0.1,2.3-0.1,4.4v9.2c0,2.6,0.1,4.9,0.2,5.7
			c-1.4-0.1-3.3-0.2-5.9-0.2h-4.6v2.8c0,1.4,0.5,1.6,5,1.6c5.2,0,6.8-0.2,7.4-1c0.5-0.6,0.8-2.5,0.9-5.1c1.6,0.9,2.8,1.2,4.5,1.6
			c-0.5,4.3-1.1,5.9-2.4,7c-1.3,1.1-3.7,1.5-10.1,1.5c-8.4,0-10-0.6-10-4V480h-6c-2.5,5.8-8.5,8.8-18.1,9.1
			c-0.6-1.8-1.1-2.6-2.3-4.4c1,0.1,1.6,0.1,1.9,0.1c6.5,0,11.1-1.6,13.4-4.8H1003.1z M1007.5,456.2h3.7c2.2,0,3.7-0.1,4.6-0.2v3.4
			c-1.6-0.1-2.7-0.2-4.6-0.2H997c-1.8,0-3,0.1-4.4,0.2c0.1-1.4,0.2-2.8,0.2-5.2v-8.2c0-2.5-0.1-4-0.2-5.5c1.2,0.2,2.6,0.2,5.4,0.2
			h12.6c2.5,0,3.8-0.1,5.1-0.3v3.8c-1.2-0.2-2.5-0.2-4.4-0.2h-3.8v2.2h2.9c2.1,0,3.2-0.1,3.9-0.1c-0.1,0.8-0.1,1.5-0.1,2.5v0.7
			c3.3-2.6,5.4-5.9,6.6-10.1l4.6,1c-0.8,1.7-1,2.3-1.6,3.5h9.7c2.1,0,3.4-0.1,4.7-0.3v4.5c-1.3-0.2-2.7-0.3-4.7-0.3h-12
			c-1.4,2-2.1,2.8-4.5,5.3c-1-1.3-1.8-2.3-2.9-3.1v1.5c0,1.2,0,1.7,0.1,2.6c-1-0.1-2.3-0.1-4.2-0.1h-2.7V456.2z M1003.3,446.4v-2.2
			H997v2.2H1003.3z M1010.2,451.3v-2.2H997v2.2H1010.2z M997,454v2.2h6.4V454H997z M1002.1,466.5h25.2v-2.2h-25.2V466.5z
			 M1002.1,471.6h25.2v-2.2h-25.2V471.6z M1002.1,476.8h25.2v-2.2h-25.2V476.8z M1019.2,452.4c1,0.2,2.6,0.2,4.4,0.2h8.3
			c2.2,0,3.5-0.1,4.7-0.2v4.3c-1.4-0.2-2.5-0.3-4.6-0.3h-8.2c-2,0-3.5,0.1-4.6,0.2V452.4z"/>
		<path fill="#515456" d="M257.7,558.5c-3-4.5-4.3-6.8-5.7-10.6c-1.8-5-2.8-10-2.8-15.4c0-4.6,0.7-9.1,2-13.3
			c1.4-4.3,2.9-7.2,6.5-12.5l4.8,3.1c-3.1,4.6-4.4,7-5.6,10.8c-1.2,3.7-1.8,7.8-1.8,12c0,4.2,0.6,8.2,1.8,11.9
			c1.2,3.7,2.4,6.2,5.5,10.8L257.7,558.5z"/>
		<path fill="#515456" d="M274.6,549.7c-2.9,0-4.3,0.1-6.5,0.2c0.4-2.3,0.5-3.7,0.5-7.1v-29.2c0-2.4-0.2-4.2-0.4-6.3
			c1.8,0.1,3,0.1,6.5,0.1h12.2c8.2,0,12.7,3.7,12.7,10.3c0,3.2-1,5.6-3,7.5c-1.2,1-2.2,1.5-4.3,2.2c2.6,0.5,3.9,1.1,5.4,2.4
			c2.2,2,3.3,4.7,3.3,8.2c0,7.5-4.9,11.7-13.6,11.7H274.6z M286.4,525c4.5,0,7.1-2.4,7.1-6.5c0-4-2.5-6-7.2-6h-11.8V525H286.4z
			 M274.5,544.5h12.2c5.3,0,8.1-2.5,8.1-7.2c0-2.3-0.6-4-1.9-5.2c-1.4-1.3-3.6-2.1-6.4-2.1h-12V544.5z"/>
		<path fill="#515456" d="M336.9,520.2c-0.6-2.3-1.2-3.4-2.4-4.8c-2-2.3-4.9-3.6-8.5-3.6c-8.2,0-13.1,6.3-13.1,16.5
			c0,10.2,5.1,16.7,13.2,16.7c3.9,0,7.3-1.5,9.2-4.2c1.1-1.5,1.6-2.8,2-5.1l6.4,1.2c-1,3.6-1.8,5.5-3.3,7.4c-3.1,3.9-8.2,6-14.4,6
			c-5.6,0-10.2-1.7-13.4-5c-3.8-3.9-5.9-10-5.9-16.8c0-7.2,2.3-13.3,6.6-17.4c3.3-3.1,7.5-4.6,12.7-4.6s9.5,1.5,12.6,4.5
			c2.2,2.1,3.3,4,4.5,7.5L336.9,520.2z"/>
		<path fill="#515456" d="M350,549.7c0.3-2.1,0.4-3.9,0.4-6.6v-29.2c0-2.4-0.1-4.2-0.4-6.6c2.1,0.1,3.7,0.2,6.5,0.2h11.2
			c9.1,0,14.1,4.5,14.1,12.6c0,8.4-5.2,13.3-14.4,13.3h-11v9.7c0,2.9,0.1,4.7,0.4,6.7H350z M367.4,528.1c5.3,0,8.2-2.8,8.2-7.9
			c0-5-2.8-7.6-8.2-7.6h-11v15.5H367.4z"/>
		<path fill="#515456" d="M383,534c1.3-1.4,1.3-1.4,4-4.6l13.1-16.2c2.2-2.6,3-3.8,4.3-5.8h6c-0.3,3.1-0.4,5-0.4,9.1v17.7h2
			c2.2,0,3.5-0.1,5.5-0.4v5.9c-2.1-0.3-3.3-0.4-5.5-0.4h-2v4.2c0,2.7,0.1,4.1,0.4,6h-6.6c0.4-1.8,0.5-3.5,0.5-6.1v-4.1h-14.7
			c-3.1,0-4.7,0.1-6.6,0.2V534z M404.4,522.2c0-2.7,0.1-4.4,0.3-6.8c-1.1,1.6-1.9,2.6-3.7,5l-11.2,14h14.7V522.2z"/>
		<path fill="#515456" d="M449.8,512.4c-1.4,1.3-2.6,3-5,6.8c-4.3,6.9-6.6,12-8.5,18.8c-1.1,3.9-1.6,6.4-2.3,11.6h-7.2
			c1.9-10,3.3-14.7,6.5-21.3c2.7-5.6,5-9.3,9.6-15.6h-17.1c-3,0-4.5,0.1-6.6,0.4V507c2.3,0.3,3.9,0.4,6.9,0.4h16.8
			c3.7,0,5-0.1,6.9-0.3V512.4z"/>
		<path fill="#515456" d="M457.5,514.5c3.7,1.8,5.6,3,8.7,5.2l-3,4c-3.1-2.6-5.3-4-8.9-5.7L457.5,514.5z M469.3,527.8
			c-3.5,3.6-5.9,5.7-11.7,9.9l-3-4.4c3.6-1.6,8.7-5.5,12.4-9.5L469.3,527.8z M481,548c0,2.5,0.1,4.3,0.4,6h-5.7c0.3-2,0.4-3.6,0.4-6
			v-3.8h-15.2c-2.7,0-4.4,0.1-6.2,0.3v-5.1c1.6,0.2,3.1,0.3,5.6,0.3H476c0-1.3-0.1-2.3-0.2-3.1h5.4c-0.2,0.8-0.2,1.7-0.2,3.1h16.4
			c2.8,0,4-0.1,5.8-0.3v5.1c-1.8-0.2-3.5-0.3-6.2-0.3h-16V548z M460.3,504.1c3.8,2.1,5.5,3.2,8.5,5.8l-3,3.9c-3.1-3-5-4.3-8.7-6.1
			L460.3,504.1z M495.9,517.1c2.6,0,3.9-0.1,4.9-0.2v4.2c-1.4-0.2-2.5-0.2-4.9-0.2H490v3.2h5.9c2.6,0,3.6-0.1,4.9-0.2v4.2
			c-1.4-0.2-2.6-0.2-4.9-0.2H490v3.6h8c2.2,0,3.5-0.1,5.1-0.3v4.5c-1.4-0.2-2.9-0.3-5.3-0.3h-21.8c-1.7,0-3.1,0.1-4.4,0.2
			c0.2-1.6,0.2-2.5,0.2-4.7v-7.8c0-2.5,0-2.5,0.2-5.1c-1.4,1.9-1.4,1.9-3.4,3.8c-1-1.8-1.7-2.6-3.1-3.8c5.1-4,8.6-8.7,10.9-14.5
			l4.8,1.4c-1.5,2.6-1.5,2.6-3,4.9h7.8c1.6-2.3,2.4-3.8,3.2-6l4.6,1.3c-1.7,2.9-1.9,3.2-3,4.7h6.3c1.9,0,3.8-0.1,5.3-0.3v4.5
			c-1.4-0.2-2.9-0.3-4.8-0.3H490v3.3H495.9z M485.5,517.1v-3.3h-9.1v3.3H485.5z M476.4,524.1h9.1v-3.2h-9.1V524.1z M476.4,531.5h9.1
			v-3.6h-9.1V531.5z"/>
		<path fill="#515456" d="M534.6,512.8c1.6,0,2.6-0.1,3.7-0.2c-0.2,1.9-0.2,1.9-0.3,3.7c-0.3,5.1-1.1,11.3-2,15
			c-0.8,3-1.6,5.3-3,8.4c2,3,4.8,5.2,7.9,6.3c2.9,1.1,7.9,1.7,13.4,1.7c1.8,0,3.1-0.1,5.2-0.2c-0.8,2.1-1.1,3-1.4,5.1
			c-16-0.1-22.5-2.2-27.3-8.9c-2.4,3.9-4.5,6.5-8,9.7c-1-2-1.7-3-2.9-4.1c3.8-3.1,6.3-6,8.6-9.9c-1.2-2.8-1.9-5.3-2.6-8.8
			c-0.9,2.3-1.3,3.2-2.4,5.3c-1.1-1.8-1.6-2.4-2.9-3.7c-0.5,0.3-0.5,0.3-1.7,0.9v15.7c0,3.6-1.2,4.6-5.1,4.6c-0.1,0-0.3,0-0.5,0
			s-0.8,0-1.4-0.1c-0.8,0-1.1,0-1.7-0.1c-0.1-1.7-0.3-3.1-0.9-4.6c1.5,0.3,2.8,0.4,3.8,0.4c1.1,0,1.5-0.3,1.5-1.2v-12.6
			c-1.1,0.5-1.2,0.5-2.4,1c-0.3,0.2-0.6,0.3-0.8,0.4c-0.6,0.3-0.6,0.3-1.1,0.4c-0.3,0.2-0.3,0.2-0.6,0.3l-0.9-5
			c0.2,0,0.3-0.1,0.4-0.1c1.3-0.2,2.9-0.7,5.4-1.6V519H513c-1.4,0-2.4,0.1-3.7,0.2v-4.8c1.2,0.2,2.1,0.3,3.6,0.3h1.7v-4.5
			c0-2.5-0.1-3.8-0.3-5.5h5.1c-0.3,1.6-0.3,3-0.3,5.5v4.5h0.9c1.3,0,2.1-0.1,2.9-0.2v4.6c-0.8-0.1-1.6-0.2-3-0.2H519v9.6
			c0.7-0.3,1.1-0.5,2.2-1.1v3.6c2.6-5.2,4.3-11.8,5.3-19.8c0.3-2.7,0.4-4,0.4-5.2c0-0.4,0-0.8-0.1-1.2l4.6,0.5
			c-0.2,1-0.3,1.7-0.5,3.7c-0.1,0.3-0.2,1.1-0.3,2.2c-0.1,0.5-0.1,0.5-0.2,1.5H534.6z M529.8,517.3c-0.5,2.6-1,4.8-1.7,7
			c0.8,4.9,1.3,7.1,2.5,10.4c1.6-4.6,2.5-9.7,3-17.4H529.8z M545.1,515.6c0,7.8-0.4,14-1.2,17.9c-0.8,4.1-1.9,6.8-4.2,10.3
			c-1.5-1.5-1.8-1.8-3.8-3c4.1-5.8,5-10.6,5-27.9c0-2.9-0.1-4-0.2-5.6c1.3,0.2,2.3,0.2,3.7,0.2h5.2c1.5,0,2.2-0.1,3.5-0.2
			c-0.2,1.3-0.2,2.6-0.2,4.7v25.8c0,0.6,0.2,0.8,1,0.8c0.8,0,1-0.3,1.2-1.7c0.2-1.5,0.2-4.1,0.2-8c1.4,0.8,2.3,1.1,3.7,1.5
			c-0.4,11.9-0.6,12.5-5.9,12.5c-1.9,0-2.9-0.3-3.7-1.1c-0.5-0.5-0.7-1.1-0.7-2.5v-27.4h-3.4V515.6z"/>
		<path fill="#515456" d="M567.5,506.7c3.6,5.2,5.1,8.2,6.5,12.5c1.3,4.2,2,8.7,2,13.3c0,5.4-0.9,10.3-2.8,15.3
			c-1.5,3.9-2.7,6.2-5.7,10.6l-4.8-3.2c3.1-4.6,4.4-7.1,5.6-10.8c1.2-3.7,1.8-7.6,1.8-11.9s-0.6-8.3-1.8-12
			c-1.2-3.8-2.5-6.3-5.6-10.8L567.5,506.7z"/>
	</g>
</g>
</svg>
