<?xml version="1.0" encoding="utf-8"?>
<!-- Generator: Adobe Illustrator 24.3.0, SVG Export Plug-In . SVG Version: 6.00 Build 0)  -->
<svg version="1.1" id="レイヤー_1" xmlns="http://www.w3.org/2000/svg" xmlns:xlink="http://www.w3.org/1999/xlink" x="0px"
	 y="0px" viewBox="0 0 1200 630" enable-background="new 0 0 1200 630" xml:space="preserve">
<g id="BG">
	<g id="wrap">
		<rect fill="#D7E8F9" width="1200" height="630"/>
	</g>
	<rect fill="#CADDEF" width="36" height="630"/>
	<rect x="36" fill="#4D91CE" width="78" height="630"/>
	<rect x="114" fill="#D4DFE8" width="30" height="630"/>
	<rect x="144" fill="#8EC0ED" width="30" height="630"/>
	<g id="listful_x5F_logotype">
		<path fill="#E8F0F7" d="M389.7,269.8V24.2c0-5.9,3.6-9.2,9.8-9.2h39.1c6.3,0,9.8,3.3,9.8,9.2v245.6c0,5.9-3.5,9.2-9.8,9.2h-39.1
			C393.3,278.9,389.7,275.6,389.7,269.8z"/>
		<path fill="#E8F0F7" d="M471.2,64.6V31.4c0-5.9,3.5-9.2,9.8-9.2h39.2c6.3,0,9.8,3.3,9.8,9.2v33.1c0,5.9-3.5,9.2-9.8,9.2H481
			C474.7,73.8,471.2,70.5,471.2,64.6z M471.2,269.8V104.6c0-5.9,3.5-9.2,9.8-9.2h39.2c6.3,0,9.8,3.3,9.8,9.2v165.2
			c0,5.9-3.5,9.2-9.8,9.2H481C474.7,278.9,471.2,275.6,471.2,269.8z"/>
		<path fill="#E8F0F7" d="M686.5,222c0,40-34.1,57-72.3,57c-35.5,0-67.4-16-71.6-52.9c-0.7-5.9,2.8-9,8.4-9h34c5.2,0,7,2.8,9.4,7.3
			c2.8,5.9,9.4,9.4,19.8,9.4c14.6,0,20.2-4.9,20.2-11.8c0-25-90.8-2.1-90.8-69.6c0-39.3,34.1-57,70.6-57c32.3,0,64,16,68.2,52.9
			c0.7,5.9-2.8,9-8.4,9h-34.1c-5.2,0-7-2.8-9.4-7.6c-2.4-5.6-8.4-9-16.4-9c-12.9,0-18.4,4.9-18.4,11.8
			C595.7,178.1,686.5,154.1,686.5,222z"/>
		<path fill="#E8F0F7" d="M805.8,105.1v34.2c0,5.1-4.1,9.2-9.2,9.2h-20.2v121.2c0,5.1-4.1,9.2-9.2,9.2h-36.8c-5.1,0-9.2-4.1-9.2-9.2
			V148.5H701c-5.1,0-9.2-4.1-9.2-9.2v-34.2c0-5.1,4.1-9.2,9.2-9.2h20.2V46.3c0-5.1,4.1-9.2,9.2-9.2h36.8c5.1,0,9.2,4.1,9.2,9.2v49.6
			h20.2C801.7,95.9,805.8,100,805.8,105.1z"/>
		<path fill="#E8F0F7" d="M897.9,95.9h25c5.1,0,9.2,4.1,9.2,9.2v34.2c0,5.1-4.1,9.2-9.2,9.2H898v121.2c0,5.1-4.1,9.2-9.2,9.2H852
			c-5.1,0-9.2-4.1-9.2-9.2V148.5h-15.6c-5.1,0-9.2-4.1-9.2-9.2v-34.2c0-5.1,4.1-9.2,9.2-9.2h15.5c0-48.6,25.4-78.5,80-78.5
			c5.1,0,9.3,4.2,9.3,9.3v34.5c0,5.9-3.3,8.8-9.6,8.8C907.5,70.1,897.9,78.4,897.9,95.9z"/>
		<path fill="#E8F0F7" d="M1104.8,104.3v160.5c0,4.9-4,8.9-8.9,8.9h-35.8c-4.9,0-8.9-4-8.9-8.9v-7.4c-8.4,12.4-23.6,21.3-46.4,21.3
			c-33.2,0-57.2-25.7-57.2-70.3V104.3c0-4.9,4-8.9,8.9-8.9h35.8c4.9,0,8.9,4,8.9,8.9v99.5c0,17.8,10.4,25.7,23.9,25.7
			c16.1,0,26.1-8.9,26.1-30v-95.2c0-4.9,4-8.9,8.9-8.9h35.8C1101.6,95.4,1104.8,98.7,1104.8,104.3z"/>
		<path fill="#E8F0F7" d="M1124.9,269.8V24.2c0-5.9,3.5-9.2,9.8-9.2h39.2c6.3,0,9.8,3.3,9.8,9.2v245.6c0,5.9-3.5,9.2-9.8,9.2h-39.2
			C1128.4,278.9,1124.9,275.6,1124.9,269.8z"/>
	</g>
</g>
<g id="text">
	<g enable-background="new    ">
		<path fill="#484A4C" d="M259.2,469c-0.2,0.9-0.2,1.5-0.2,2.8v10.8c0,3.5-1.7,5.2-5.2,5.2c-1.8,0-3.2-0.5-4.2-1.5
			c-0.5-0.5-0.8-1-1.2-2l2.3-0.9c0.3,0.7,0.5,1.1,0.8,1.5c0.6,0.6,1.4,0.9,2.4,0.9c1,0,1.8-0.3,2.3-0.9c0.4-0.5,0.6-1.3,0.6-2.4
			v-10.8c0-1.2,0-1.9-0.2-2.8H259.2z"/>
		<path fill="#484A4C" d="M271.6,485.9c-0.9,0.8-1.3,1.1-2.1,1.4c-0.8,0.3-1.7,0.5-2.6,0.5c-2.7,0-4.3-1.4-4.3-3.7
			c0-1.8,1.2-3.3,3.2-4c1.4-0.5,2.8-0.6,5.9-0.7v-1.2c0-1.6-0.9-2.4-3-2.4c-1.3,0-2.3,0.3-2.9,1c-0.3,0.3-0.5,0.6-0.7,1.3l-2.2-0.4
			c0.4-1.2,0.8-1.8,1.5-2.3c1.1-0.9,2.5-1.3,4.4-1.3c1.8,0,3.1,0.4,4,1.2c0.7,0.7,1,1.6,1,2.9v6.7c0,1.2,0,1.8,0.2,2.8h-2.3V485.9z
			 M271.6,481c-2.7,0.1-4.1,0.2-5.1,0.7c-1.2,0.5-1.8,1.2-1.8,2.4c0,1.2,0.9,2,2.4,2c1.3,0,2.8-0.6,3.7-1.6c0.6-0.6,0.8-1.2,0.8-2.1
			V481z"/>
		<path fill="#484A4C" d="M278.4,474.3c0.1,0.6,0.3,1.4,0.7,2.3l2.6,7c0.1,0.3,0.4,1.1,0.6,1.6c0.2-0.6,0.3-1.1,0.5-1.6l2.6-7
			c0.4-1.1,0.6-1.7,0.7-2.3h2.7c-0.3,0.6-0.5,0.9-1.2,2.6l-3.5,8.4c-0.5,1.3-0.6,1.5-0.7,2.2h-2.4c-0.1-0.6-0.3-1-0.8-2.2l-3.4-8.4
			c-0.4-0.9-0.6-1.5-1.2-2.6H278.4z"/>
		<path fill="#484A4C" d="M299.4,485.9c-0.9,0.8-1.3,1.1-2.1,1.4c-0.8,0.3-1.7,0.5-2.6,0.5c-2.7,0-4.3-1.4-4.3-3.7
			c0-1.8,1.2-3.3,3.2-4c1.4-0.5,2.8-0.6,5.9-0.7v-1.2c0-1.6-0.9-2.4-3-2.4c-1.3,0-2.3,0.3-2.9,1c-0.3,0.3-0.5,0.6-0.7,1.3l-2.2-0.4
			c0.4-1.2,0.8-1.8,1.5-2.3c1.1-0.9,2.5-1.3,4.4-1.3c1.8,0,3.1,0.4,4,1.2c0.7,0.7,1,1.6,1,2.9v6.7c0,1.2,0,1.8,0.2,2.8h-2.3V485.9z
			 M299.4,481c-2.7,0.1-4.1,0.2-5.1,0.7c-1.2,0.5-1.8,1.2-1.8,2.4c0,1.2,0.9,2,2.4,2c1.3,0,2.8-0.6,3.7-1.6c0.6-0.6,0.8-1.2,0.8-2.1
			V481z"/>
		<path fill="#484A4C" d="M307.1,482c0.1,1.1,0.3,1.7,0.7,2.3c0.8,1,2.2,1.6,3.9,1.6c2.7,0,4.4-1.3,4.4-3.4c0-1.1-0.5-2-1.3-2.5
			c-0.8-0.4-1-0.5-4-1.2c-1.6-0.4-2.5-0.7-3.4-1.2c-1.4-0.9-2.1-2.1-2.1-3.8c0-3.1,2.5-5.1,6.4-5.1c2.5,0,4.4,0.8,5.5,2.3
			c0.6,0.7,0.8,1.4,1.1,2.6l-2.4,0.3c-0.2-0.9-0.4-1.4-0.8-1.9c-0.7-0.9-1.9-1.3-3.4-1.3c-2.4,0-4,1.2-4,3.1c0,1.2,0.6,2,1.9,2.6
			c0.6,0.2,0.7,0.3,3.4,0.9c1.8,0.4,3,0.9,3.9,1.5c1.2,0.9,1.7,2.1,1.7,3.6c0,3.5-2.4,5.5-6.7,5.5c-2.7,0-4.8-0.8-5.9-2.3
			c-0.7-0.9-1-1.7-1.2-3.4L307.1,482z"/>
		<path fill="#484A4C" d="M331.1,478.5c-0.6-1.8-1.8-2.7-3.5-2.7c-2.6,0-4.2,2-4.2,5.1c0,3.1,1.7,5.1,4.3,5.1c1.3,0,2.4-0.5,3-1.5
			c0.2-0.3,0.3-0.6,0.5-1.2l2.1,0.5c-0.3,0.9-0.6,1.4-1,1.9c-1.1,1.4-2.7,2.1-4.8,2.1c-3.9,0-6.4-2.7-6.4-6.9c0-4.2,2.5-7,6.3-7
			c2.1,0,3.8,0.8,4.8,2.3c0.4,0.5,0.6,0.9,0.8,1.6L331.1,478.5z"/>
		<path fill="#484A4C" d="M344.5,476.5c-0.9-0.3-1.3-0.4-2-0.4c-1.2,0-2.2,0.5-2.9,1.4c-0.6,0.7-0.8,1.3-0.9,2.4v4.8
			c0,1.2,0,1.8,0.2,2.8h-2.5c0.1-1.2,0.2-1.8,0.2-2.8v-7.5c0-1.3,0-1.9-0.2-2.8h2.4v1.2c0,0,0,0.1,0,0.2c0,0,0,0.1,0,0.2
			c0,0.2,0,0.2,0,0.4c0.4-0.6,0.7-1,1.1-1.3c0.8-0.6,1.9-1,3.2-1c0.7,0,1.2,0,2.2,0.2L344.5,476.5z"/>
		<path fill="#484A4C" d="M350.3,469v2.4h-2.7V469H350.3z M350.2,474.3c-0.1,0.9-0.2,1.6-0.2,2.9v7.5c0,1.2,0,1.8,0.2,2.8h-2.5
			c0.1-1.1,0.2-1.7,0.2-2.8v-7.5c0-1.2,0-2-0.2-2.8H350.2z"/>
		<path fill="#484A4C" d="M354,492.4c0.1-1,0.2-1.8,0.2-2.8v-12.4c0-1.2,0-2-0.2-2.9h2.3v1.2c0,0.3,0,0.4,0,0.9
			c1.2-1.6,2.7-2.4,4.9-2.4c3.8,0,6.1,2.6,6.1,6.8c0,4.2-2.4,6.8-6.1,6.8c-2.1,0-3.7-0.8-4.9-2.3c0,0.6,0.1,1,0.1,1.7v2.5
			c0,1.2,0,2,0.2,2.9H354z M365,480.9c0-3.1-1.5-4.9-4.1-4.9c-2.7,0-4.6,2-4.6,5c0,1.5,0.5,2.9,1.3,3.7c0.8,0.8,2,1.3,3.2,1.3
			C363.4,485.9,365,484,365,480.9z"/>
		<path fill="#484A4C" d="M374.3,470.7c-0.1,0.8-0.2,1.7-0.2,2.7v0.9h1.1c1.1,0,1.7,0,2.4-0.1v2.1c-0.8-0.1-1.3-0.1-2.4-0.1h-1.1
			v8.1c0,0.7,0.1,1,0.3,1.3c0.2,0.2,0.6,0.4,1.2,0.4c0.6,0,1.1-0.1,1.9-0.6l0.5,1.9c-1,0.4-1.8,0.6-2.8,0.6c-1.2,0-2-0.3-2.5-0.7
			c-0.5-0.5-0.7-1.2-0.7-2.4v-8.4h-1c-0.8,0-1.4,0-2.1,0.1v-2.1c0.7,0.1,1.2,0.1,2.2,0.1h0.9v-0.9c0-1-0.1-1.9-0.2-2.7H374.3z"/>
	</g>
	<g enable-background="new    ">
		<path fill="#515456" d="M248.9,550.1c0.3-2.3,0.4-3.8,0.4-6.6v-17c0-2.8-0.1-4.5-0.4-6.6h6.2v2.7c0,0.4-0.1,1.1-0.1,2.3
			c2.9-3.8,6.3-5.5,11-5.5c3.9,0,7.1,1.4,8.9,4c1.2,1.7,1.7,3.8,1.7,7v13.1c0,2.9,0.1,4.8,0.4,6.6h-6.6c0.3-2.3,0.4-4,0.4-6.6v-12.3
			c0-4.8-1.8-6.9-5.7-6.9c-2.6,0-4.8,1-7,3.3c-1.5,1.6-2.2,2.9-3,5.1v10.7c0,2.5,0.1,4.4,0.4,6.6H248.9z"/>
		<path fill="#515456" d="M288.8,536.3c0.2,3.2,0.8,4.9,2.1,6.6c1.6,2.1,4.1,3.2,7.1,3.2c2.8,0,5.1-0.9,6.8-2.8
			c0.7-0.9,1.1-1.5,1.6-3l5.3,1.8c-1,2.3-1.8,3.4-3.1,4.8c-2.7,2.6-6.3,4-10.6,4c-9.1,0-14.9-6.2-14.9-16c0-9.7,5.7-16,14.5-16
			c7.6,0,12.9,4.8,14,12.6c0.1,0.7,0.1,0.7,0.4,4.7H288.8z M306.1,531.7c-0.3-2.6-1.1-4.3-2.6-5.8c-1.5-1.5-3.5-2.3-6-2.3
			c-3.1,0-5.6,1.5-7.2,4.2c-0.8,1.2-1,2.1-1.4,3.9H306.1z"/>
		<path fill="#515456" d="M342.8,550.1c-0.3-1.3-0.6-2.9-1.2-4.7l-4.6-14c-0.1-0.4-0.3-1-1-3.5c-0.3,1.2-0.9,3.1-1,3.6l-4.6,13.9
			c-0.5,1.7-1.1,3.6-1.2,4.7h-5.3c-0.3-1.4-0.4-2-1.3-4.8l-5.9-18.9c-0.7-2.3-1.5-4.8-2.2-6.6h6.8c0.1,1.7,0.6,4,1.2,6.2l3.3,11.7
			c0.2,0.7,0.6,2.3,1,4.2c0.2-0.7,1-3.6,1.2-4.2l4.4-13.2c0.5-1.6,1.1-3.7,1.2-4.7h4.9c0.2,1,0.8,3.2,1.2,4.7l4.5,13.6
			c0.2,0.4,0.5,1.7,0.8,2.5c0.2,0.8,0.2,0.8,0.3,1.2c0.5-2.5,0.9-3.8,0.9-3.9l3.5-12c0.6-2.3,1.1-4.5,1.2-6.2h6.8
			c-0.6,1.6-0.8,2.1-2.2,6.6l-5.9,19c-0.7,2.4-1,3.4-1.2,4.7H342.8z"/>
		<path fill="#515456" d="M377.2,514.4c0-2.7-0.1-4.4-0.4-6.7c1.9,0.1,3.3,0.2,6.5,0.2h9.6c6.3,0,10.7,1.5,14.1,4.8
			c3.8,3.7,5.7,9.1,5.7,16c0,7.1-2.1,12.9-6.1,16.7c-3.4,3.2-7.7,4.8-13.8,4.8h-9.6c-3,0-4.3,0.1-6.5,0.2c0.3-2.1,0.4-3.8,0.4-6.9
			V514.4z M392.5,544.7c4.4,0,7.4-1.1,9.8-3.6c2.8-2.9,4.2-7.2,4.2-12.5c0-5.4-1.3-9.3-3.9-12.1c-2.3-2.4-5.2-3.4-9.9-3.4h-9.4v31.5
			H392.5z"/>
		<path fill="#515456" d="M439,546.7c-1.9,1.6-2.9,2.2-4.5,2.9c-1.9,0.7-4,1.1-6.2,1.1c-6.4,0-10.2-3.3-10.2-8.7
			c0-4,2.5-7.3,6.8-8.9c3.4-1.2,6.6-1.6,14.1-1.8v-2.3c0-1.9-0.4-3.2-1.4-3.9c-1.1-0.9-2.9-1.4-5.1-1.4c-4.4,0-6.8,1.5-7.9,5
			l-5.9-1.1c1.1-2.8,2-4.2,3.8-5.6c2.5-1.9,5.8-2.9,10.2-2.9c4.5,0,7.5,0.9,9.6,3c1.7,1.6,2.4,3.6,2.4,7v14.8c0,2.6,0.1,4.1,0.4,6.4
			h-6V546.7z M439,535.3c-5.8,0.2-8.7,0.5-11.1,1.5c-2.7,1-4,2.7-4,5.1c0,2.6,2,4.3,5.3,4.3c2.8,0,5.9-1.2,7.9-3.2
			c1.3-1.3,1.9-2.8,1.9-4.6V535.3z"/>
		<path fill="#515456" d="M462.5,511.6c-0.3,1.8-0.4,4-0.4,6.4v1.8h2.4c2.5,0,3.7-0.1,5.5-0.3v5.5c-1.7-0.3-3-0.3-5.4-0.3h-2.5v17.4
			c0,2.7,0.8,3.6,3.3,3.6c1.5,0,2.6-0.3,4.2-1.2l1.1,5.1c-2.3,0.9-4,1.2-6.5,1.2c-2.8,0-4.8-0.6-6-1.7c-1.4-1.2-1.9-2.9-1.9-5.8
			v-18.6h-2.1c-1.9,0-3.1,0.1-4.8,0.3v-5.5c1.5,0.3,2.6,0.3,4.9,0.3h2.1V518c0-2.2-0.2-4.5-0.4-6.4H462.5z"/>
		<path fill="#515456" d="M479.3,536.3c0.2,3.2,0.8,4.9,2.1,6.6c1.6,2.1,4.1,3.2,7.1,3.2c2.8,0,5.1-0.9,6.8-2.8
			c0.7-0.9,1.1-1.5,1.6-3l5.3,1.8c-1,2.3-1.8,3.4-3.1,4.8c-2.7,2.6-6.3,4-10.6,4c-9.1,0-14.9-6.2-14.9-16c0-9.7,5.7-16,14.5-16
			c7.6,0,12.9,4.8,14,12.6c0.1,0.7,0.1,0.7,0.4,4.7H479.3z M496.6,531.7c-0.3-2.6-1.1-4.3-2.6-5.8c-1.5-1.5-3.5-2.3-6-2.3
			c-3.1,0-5.6,1.5-7.2,4.2c-0.8,1.2-1,2.1-1.4,3.9H496.6z"/>
		<path fill="#515456" d="M529.3,536.5c-3.1,7.1-6.4,10.3-10.6,10.3c-5.7,0-9.9-6-9.9-14.2c0-5.8,2.1-11.2,5.8-15.4
			c4.4-4.9,10.6-7.4,18.1-7.4c12.6,0,20.8,7.7,20.8,19.4c0,9-4.8,16.3-12.9,19.6c-2.5,1-4.6,1.6-8.3,2.3c-0.8-2.5-1.3-3.4-2.8-5.3
			c4.2-0.6,6.6-1.2,9-2.2c5.8-2.5,9.4-8.2,9.4-14.7c0-5.6-2.6-10.1-7.4-12.6c-1.8-1-3.3-1.3-5.8-1.5
			C533.8,522.8,531.9,530.6,529.3,536.5z M521.9,517.4c-4.9,3.3-7.9,9.1-7.9,15.2c0,4.7,2.1,8.4,4.6,8.4c1.9,0,3.9-2.4,6-7.3
			c2.1-5,3.9-12.5,4.6-19C526.3,515.1,524.2,515.8,521.9,517.4z"/>
		<path fill="#515456" d="M597.6,517.8c-1.5,5.2-2.4,7.6-4.5,11.2c-1.8,3.3-3.8,6.2-6.3,8.9c6.2,5.2,12.7,8.4,21.6,10.5
			c-1.5,1.7-2.2,2.9-3.2,5.2c-9.2-3-15.8-6.7-22-12.2c-3.1,2.8-6.8,5.3-10.8,7.4c-3.5,1.8-6.3,3-11.5,4.8c-0.8-2-1.6-3.1-3-4.8
			c9.6-2.7,15.7-5.7,21.7-10.9c-5.4-5.9-8.6-11.4-11.4-20.1h-3.1c-2.6,0-4.5,0.1-6.4,0.3V513c1.9,0.3,3.8,0.4,6.4,0.4h14.9v-4.1
			c0-1.7-0.1-3-0.4-4.3h5.8c-0.3,1.3-0.4,2.6-0.4,4.3v4.1H601c2.8,0,4.7-0.1,6.5-0.4v5.2c-1.8-0.2-3.6-0.3-6.4-0.3H597.6z
			 M573.5,517.8c1.4,4.3,2.3,6.4,4.2,9.7c1.7,2.8,3.3,4.9,5.5,7.1c2.1-2.3,3.7-4.5,5.2-7.2c1.7-3.1,2.5-4.9,3.9-9.6H573.5z"/>
		<path fill="#515456" d="M634.7,532.6c0-1.4-0.1-2.5-0.2-3.8h2.7c3.2-1.6,5.2-3,7.8-5.2h-18.4c-2.3,0-3.9,0.1-5.5,0.3v-5
			c1.6,0.2,3.1,0.3,5.5,0.3h20.1c2.1,0,3.1-0.1,4.2-0.2l2.4,3c-0.9,0.7-1,0.9-2.1,1.8c-3.8,3.3-6.4,5.1-11.6,8.3v0.8h15
			c2.4,0,4.6-0.1,6.2-0.3v5.2c-1.6-0.2-3.8-0.3-6.2-0.3h-15V548c0,4.2-1.7,5.5-6.9,5.5c-2,0-4-0.1-6.6-0.3c-0.3-1.8-0.5-2.6-1.4-4.9
			c2.5,0.4,5.6,0.8,7.6,0.8c1.8,0,2.4-0.4,2.4-1.5v-10h-15.2c-2.4,0-4.4,0.1-6.2,0.3v-5.2c1.8,0.2,3.8,0.3,6.2,0.3h15.2V532.6z
			 M633.9,508.7c0-1.7-0.1-2.9-0.3-4.2h5.6c-0.2,1.3-0.3,2.5-0.3,4.2v1.4h15.2c2.5,0,4-0.1,6-0.3c-0.2,1.4-0.3,2.5-0.3,4.2v3.9
			c0,1.4,0.1,2.7,0.3,4h-5v-7.5h-36.3v7.5h-5c0.2-1.3,0.3-2.5,0.3-4V514c0-1.6-0.1-2.9-0.3-4.2c1.9,0.2,3.6,0.3,6,0.3h14V508.7z"/>
		<path fill="#515456" d="M677.1,527c2.9,2,5,3.6,6.8,5.3c1.3-3.3,1.9-5.8,2.6-10.3h-8.6c-2.3,5.4-4.7,9-8.8,13.2
			c-1-2.1-1.6-3-2.9-4.3c3.5-3.2,5.6-6.3,7.5-10.6c1.2-2.8,2-5.6,2.5-8.8h-3.2c-1.9,0-3.5,0.1-5,0.3v-4.8c1.6,0.2,3,0.3,5.5,0.3
			h14.9c2.4,0,4.1-0.1,5.7-0.3v4.8c-1.8-0.2-3.3-0.3-5.6-0.3h-7.5c-0.6,3.1-0.8,4-1.5,6.4h7.9c2.3,0,3.2-0.1,4.5-0.2
			c-0.1,0.3-0.1,0.3-0.6,3.7c-1.3,8.9-3.1,14.4-6.6,19.8c-3.2,5-7,8.6-13,12.6c-1-1.9-1.7-2.6-3.2-4.1c4.2-2.5,6.7-4.5,9.4-7.4
			c1.6-1.7,2.8-3.4,4-5.7c-2.5-2.6-4.3-4.2-7-5.8L677.1,527z M701.8,508.9c-0.3,1.5-0.3,3.2-0.3,6.4v19.7c0,3.6,0.1,4.9,0.3,6.4
			h-5.3c0.2-1.5,0.3-2.7,0.3-6.3v-19.8c0-3.1-0.1-4.8-0.3-6.4H701.8z M713.8,505.5c-0.3,1.8-0.4,4.1-0.4,7.1v35
			c0,4.6-1.5,5.7-7.4,5.7c-0.8,0-3.3-0.1-6-0.2c-0.1-1.9-0.4-3.3-1.1-5.1c1.7,0.3,4.9,0.5,6.4,0.5c2.9,0,3.2-0.2,3.2-1.5v-34.5
			c0-2.6-0.1-5-0.4-7.1H713.8z"/>
		<path fill="#515456" d="M760.4,536c-0.6,0.6-0.8,0.8-1.5,1.5c-3.6,3.6-5.6,5.3-8.9,7.6c5.7,2.3,11.2,3.3,20,3.8
			c-1.3,2-2,3.4-2.5,5.1c-9.7-1.3-15.9-3.1-22-6.3c-3,1.5-7.2,3.1-10.9,4c-3.3,0.9-6.9,1.5-12.3,2.1c-0.6-1.9-1.3-3.1-2.5-4.7
			c8.8-0.3,14.8-1.5,21-4.1c-2.5-1.7-4.4-3.3-6.4-5.5c-2.9,2-5.5,3.5-8.7,4.8c-0.9-1.7-1.5-2.5-2.8-4c4.6-1.6,8.2-3.6,11.8-6.5
			c2.5-2.1,4-3.8,5.1-5.7l4.5,1.9c-0.3,0.4-0.3,0.4-0.9,1c-0.6,0.8-0.9,1.1-1.8,2.1h11c2.4,0,3.9-0.1,4.9-0.3L760.4,536z
			 M734.6,517.2c-1.6,3.2-2.5,4.8-4.5,7.2c-1.6,1.9-2.7,3-5.1,5c-1.7-1.6-2.2-2-3.9-3.1c2.3-1.6,3.3-2.5,4.7-4.1
			c2.2-2.3,3.2-3.9,4.5-7L734.6,517.2z M727.4,513.9c-2.7,0-4.3,0.1-5.9,0.3v-4.9c1.5,0.2,3.2,0.3,6.2,0.3h14.7v-1.3
			c0-1.5-0.1-2.5-0.3-3.6h5.7c-0.2,1.1-0.3,2.1-0.3,3.6v1.3h14.8c2.9,0,4.6-0.1,6.3-0.3v4.9c-1.7-0.2-3.8-0.3-6.2-0.3h-9v11.5
			c0,2.9-1.1,3.8-4.6,3.8c-1.3,0-2.5-0.1-4.3-0.2c-0.2-1.7-0.5-2.9-1.3-4.4c1.7,0.3,3,0.4,4.3,0.4c1.1,0,1.3-0.2,1.3-1.1v-10h-5.6
			c-0.3,9-2.5,13.2-9.5,17.4c-1.1-1.3-2.1-2.1-4-3.2c4-1.9,6-3.6,7.2-6.3c1-2.2,1.4-4.2,1.5-7.9H727.4z M737.9,537.1
			c1.9,1.9,4.4,3.9,7.5,5.7c3.1-1.8,4.8-3.1,7.3-5.7H737.9z M758.7,515.8c4,3.7,6.4,6.2,9.9,10.5l-4.2,3.2c-3.4-5-5.4-7.5-9.3-11.2
			L758.7,515.8z"/>
		<path fill="#515456" d="M809.8,541.2c3,4.4,7.7,6.9,15.8,8.4c-0.9,1.5-1.5,2.9-2.1,4.5c-7.9-1.9-13.4-5.5-16.7-10.7
			c-1.5,2.6-3.3,4.5-6,6.3c-3.2,2.2-6.3,3.3-11.2,4.4c-0.6-1.7-1.1-2.8-2.3-4.4c5-0.6,8-1.6,11-3.5c2.3-1.5,3.8-3,4.8-5.1h-8.7
			c-2,0-3.1,0.1-4.8,0.3v-4.6c1,0.2,1.5,0.2,3.1,0.2v-16.1c-0.4,0.3-0.9,0.8-1.6,1.3c-0.7-1.3-1.3-2.2-2.2-3.1
			c-0.8-0.1-1.2-0.1-1.8-0.1h-0.8v9.6c1.2-0.5,2-0.8,4.2-1.8l0.1,4.4c-2.2,1-2.9,1.3-4.2,1.8v15.8c0,3.7-1.2,4.6-6.6,4.6
			c-0.8,0-1.4-0.1-3-0.2c-0.2-1.7-0.4-2.9-1-4.5c1.8,0.2,3.1,0.3,4.5,0.3c1.2,0,1.5-0.3,1.5-1.3v-12.9c-1.5,0.5-1.9,0.6-3,1
			c-1.3,0.4-1.6,0.5-2.7,1l-0.8-5c1.6-0.2,3.1-0.5,6.4-1.6V519h-2.2c-1.1,0-2.2,0.1-3.7,0.3v-4.9c1.2,0.2,2.4,0.3,3.7,0.3h2.2v-4.6
			c0-2.5-0.1-4-0.3-5.5h5.3c-0.3,1.6-0.3,2.9-0.3,5.5v4.6h0.8c1.2,0,2.1-0.1,3.1-0.2v2.9c5.1-3.8,8.7-8.7,9.9-13.4l5,0.6
			c-0.2,0.4-0.2,0.4-0.4,1c-0.3,0.6-0.3,0.6-1,2h6.6c1.9,0,2.9-0.1,3.9-0.2l2.5,2.5c-0.4,0.5-0.8,1.1-1.4,2.1
			c-0.9,1.4-2.4,3.5-3.5,4.9h5.9c2.2,0,3.2-0.1,4.6-0.2c-0.2,1.4-0.2,2.8-0.2,5.2V537c1.3,0,2.3-0.1,3.1-0.2v4.6
			c-1.5-0.2-2.8-0.3-5.1-0.3H809.8z M804.3,537c0.2-1.2,0.3-2.2,0.3-3.1V533l4.7,0.2c-0.4,3.1-0.4,3.1-0.5,3.8h8.9v-5.4
			c-2.6,0.1-2.6,0.1-3,0.1c-4.7,0-5.9-0.6-5.9-3.3V521h-3.1c-0.3,7.3-1.6,10.3-5.8,13.8c-0.9-1.1-1.6-1.8-3-2.6v4.9H804.3z
			 M796.9,521v10.9c3.6-2.5,4.8-5,4.9-10.9H796.9z M806.4,516.9c1.2-1.3,2.5-3.2,3.7-5.2h-8.9c-1.4,2.1-2.5,3.5-4.2,5.2H806.4z
			 M817.7,521h-5v5.7c0,1.2,0.3,1.3,2.4,1.3c0.4,0,1.2,0,2.6-0.1V521z"/>
		<path fill="#515456" d="M869.1,509.3c-0.6,1-0.9,1.5-1.8,3.7c-3.3,7.9-5.4,12-7.8,15.5c4.6,3.8,7.6,6.6,12.2,11.6l-4.3,4.6
			c-2.8-3.7-6-7-11.2-11.6c-2.3,3.2-5.3,6.4-8.8,9.5c-3.8,3.3-7.2,5.7-12.7,8.8c-1.2-2.2-1.9-3-3.9-4.7c8.8-4.3,15.3-9.6,21.1-17.2
			c-4.4-3.6-9.7-7.2-14.4-9.7l3.9-4c3.9,2.3,6.3,3.9,8.9,5.7l4.8,3.4c2.3-3.7,4.2-7.6,6-12.1c1.3-3.1,1.6-4,1.9-5.7L869.1,509.3z"/>
		<path fill="#515456" d="M885.9,510c3.3,5.7,4.9,9.3,7.2,17l-5.8,2.2c-1.5-6.1-4.1-12.6-6.9-17.2L885.9,510z M919.7,511.3
			c-0.5,1.2-0.5,1.5-1.4,5.2c-2.2,9.8-6.5,18.5-12.2,24.8c-4.2,4.6-8.7,8-15.1,11.2c-1.5-2.4-2.2-3.2-4.1-4.8
			c6.2-2.7,10.5-5.7,14.7-10.1c5.3-5.7,9.1-13.6,11.1-23.3c0.4-2.1,0.6-3,0.6-4.6L919.7,511.3z"/>
		<path fill="#515456" d="M934.4,519.3c2.3,3.9,3.3,6.5,5.3,12.5l-5.1,1.7c-1.3-5.1-2.6-8.4-5-12.6L934.4,519.3z M965.2,519.4
			c-0.3,0.8-0.4,1-0.7,2.6c-1.6,7.3-4.1,13.3-7.7,18c-3.8,5.1-8.5,8.7-15.9,12.5c-1.1-1.9-1.7-2.6-3.7-4.4c3.7-1.5,5.9-2.6,9-4.9
			c6.3-4.6,10-10.2,12.4-18.8c0.8-2.6,1.1-4.5,1.1-6.2L965.2,519.4z M945.8,517.1c2.9,5.2,3.8,7.6,5.2,12.1l-5,1.6
			c-1-4-2.6-8.1-4.9-12.3L945.8,517.1z"/>
		<path fill="#515456" d="M979.2,551.9c0.3-2.3,0.3-3.6,0.3-6.9v-32.2c0-3.7-0.1-4.9-0.3-6.4h6.4c-0.3,1.7-0.3,3.6-0.3,6.6v9.1
			c7.7,2.7,15.3,6.3,24.3,11.4l-3.2,5.3c-2.4-1.6-3.8-2.5-6.6-4.1c-4.1-2.2-10-5.1-13-6.4c-0.9-0.4-0.9-0.4-1.7-0.9l0.1,2.1
			c0.1,0.5,0.1,2.2,0.1,2.7v12.8c0,2.8,0.1,4.9,0.3,6.9H979.2z M1001.9,509c2.5,2.9,3.7,4.6,5.6,8.1l-3.3,1.8
			c-1.8-3.3-3.3-5.6-5.6-8.3L1001.9,509z M1008.3,505.9c2.6,2.9,3.7,4.5,5.6,7.9l-3.3,1.9c-1.7-3.1-3.2-5.4-5.5-8.1L1008.3,505.9z"
			/>
	</g>
</g>
</svg>
