<?xml version="1.0" encoding="utf-8"?>
<!-- Generator: Adobe Illustrator 24.3.0, SVG Export Plug-In . SVG Version: 6.00 Build 0)  -->
<svg version="1.1" id="レイヤー_1" xmlns="http://www.w3.org/2000/svg" xmlns:xlink="http://www.w3.org/1999/xlink" x="0px"
	 y="0px" viewBox="0 0 1200 630" enable-background="new 0 0 1200 630" xml:space="preserve">
<g id="BG">
	<g id="wrap">
		<rect fill="#D7E8F9" width="1200" height="630"/>
	</g>
	<rect fill="#CADDEF" width="36" height="630"/>
	<rect x="36" fill="#4D91CE" width="78" height="630"/>
	<rect x="114" fill="#D4DFE8" width="30" height="630"/>
	<rect x="144" fill="#8EC0ED" width="30" height="630"/>
	<g id="listful_x5F_logotype">
		<path fill="#E8F0F7" d="M389.7,269.8V24.2c0-5.9,3.6-9.2,9.8-9.2h39.1c6.3,0,9.8,3.3,9.8,9.2v245.6c0,5.9-3.5,9.2-9.8,9.2h-39.1
			C393.3,278.9,389.7,275.6,389.7,269.8z"/>
		<path fill="#E8F0F7" d="M471.2,64.6V31.4c0-5.9,3.5-9.2,9.8-9.2h39.2c6.3,0,9.8,3.3,9.8,9.2v33.1c0,5.9-3.5,9.2-9.8,9.2H481
			C474.7,73.8,471.2,70.5,471.2,64.6z M471.2,269.8V104.6c0-5.9,3.5-9.2,9.8-9.2h39.2c6.3,0,9.8,3.3,9.8,9.2v165.2
			c0,5.9-3.5,9.2-9.8,9.2H481C474.7,278.9,471.2,275.6,471.2,269.8z"/>
		<path fill="#E8F0F7" d="M686.5,222c0,40-34.1,57-72.3,57c-35.5,0-67.4-16-71.6-52.9c-0.7-5.9,2.8-9,8.4-9h34c5.2,0,7,2.8,9.4,7.3
			c2.8,5.9,9.4,9.4,19.8,9.4c14.6,0,20.2-4.9,20.2-11.8c0-25-90.8-2.1-90.8-69.6c0-39.3,34.1-57,70.6-57c32.3,0,64,16,68.2,52.9
			c0.7,5.9-2.8,9-8.4,9h-34.1c-5.2,0-7-2.8-9.4-7.6c-2.4-5.6-8.4-9-16.4-9c-12.9,0-18.4,4.9-18.4,11.8
			C595.7,178.1,686.5,154.1,686.5,222z"/>
		<path fill="#E8F0F7" d="M805.8,105.1v34.2c0,5.1-4.1,9.2-9.2,9.2h-20.2v121.2c0,5.1-4.1,9.2-9.2,9.2h-36.8c-5.1,0-9.2-4.1-9.2-9.2
			V148.5H701c-5.1,0-9.2-4.1-9.2-9.2v-34.2c0-5.1,4.1-9.2,9.2-9.2h20.2V46.3c0-5.1,4.1-9.2,9.2-9.2h36.8c5.1,0,9.2,4.1,9.2,9.2v49.6
			h20.2C801.7,95.9,805.8,100,805.8,105.1z"/>
		<path fill="#E8F0F7" d="M897.9,95.9h25c5.1,0,9.2,4.1,9.2,9.2v34.2c0,5.1-4.1,9.2-9.2,9.2H898v121.2c0,5.1-4.1,9.2-9.2,9.2H852
			c-5.1,0-9.2-4.1-9.2-9.2V148.5h-15.6c-5.1,0-9.2-4.1-9.2-9.2v-34.2c0-5.1,4.1-9.2,9.2-9.2h15.5c0-48.6,25.4-78.5,80-78.5
			c5.1,0,9.3,4.2,9.3,9.3v34.5c0,5.9-3.3,8.8-9.6,8.8C907.5,70.1,897.9,78.4,897.9,95.9z"/>
		<path fill="#E8F0F7" d="M1104.8,104.3v160.5c0,4.9-4,8.9-8.9,8.9h-35.8c-4.9,0-8.9-4-8.9-8.9v-7.4c-8.4,12.4-23.6,21.3-46.4,21.3
			c-33.2,0-57.2-25.7-57.2-70.3V104.3c0-4.9,4-8.9,8.9-8.9h35.8c4.9,0,8.9,4,8.9,8.9v99.5c0,17.8,10.4,25.7,23.9,25.7
			c16.1,0,26.1-8.9,26.1-30v-95.2c0-4.9,4-8.9,8.9-8.9h35.8C1101.6,95.4,1104.8,98.7,1104.8,104.3z"/>
		<path fill="#E8F0F7" d="M1124.9,269.8V24.2c0-5.9,3.5-9.2,9.8-9.2h39.2c6.3,0,9.8,3.3,9.8,9.2v245.6c0,5.9-3.5,9.2-9.8,9.2h-39.2
			C1128.4,278.9,1124.9,275.6,1124.9,269.8z"/>
	</g>
</g>
<g id="text">
	<g enable-background="new    ">
		<path fill="#484A4C" d="M259.2,469c-0.2,0.9-0.2,1.5-0.2,2.8v10.8c0,3.5-1.7,5.2-5.2,5.2c-1.8,0-3.2-0.5-4.2-1.5
			c-0.5-0.5-0.8-1-1.2-2l2.3-0.9c0.3,0.7,0.5,1.1,0.8,1.5c0.6,0.6,1.4,0.9,2.4,0.9c1,0,1.8-0.3,2.3-0.9c0.4-0.5,0.6-1.3,0.6-2.4
			v-10.8c0-1.2,0-1.9-0.2-2.8H259.2z"/>
		<path fill="#484A4C" d="M271.6,485.9c-0.9,0.8-1.3,1.1-2.1,1.4c-0.8,0.3-1.7,0.5-2.6,0.5c-2.7,0-4.3-1.4-4.3-3.7
			c0-1.8,1.2-3.3,3.2-4c1.4-0.5,2.8-0.6,5.9-0.7v-1.2c0-1.6-0.9-2.4-3-2.4c-1.3,0-2.3,0.3-2.9,1c-0.3,0.3-0.5,0.6-0.7,1.3l-2.2-0.4
			c0.4-1.2,0.8-1.8,1.5-2.3c1.1-0.9,2.5-1.3,4.4-1.3c1.8,0,3.1,0.4,4,1.2c0.7,0.7,1,1.6,1,2.9v6.7c0,1.2,0,1.8,0.2,2.8h-2.3V485.9z
			 M271.6,481c-2.7,0.1-4.1,0.2-5.1,0.7c-1.2,0.5-1.8,1.2-1.8,2.4c0,1.2,0.9,2,2.4,2c1.3,0,2.8-0.6,3.7-1.6c0.6-0.6,0.8-1.2,0.8-2.1
			V481z"/>
		<path fill="#484A4C" d="M278.4,474.3c0.1,0.6,0.3,1.4,0.7,2.3l2.6,7c0.1,0.3,0.4,1.1,0.6,1.6c0.2-0.6,0.3-1.1,0.5-1.6l2.6-7
			c0.4-1.1,0.6-1.7,0.7-2.3h2.7c-0.3,0.6-0.5,0.9-1.2,2.6l-3.5,8.4c-0.5,1.3-0.6,1.5-0.7,2.2h-2.4c-0.1-0.6-0.3-1-0.8-2.2l-3.4-8.4
			c-0.4-0.9-0.6-1.5-1.2-2.6H278.4z"/>
		<path fill="#484A4C" d="M299.4,485.9c-0.9,0.8-1.3,1.1-2.1,1.4c-0.8,0.3-1.7,0.5-2.6,0.5c-2.7,0-4.3-1.4-4.3-3.7
			c0-1.8,1.2-3.3,3.2-4c1.4-0.5,2.8-0.6,5.9-0.7v-1.2c0-1.6-0.9-2.4-3-2.4c-1.3,0-2.3,0.3-2.9,1c-0.3,0.3-0.5,0.6-0.7,1.3l-2.2-0.4
			c0.4-1.2,0.8-1.8,1.5-2.3c1.1-0.9,2.5-1.3,4.4-1.3c1.8,0,3.1,0.4,4,1.2c0.7,0.7,1,1.6,1,2.9v6.7c0,1.2,0,1.8,0.2,2.8h-2.3V485.9z
			 M299.4,481c-2.7,0.1-4.1,0.2-5.1,0.7c-1.2,0.5-1.8,1.2-1.8,2.4c0,1.2,0.9,2,2.4,2c1.3,0,2.8-0.6,3.7-1.6c0.6-0.6,0.8-1.2,0.8-2.1
			V481z"/>
		<path fill="#484A4C" d="M307.1,482c0.1,1.1,0.3,1.7,0.7,2.3c0.8,1,2.2,1.6,3.9,1.6c2.7,0,4.4-1.3,4.4-3.4c0-1.1-0.5-2-1.3-2.5
			c-0.8-0.4-1-0.5-4-1.2c-1.6-0.4-2.5-0.7-3.4-1.2c-1.4-0.9-2.1-2.1-2.1-3.8c0-3.1,2.5-5.1,6.4-5.1c2.5,0,4.4,0.8,5.5,2.3
			c0.6,0.7,0.8,1.4,1.1,2.6l-2.4,0.3c-0.2-0.9-0.4-1.4-0.8-1.9c-0.7-0.9-1.9-1.3-3.4-1.3c-2.4,0-4,1.2-4,3.1c0,1.2,0.6,2,1.9,2.6
			c0.6,0.2,0.7,0.3,3.4,0.9c1.8,0.4,3,0.9,3.9,1.5c1.2,0.9,1.7,2.1,1.7,3.6c0,3.5-2.4,5.5-6.7,5.5c-2.7,0-4.8-0.8-5.9-2.3
			c-0.7-0.9-1-1.7-1.2-3.4L307.1,482z"/>
		<path fill="#484A4C" d="M331.1,478.5c-0.6-1.8-1.8-2.7-3.5-2.7c-2.6,0-4.2,2-4.2,5.1c0,3.1,1.7,5.1,4.3,5.1c1.3,0,2.4-0.5,3-1.5
			c0.2-0.3,0.3-0.6,0.5-1.2l2.1,0.5c-0.3,0.9-0.6,1.4-1,1.9c-1.1,1.4-2.7,2.1-4.8,2.1c-3.9,0-6.4-2.7-6.4-6.9c0-4.2,2.5-7,6.3-7
			c2.1,0,3.8,0.8,4.8,2.3c0.4,0.5,0.6,0.9,0.8,1.6L331.1,478.5z"/>
		<path fill="#484A4C" d="M344.5,476.5c-0.9-0.3-1.3-0.4-2-0.4c-1.2,0-2.2,0.5-2.9,1.4c-0.6,0.7-0.8,1.3-0.9,2.4v4.8
			c0,1.2,0,1.8,0.2,2.8h-2.5c0.1-1.2,0.2-1.8,0.2-2.8v-7.5c0-1.3,0-1.9-0.2-2.8h2.4v1.2c0,0,0,0.1,0,0.2c0,0,0,0.1,0,0.2
			c0,0.2,0,0.2,0,0.4c0.4-0.6,0.7-1,1.1-1.3c0.8-0.6,1.9-1,3.2-1c0.7,0,1.2,0,2.2,0.2L344.5,476.5z"/>
		<path fill="#484A4C" d="M350.3,469v2.4h-2.7V469H350.3z M350.2,474.3c-0.1,0.9-0.2,1.6-0.2,2.9v7.5c0,1.2,0,1.8,0.2,2.8h-2.5
			c0.1-1.1,0.2-1.7,0.2-2.8v-7.5c0-1.2,0-2-0.2-2.8H350.2z"/>
		<path fill="#484A4C" d="M354,492.4c0.1-1,0.2-1.8,0.2-2.8v-12.4c0-1.2,0-2-0.2-2.9h2.3v1.2c0,0.3,0,0.4,0,0.9
			c1.2-1.6,2.7-2.4,4.9-2.4c3.8,0,6.1,2.6,6.1,6.8c0,4.2-2.4,6.8-6.1,6.8c-2.1,0-3.7-0.8-4.9-2.3c0,0.6,0.1,1,0.1,1.7v2.5
			c0,1.2,0,2,0.2,2.9H354z M365,480.9c0-3.1-1.5-4.9-4.1-4.9c-2.7,0-4.6,2-4.6,5c0,1.5,0.5,2.9,1.3,3.7c0.8,0.8,2,1.3,3.2,1.3
			C363.4,485.9,365,484,365,480.9z"/>
		<path fill="#484A4C" d="M374.3,470.7c-0.1,0.8-0.2,1.7-0.2,2.7v0.9h1.1c1.1,0,1.7,0,2.4-0.1v2.1c-0.8-0.1-1.3-0.1-2.4-0.1h-1.1
			v8.1c0,0.7,0.1,1,0.3,1.3c0.2,0.2,0.6,0.4,1.2,0.4c0.6,0,1.1-0.1,1.9-0.6l0.5,1.9c-1,0.4-1.8,0.6-2.8,0.6c-1.2,0-2-0.3-2.5-0.7
			c-0.5-0.5-0.7-1.2-0.7-2.4v-8.4h-1c-0.8,0-1.4,0-2.1,0.1v-2.1c0.7,0.1,1.2,0.1,2.2,0.1h0.9v-0.9c0-1-0.1-1.9-0.2-2.7H374.3z"/>
	</g>
	<g enable-background="new    ">
		<path fill="#515456" d="M249.8,518.3c3.6,2.1,5.8,3.7,9.1,6.6l-2.8,4.2c-3-3-5-4.5-9.1-7L249.8,518.3z M259.4,536.3
			c-1.8,5.5-3.5,9.6-5.9,14c-0.8,1.5-0.8,1.5-1.1,2.1c-0.3,0.5-0.3,0.5-0.5,1l-4.4-3.8c2.9-3.3,5.4-8.3,7.9-16.1L259.4,536.3z
			 M252.8,504.9c3.5,2.3,5.6,4.1,8.5,7.1l-3.1,4c-2.8-3.3-4.6-5-8.5-7.6L252.8,504.9z M275.4,547.2c-4.6,3.6-7.2,4.8-13.9,6.6
			c-0.9-1.8-1.5-2.7-2.9-4.2c6.6-1.3,9.6-2.6,13.4-5.6L275.4,547.2z M275.9,508.1c0-1.7-0.1-2.6-0.3-3.7h5.3
			c-0.2,1.1-0.3,2.1-0.3,3.7v0.7h9.5c2.9,0,4.6-0.1,5.9-0.2c-0.1,1.1-0.2,1.9-0.2,3.7v2.4c0,1.5,0.1,2.6,0.2,3.7h-4.7v2.2
			c-1.5-0.2-2.8-0.2-5-0.2h-5.8v3.6h8.7c2.3,0,3.3-0.1,4.8-0.2c-0.2,1.3-0.2,2.8-0.2,5V539c0,2.1,0.1,3.6,0.2,5
			c-1.2-0.2-3.2-0.2-5-0.2h-21c-2.1,0-3.2,0.1-4.8,0.2c0.1-1.5,0.2-2.6,0.2-4.8v-10.7c0-1.9-0.1-3.2-0.2-4.7
			c0.9,0.1,2.8,0.2,4.6,0.2h8.3v-3.6h-5.4c-2.2,0-3.2,0.1-4.8,0.2v-2.1h-4.5c0.1-1,0.2-2.2,0.2-3.4v-3c0-1.4-0.1-2.6-0.2-3.5
			c1.1,0.2,3,0.2,5.4,0.2h9V508.1z M291.3,512.9h-25v3.2c1.2,0.2,2.7,0.3,4.6,0.3h15.6c2,0,3.3-0.1,4.8-0.3V512.9z M268.1,527.7v4.2
			h8.3v-4.2H268.1z M268.1,535.7v4.3h8.3v-4.3H268.1z M280.7,531.9h8.7v-4.2h-8.7V531.9z M280.7,540h8.7v-4.3h-8.7V540z
			 M284.3,544.1c4,3.1,7.2,4.4,13.5,5.6c-1.2,1.7-1.7,2.4-2.6,4.3c-6.1-1.6-9.6-3.3-14.1-6.8L284.3,544.1z"/>
		<path fill="#515456" d="M311.2,512.2c-1.8,2.7-3.5,4.7-5.8,6.9c-1.1-1.6-1.7-2.3-3.3-3.6c4.2-3.5,7.2-7.7,8.4-11.7l4.8,1.2
			l-1.6,3.1h7.4c2.4,0,3.9-0.1,5.2-0.3v4.6c-1.1-0.2-2.7-0.2-4.8-0.2h-2.4c0.9,1.5,1.5,2.4,2.1,3.5l-4.1,1.2
			c-0.7-1.7-1.6-3.5-2.4-4.8H311.2z M332,512.2c-1.5,2.3-2.5,3.5-4.2,5.2h11.3c2.9,0,4.1-0.1,5.5-0.2c-0.1,1.5-0.2,3.2-0.2,5.9v9.9
			c0,3,0.1,4.4,0.2,5.6c-1.7-0.1-2.9-0.2-5.8-0.2h-1.6v2.9h7.6c2.9,0,4.6-0.1,6.1-0.3v4.7c-1.7-0.2-3.6-0.3-6.1-0.3h-7.6v3.6
			c0,2,0.1,3.4,0.3,5h-5.3c0.2-1.3,0.3-2.8,0.3-5v-3.6h-11.5c-1.1,2.8-2.7,4.7-5.3,6.3c-2.1,1.2-4.3,2-8.3,2.9
			c-0.9-1.7-1.4-2.4-2.9-4.1c3.5-0.4,4.8-0.7,6.6-1.3c2.4-0.9,4-2,5-3.7h-7.6c-2.3,0-4.1,0.1-5.9,0.3v-4.7c1.5,0.2,3.2,0.3,5.9,0.3
			h8.7c0.1-1.2,0.2-1.7,0.2-2.9h-2.2c-2.9,0-4.1,0.1-5.8,0.2c0.2-1.3,0.2-2.5,0.2-5.4v-11c0-2.6,0-3.6-0.1-5.1
			c1.2,0.1,2.4,0.2,4.6,0.2h13.3c-1.1-1.1-1.9-1.8-3.5-2.6c1.9-1.7,3-3,4.5-5.2c1.4-2.2,2.1-3.6,2.8-5.8l4.6,1.4
			c-0.7,1.4-1.2,2.4-1.6,3.1h11c2.5,0,4.1-0.1,5.6-0.3v4.6c-1.6-0.2-3.2-0.3-5.6-0.3h-4.8c0.8,1.1,1.4,2.1,2.2,3.4l-4.1,1.3
			c-0.8-1.9-1.7-3.3-2.6-4.8H332z M314.2,523.3H340v-2.5h-25.7V523.3z M314.2,529.2H340v-2.5h-25.7V529.2z M314.2,535H340v-2.5
			h-25.7V535z M332.6,541.4v-2.9h-10.4c-0.1,1.6-0.1,1.7-0.2,2.9H332.6z"/>
		<path fill="#515456" d="M376.1,523.3c0-1.6-0.1-2.8-0.2-3.9h2.7c4.2-2.3,7.2-4.5,10.7-7.7h-23.8c-2.6,0-4.4,0.1-6.1,0.3v-5.3
			c1.8,0.2,3.5,0.3,6.1,0.3h24.9c2.5,0,3.5-0.1,4.5-0.2l3,3.3c-0.9,0.8-0.9,0.8-2,1.8c-6.3,5.8-9.1,7.9-14.7,11.2v3.1h14
			c3.3,0,5.2-0.1,7-0.3v5.5c-2.1-0.3-3.8-0.3-7-0.3h-14v16.7c0,4.3-1.6,5.4-8,5.4c-1.5,0-2-0.1-6.3-0.3c-0.4-2.6-0.5-3.4-1.4-5.3
			c3.2,0.5,5.5,0.7,7.8,0.7c2.2,0,2.6-0.3,2.6-1.5V531h-15.2c-3,0-4.9,0.1-7,0.3v-5.5c1.9,0.2,3.9,0.3,7.2,0.3h15.1V523.3z"/>
		<path fill="#515456" d="M429.8,536.5c-3.1,7.1-6.4,10.3-10.6,10.3c-5.7,0-9.9-6-9.9-14.2c0-5.8,2.1-11.2,5.8-15.4
			c4.4-4.9,10.6-7.4,18.1-7.4c12.6,0,20.8,7.7,20.8,19.4c0,9-4.8,16.3-12.9,19.6c-2.5,1-4.6,1.6-8.3,2.3c-0.8-2.5-1.3-3.4-2.8-5.3
			c4.2-0.6,6.6-1.2,9-2.2c5.8-2.5,9.4-8.2,9.4-14.7c0-5.6-2.6-10.1-7.4-12.6c-1.8-1-3.3-1.3-5.8-1.5
			C434.3,522.8,432.4,530.6,429.8,536.5z M422.4,517.4c-4.9,3.3-7.9,9.1-7.9,15.2c0,4.7,2.1,8.4,4.6,8.4c1.9,0,3.9-2.4,6-7.3
			c2.1-5,3.9-12.5,4.6-19C426.8,515.1,424.7,515.8,422.4,517.4z"/>
		<path fill="#515456" d="M466.3,530.9c0-2.6,0.1-3.8,0.2-5.8c-1.1,2.3-1.8,3.5-4,6.4c-0.8-2.1-1.5-3.4-2.5-4.8
			c3.1-3.7,5.4-7.5,7.4-12.4c1.5-3.7,2.5-7.1,3-10.3l4.8,1.7c-0.3,0.8-0.4,1-0.9,2.8c-1.1,3.4-1.9,5.6-3.4,8.9v30.4
			c0,2.4,0.1,4.3,0.3,6.3H466c0.3-2.2,0.3-3.7,0.3-6.4V530.9z M503.9,541.1c-0.4,0.3-0.4,0.3-1.1,1c-1.8,1.9-3.9,3.6-6.1,5
			c4.6,1.4,9,2,14.9,2.1c-1,1.7-1.4,2.7-1.8,4.5c-9.2-1.2-12.7-2.2-17.3-4.3c-5.1,2.3-10.3,3.6-17.9,4.3c-0.3-1.4-0.9-2.6-1.8-3.9
			c5.9-0.2,10.7-1.1,15.5-2.7c-1.9-1.2-3.1-2.2-4.8-3.7c-2.5,1.8-4.4,2.8-7.9,4c-0.7-1.3-1.3-2-2.4-3.1c5.2-1.4,9.6-4.1,12.4-7.5
			c-1.4-0.4-1.8-1-1.8-2.7v-1.9c0-0.9-0.1-1.7-0.2-2.3h4.1c-0.2,0.7-0.2,1.5-0.2,2.2v0.7c0,1,0.6,1.1,4.5,1.1c3.7,0,4.9-0.2,5.3-0.8
			c0.3-0.3,0.4-0.7,0.8-2.6c1.1,0.6,1.5,0.8,2.6,1.1l2.9-1.8c1.4,1.3,1.7,1.6,2.7,2.6v-3.6H492c1.5,0.6,2.5,1.2,3.9,2.1l-2.1,2.5
			c-1.7-1.3-2.6-1.9-4.7-2.9l1.7-1.8h-12.8v4.5c0.9-1.1,1.1-1.6,2-3.2l3.1,1.7c-1.8,3.3-3.1,5-5.7,7.4l-2.8-2.5
			c1.6-1.3,2.2-1.8,3.2-3h-4.1c0.1-0.8,0.2-2.2,0.2-3.5v-1.4c0-1.3-0.1-2.4-0.2-3.4c1.6,0.1,2.5,0.2,5.4,0.2v-10.3
			c0-1.5-0.1-2.5-0.2-3.6c1.5,0.2,3.2,0.3,5.6,0.3h3.7c0.4-0.8,0.5-1,0.9-1.9h-7.6c-2.4,0-4.4,0.1-5.8,0.3v-4
			c1.3,0.2,3.2,0.3,5.8,0.3h22.6c2.7,0,4.5-0.1,5.9-0.3v4c-1.6-0.2-3.4-0.3-5.9-0.3h-10.3c-0.4,1-0.6,1.3-0.9,1.9h6.9
			c2.4,0,3.9-0.1,5.5-0.3c-0.1,1.2-0.2,2-0.2,3.6v10.3c2.6,0,3.9-0.1,5.6-0.2c-0.1,1-0.2,2.1-0.2,3.4v0.8c0,1.5,0.1,2.6,0.2,3.5
			h-3.8c1.2,1.2,1.8,1.9,3.1,3.7l-3,2.5c-1.9-2.7-3.4-4.6-5.3-6.5c-1.1,4.2-1.5,4.3-10.4,4.3c-0.2,0-0.8,0-1.3,0
			c-0.8,0.9-0.8,1-1.5,1.7h8.7c2.1,0,3.2-0.1,4-0.2L503.9,541.1z M500.9,516.7V515h-17.6v1.7H500.9z M500.9,521.1v-1.8h-17.6v1.8
			H500.9z M500.9,525.6v-1.9h-17.6v1.9H500.9z M487.1,542c1.6,1.2,3.1,2.3,5.2,3.3c1.9-1,2.8-1.6,5.1-3.3H487.1z"/>
		<path fill="#515456" d="M528.1,517.9c-1.6,2.5-3.3,4.6-5.7,7.2c-1.5-1.6-2.3-2.3-3.9-3.3c3.3-3.1,5.1-5.4,7-9
			c1.3-2.5,2.2-4.9,2.6-7.3l5.2,1.2c-0.3,0.6-0.5,1.1-1,2.5c-0.9,2.3-1,2.6-1.8,4.1h8.6v-3.4c0-2.1-0.1-3.3-0.3-5.1h5.7
			c-0.3,1.7-0.3,3-0.3,5.1v3.4h11.9c2.4,0,4-0.1,5.6-0.3v5.2c-1.5-0.2-3.2-0.3-5.6-0.3h-11.9v8.4h15.7c2.6,0,4.3-0.1,5.8-0.3v5.3
			c-1.7-0.2-3.3-0.3-5.8-0.3h-10.7v16.4c0,1.2,0.7,1.5,4.5,1.5c4.2,0,5.4-0.3,6-1.5c0.6-1.1,1-3.6,1-6.8v-1.1c1.6,0.9,2.8,1.3,5,1.8
			c-0.4,5.3-0.9,7.7-2,9.4c-0.8,1.2-2.1,2.1-3.5,2.4c-1.6,0.3-4.2,0.5-7.1,0.5c-7,0-8.6-0.8-8.6-4.1v-18.4h-6.9
			c-0.3,4.6-0.6,6.8-1.7,9.6c-1.6,4.2-4.3,7.5-8.6,10.4c-2.1,1.3-3.3,2-7.6,3.7c-0.8-1.7-1.6-2.9-3-4.6c5.5-1.7,8.9-3.6,11.7-6.8
			c2.1-2.3,3.2-4.9,3.8-8.2c0.1-0.9,0.2-1.9,0.3-4.2h-8.9c-2.4,0-4.2,0.1-5.8,0.3v-5.3c1.6,0.2,3.3,0.3,5.8,0.3h15.6v-8.4H528.1z"/>
		<path fill="#515456" d="M578.4,505.6c-0.2,1.5-0.3,2.6-0.3,5.7v15.3c0,12.8-1.1,20.3-4,26.1c-0.3-0.4-0.6-0.6-0.8-0.9
			c-1.6-1.7-1.7-1.8-3-2.9c1.4-2.6,2.2-5,2.7-8.3c0.5-3.8,0.9-9.8,0.9-14.7v-14.7c0-3.1-0.1-4.2-0.3-5.7H578.4z M585.3,507.3
			c-0.2,1.2-0.2,2.4-0.2,5.6v27.6c0,2.6,0.1,4.2,0.2,5.4H581c0.2-1.5,0.3-3,0.3-5.5v-27.5c0-3.2-0.1-4.1-0.2-5.6H585.3z M605.1,546
			c-3.1,3.6-5.2,5.3-9.8,8c-0.9-1.5-1.7-2.5-2.8-3.5c0.1,1,0.1,1.3,0.2,2.2h-4.6c0.2-1.5,0.3-2.7,0.3-6.6v-33.9
			c0-3.5-0.1-5.1-0.3-6.5h4.6c-0.2,1.4-0.3,2.7-0.3,6.5v33.9c0,2,0,2.9,0.1,4.1c3.9-1.9,6.3-3.7,8.6-6.8L605.1,546z M599.7,510.8
			c-3,0-4.3,0.1-5.6,0.3v-4.9c1.2,0.2,2.4,0.3,5.6,0.3h15.7c2.8,0,4.4-0.1,5.6-0.3v5c-1.4-0.2-2.9-0.3-5.6-0.3h-5.8
			c-0.6,1.8-1.2,3.5-1.8,4.6h6c2.8,0,3.9-0.1,5.1-0.2c-0.2,1.6-0.2,2.7-0.2,4.9v18c0,2.1,0.1,3.5,0.2,5.2c-1.5-0.2-2.9-0.2-4.6-0.2
			h-14.4c-1.8,0-3,0.1-4.4,0.2c0.1-1.4,0.2-3.1,0.2-4.9v-18c0-2.2-0.1-3.7-0.2-5.1c1.2,0.1,2.1,0.2,4.6,0.2h2.9
			c0.7-1.6,1.2-2.9,1.7-4.6H599.7z M600.2,523.3h14v-3.8h-14V523.3z M600.2,531.1h14v-3.8h-14V531.1z M600.2,539h14v-4h-14V539z
			 M612.4,543.3c3,3.1,5.5,4.8,9.9,6.6c-1,1.2-1.9,2.5-2.8,4.2c-4.7-2.4-7.1-4.2-11-8.3L612.4,543.3z"/>
		<path fill="#515456" d="M631.6,531.6c0-2.1,0.1-4.1,0.2-6.3c-1.8,3-2.8,4.3-4.7,6.6c-0.5-1.6-1.4-3.6-2.4-5.1
			c4-4.3,7.2-9.5,9.6-15.5c1-2.6,1.8-5.4,2.1-7.2l5.2,1.5c-2.3,6.6-3.1,8.5-5.1,12.9v29.3c0,2.5,0.1,4.3,0.4,6.3h-5.6
			c0.3-2,0.4-3.6,0.4-6.4V531.6z M657.6,546.9c3.3-8.6,6.2-19.2,6.9-25.7l5.6,1.4c-0.8,2.6-0.8,2.6-1.9,7.1
			c-1.4,5.3-3.4,11.4-5.6,17.2h7c2.7,0,4.5-0.1,6-0.3v5.2c-1.7-0.3-3.7-0.4-6.2-0.4h-23.8c-2.6,0-4.4,0.1-6.2,0.4v-5.2
			c1.6,0.2,3.3,0.3,6.1,0.3H657.6z M654.4,509.1c0-1.7-0.1-2.9-0.3-4.2h5.6c-0.3,1.1-0.4,2.3-0.4,4.2v5.2h8.9c2.6,0,4.4-0.1,5.9-0.3
			v5.1c-1.7-0.2-3.5-0.3-5.9-0.3h-21.3c-3,0-4.8,0.1-6.2,0.3V514c1.6,0.3,3.1,0.3,6,0.3h7.7V509.1z M649,544.4
			c-1.6-8.5-3.1-14.3-5.8-21l4.8-1.6c2.8,7.4,4.1,12.2,5.9,21.2L649,544.4z"/>
	</g>
</g>
</svg>
